<svg xmlns="http://www.w3.org/2000/svg" viewBox="0 0 462 47" fill="#ffffff" xmlns:v="https://vecta.io/nano"><path d="M53.98 0c1.03 0 1.54.5 1.54 1.48v6.58c0 1.03-.5 1.54-1.54 1.54H32.9v35.92c0 .98-.5 1.48-1.48 1.48H24.1c-1 0-1.48-.5-1.48-1.48V9.6H1.54C.5 9.6 0 9.1 0 8.06V1.48C0 .5.5 0 1.54 0h52.44zM113 0c1.03 0 1.54.5 1.54 1.48v6.38c0 1-.5 1.48-1.54 1.48H83.66c-1.74 0-3.2.15-4.33.44s-2.06.78-2.75 1.48c-.7.7-1.17 1.63-1.44 2.82s-.4 2.65-.4 4.4v.67h37.94c.98 0 1.48.5 1.48 1.48v5.3c0 .98-.5 1.48-1.48 1.48H74.73v1.14c0 1.75.13 3.2.4 4.4s.75 2.13 1.44 2.82 1.6 1.2 2.75 1.48 2.6.44 4.33.44H113c1.03 0 1.54.5 1.54 1.48v6.38c0 .98-.5 1.48-1.54 1.48H83.46c-3.4 0-6.3-.3-8.66-.94s-4.3-1.64-5.8-3.06c-1.5-1.4-2.6-3.24-3.3-5.5s-1.04-5-1.04-8.22V17.73c0-3.22.35-5.95 1.04-8.2s1.8-4.06 3.3-5.47 3.44-2.44 5.8-3.1S80.05 0 83.46 0H113zm60.96 0c.98 0 1.48.5 1.48 1.48v6.38c0 1-.5 1.48-1.48 1.48h-33.64c-1.3 0-2.22.34-2.75 1-.54.67-.8 1.6-.8 2.75v2.28c0 2.5 1.16 3.76 3.5 3.76h25.18c3.9 0 6.83 1 8.8 3s2.96 4.85 2.96 8.56v5.37c0 3.27-.96 5.9-2.9 7.92-1.92 2-4.92 3.02-9 3.02h-37.2c-1.03 0-1.54-.5-1.54-1.48v-6.38c0-.98.5-1.48 1.54-1.48h35.25c1.3 0 2.22-.34 2.75-1 .54-.67.8-1.6.8-2.75v-2.75c0-2.5-1.16-3.76-3.5-3.76h-25.18c-3.9 0-6.83-1-8.8-3s-2.95-4.84-2.95-8.56v-4.9c0-3.27.96-5.9 2.9-7.92 1.92-2 4.92-3.02 9-3.02h35.6zm67 0c1.03 0 1.54.5 1.54 1.48v6.58c0 1.03-.5 1.54-1.54 1.54H219.9v35.92c0 .98-.5 1.48-1.48 1.48h-7.32c-1 0-1.48-.5-1.48-1.48V9.6h-21.08c-1.03 0-1.54-.5-1.54-1.54V1.48c0-.98.5-1.48 1.54-1.48h52.44zm50.63 0c5.15 0 8.84 1.17 11.08 3.5s3.36 5.78 3.36 10.34v4.97c0 4.57-1.12 8-3.36 10.34s-5.93 3.5-11.08 3.5h-27.8v12.9c0 .98-.5 1.48-1.48 1.48h-7.25c-1.03 0-1.54-.5-1.54-1.48V2c0-1.34.67-2 2-2h36.06zm-27.8 23.77h25.7c2.28 0 3.9-.5 4.84-1.48s1.4-2.5 1.4-4.5v-2.55c0-2-.47-3.5-1.4-4.5-.94-.98-2.55-1.48-4.84-1.48h-24.84c-.58 0-.87.27-.87.8v13.7zM326.5 0c.98 0 1.48.5 1.48 1.48v44.05c0 .98-.5 1.48-1.48 1.48h-7.25c-1.03 0-1.54-.5-1.54-1.48V1.48c0-.98.5-1.48 1.54-1.48h7.25zm27.4 0l2.7.13c.7.1 1.34.28 1.88.57s1.05.7 1.54 1.2c.5.5 1.05 1.2 1.68 2.05l24.98 32.77c.18.3.47.47.87.47h.6c.36 0 .54-.22.54-.67V1.48c0-.98.5-1.48 1.48-1.48h7.05c.98 0 1.48.5 1.48 1.48v38.54c0 2.73-.5 4.58-1.48 5.54s-2.5 1.44-4.57 1.44h-5.78c-1.03 0-1.9-.04-2.58-.13s-1.3-.27-1.85-.54-1.06-.66-1.58-1.17c-.5-.5-1.1-1.22-1.78-2.12l-25.04-32.76c-.27-.3-.56-.47-.87-.47h-.6c-.36 0-.54.23-.54.67v35.05c0 .98-.5 1.48-1.48 1.48h-7.05c-1.03 0-1.54-.5-1.54-1.48V6.98c0-2.73.5-4.58 1.48-5.54C344.4.48 345.94 0 348 0h5.9zm106.56 0c1.03 0 1.54.5 1.54 1.48v6.38c0 1-.5 1.48-1.54 1.48h-29.34c-1.74 0-3.2.15-4.33.44s-2.06.78-2.75 1.48c-.7.7-1.17 1.63-1.44 2.82s-.4 2.65-.4 4.4v.67h37.94c.98 0 1.48.5 1.48 1.48v5.3c0 .98-.5 1.48-1.48 1.48H422.2v1.14c0 1.75.13 3.2.4 4.4s.75 2.13 1.44 2.82 1.6 1.2 2.75 1.48 2.6.44 4.33.44h29.34c1.03 0 1.54.5 1.54 1.48v6.38c0 .98-.5 1.48-1.54 1.48h-29.54c-3.4 0-6.3-.3-8.66-.94s-4.3-1.64-5.8-3.06c-1.5-1.4-2.6-3.24-3.3-5.5s-1.04-5-1.04-8.22V17.73c0-3.22.35-5.95 1.04-8.2s1.8-4.06 3.3-5.47 3.44-2.44 5.8-3.1 5.26-.97 8.66-.97h29.54z"/></svg>