<svg xmlns="http://www.w3.org/2000/svg" viewBox="0 0 7 7" xmlns:v="https://vecta.io/nano"><circle cx="3.5" cy="3.5" r="3.5" fill="#2fc19a"/><path d="M5.03 3.34c.1-.35-.13-.6-.26-.68a.5.5 0 0 0-.44-.51.48.48 0 0 0-.44-.3.51.51 0 0 0-.39.19.51.51 0 0 0-.39-.19.5.5 0 0 0-.45.29.5.5 0 0 0-.42.52c-.14.08-.38.33-.27.68-.14.1-.22.27-.22.45 0 .2.1.4.3.5-.01.3.24.58.55.57.1.18.27.3.48.3a.56.56 0 0 0 .44-.22.53.53 0 0 0 .44.22c.2 0 .38-.1.48-.3a.55.55 0 0 0 .53-.57c.18-.1.3-.3.3-.5 0-.18-.08-.34-.22-.45h0zM3.4 4.6c0 .18-.15.33-.33.33-.2 0-.28-.14-.34-.3l-.15.02c-.18 0-.33-.15-.33-.33 0-.04.01-.06.02-.15-.16-.07-.3-.15-.3-.38 0-.22.15-.3.28-.38-.1-.16-.1-.18-.1-.25 0-.22.14-.3.32-.38-.02-.07-.03-.1-.03-.15 0-.16.13-.28.3-.28h.08c.04-.15.1-.3.3-.3a.28.28 0 0 1 .28.28L3.4 4.6zm1.33-.44a.54.54 0 0 1 .02.15c0 .18-.15.33-.33.33-.03 0-.04 0-.14-.02-.06.17-.14.3-.34.3-.18 0-.33-.15-.33-.33V2.34a.28.28 0 0 1 .28-.28c.2 0 .26.14.3.3h.08c.17 0 .3.13.3.28 0 .04-.01.08-.03.15.18.07.32.17.32.38 0 .06 0 .1-.08.25.13.07.28.16.28.38 0 .23-.15.3-.3.38h0z" fill="#fff"/></svg>