<svg xmlns="http://www.w3.org/2000/svg" viewBox="0 0 7 7" xmlns:v="https://vecta.io/nano"><circle cx="3.5" cy="3.5" r="3.5" fill="#2fc19a"/><path d="M4.9 3.4c.02-.06.02-.1.02-.17 0-.35-.28-.63-.63-.63a.66.66 0 0 0-.27.06c-.17-.25-.46-.4-.8-.4a.98.98 0 0 0-.98.94.8.8 0 0 0-.54.76c0 .45.36.8.8.8h2.06c.4 0 .72-.32.72-.72-.01-.27-.15-.5-.4-.64zm-.33 1.18H2.5c-.35 0-.63-.28-.63-.63 0-.32.24-.58.54-.62 0-.03-.01-.06-.01-.1 0-.45.36-.8.8-.8.34 0 .63.2.75.5.08-.1.2-.14.33-.14a.45.45 0 0 1 .45.45c0 .1-.04.2-.1.28a.53.53 0 0 1 .45.53c0 .3-.24.54-.53.54z" fill="#fff"/></svg>