<svg xmlns="http://www.w3.org/2000/svg" xmlns:xlink="http://www.w3.org/1999/xlink" viewBox="0 0 462 347" xmlns:v="https://vecta.io/nano"><style><![CDATA[.B{fill:#3f3d56}.C{fill:#2f2e41}.D{clip-path:url(#I)}]]></style><g fill="#e6e6e6"><ellipse cx="48.52" cy="328.02" rx="48.52" ry="18.98" opacity=".4"/><ellipse cx="413.56" cy="328.02" rx="48.52" ry="18.98" opacity=".4"/></g><path fill="#2fc19a" d="M109.6 79.63h256.2v27.33H109.6z"/><path d="M363.7 44.2c6.3 0 11.4 5.12 11.4 11.4v133.18c0 6.3-5.12 11.4-11.4 11.4H121.27c-6.3 0-11.4-5.12-11.4-11.4V55.6c0-6.3 5.12-11.4 11.4-11.4H363.7m0-1.5H121.27a12.91 12.91 0 0 0-12.9 12.9v133.18a12.91 12.91 0 0 0 12.9 12.9H363.7a12.91 12.91 0 0 0 12.9-12.9V55.6c.01-7.12-5.77-12.9-12.9-12.9h0z" class="B"/><path d="M363.7 1.5a11.41 11.41 0 0 1 11.4 11.4v7.55a11.41 11.41 0 0 1-11.4 11.4H121.27a11.41 11.41 0 0 1-11.4-11.4V12.9a11.41 11.41 0 0 1 11.4-11.4H363.7m0-1.5H121.27a12.91 12.91 0 0 0-12.9 12.9v7.55a12.91 12.91 0 0 0 12.9 12.9H363.7a12.91 12.91 0 0 0 12.9-12.9V12.9c0-7.12-5.77-12.9-12.9-12.9h0zm-11.78 12.23c-.3 0-.53.24-.53.53a.52.52 0 0 0 .07.27l4.5 7.82c.15.25.47.34.73.2.08-.05.15-.1.2-.2l4.5-7.82c.15-.25.06-.58-.2-.73-.08-.05-.17-.07-.27-.07h-9.02z" fill="#2fc19a"/><path d="M133.76 17.57h-4.63v3.47h5.42v1.57h-7.38V11.3h7.33v1.58h-5.36V16h4.63v1.55zm3.94-3.35l.06.97c.62-.75 1.43-1.12 2.44-1.12 1.74 0 2.64 1 2.66 3v5.54h-1.88v-5.44c0-.53-.12-.93-.35-1.18-.23-.26-.6-.4-1.12-.4-.77 0-1.33.35-1.7 1.04v5.97h-1.9v-8.4h1.78zm9.45-2.02v2.04h1.48v1.4h-1.48v4.68c0 .32.06.55.18.7s.36.2.68.2c.22 0 .44-.03.66-.08v1.45a4.23 4.23 0 0 1-1.24.18c-1.44 0-2.17-.8-2.17-2.4v-4.75h-1.38v-1.4h1.38v-2.04h1.9zm6.6 10.57c-1.2 0-2.16-.38-2.9-1.13-.75-.75-1.1-1.75-1.1-3v-.24c0-.83.16-1.58.48-2.24a3.71 3.71 0 0 1 1.36-1.54c.58-.37 1.24-.55 1.96-.55 1.14 0 2.03.37 2.65 1.1s.93 1.75.93 3.1v.76h-5.48c.06.7.3 1.24.7 1.65.4.4.92.6 1.53.6.86 0 1.57-.35 2.1-1.05l1.02.97a3.34 3.34 0 0 1-1.35 1.17c-.56.26-1.2.4-1.9.4zm-.22-7.2c-.5 0-.93.18-1.25.54s-.52.86-.6 1.5h3.6v-.13c-.04-.63-.2-1.1-.5-1.43s-.7-.5-1.23-.5zm9.44.38c-.24-.05-.5-.07-.77-.07-.86 0-1.44.33-1.74 1v5.74h-1.88v-8.4h1.8l.05.94c.46-.73 1.1-1.1 1.9-1.1a1.84 1.84 0 0 1 .67.11l-.01 1.77zm5.32 6.65V11.3h3.87c1.28 0 2.25.25 2.92.77.67.5 1 1.28 1 2.3a2.5 2.5 0 0 1-.42 1.4c-.28.42-.7.74-1.22.96.6.16 1.08.47 1.4.94.33.46.5 1 .5 1.65 0 1.06-.34 1.87-1.02 2.44-.68.56-1.66.85-2.92.85h-4.1zm1.95-6.54h1.93c.6 0 1.1-.14 1.42-.42.35-.27.52-.66.52-1.17 0-.55-.16-.96-.48-1.2-.3-.24-.8-.37-1.48-.37h-1.9v3.17zm0 1.45v3.53h2.18c.62 0 1.1-.16 1.44-.46.35-.3.52-.73.52-1.27 0-1.17-.6-1.77-1.8-1.8h-2.34zm12.9 5.1c-.1-.16-.16-.43-.2-.78a2.97 2.97 0 0 1-2.21.94c-.84 0-1.52-.24-2.05-.73-.53-.47-.8-1.08-.8-1.78 0-.9.33-1.58 1-2.05s1.62-.72 2.85-.72h1.15v-.55c0-.44-.12-.78-.36-1.05-.24-.25-.62-.4-1.1-.4-.43 0-.78.1-1.06.32-.27.2-.4.5-.4.82h-1.88c0-.47.15-.9.46-1.3.3-.4.72-.7 1.24-.94a4.44 4.44 0 0 1 1.75-.34c1 0 1.77.25 2.35.74s.88 1.2.9 2.08v3.8c0 .76.1 1.36.3 1.8v.14h-1.92zm-2.07-1.35c.38 0 .73-.1 1.06-.27a1.82 1.82 0 0 0 .74-.74v-1.58h-1.02c-.7 0-1.22.13-1.57.37s-.52.58-.52 1.03c0 .37.12.65.36.86.23.22.55.33.95.33zm10.35-.92a.88.88 0 0 0-.41-.77c-.28-.17-.74-.33-1.38-.47-.65-.14-1.18-.3-1.6-.5-.94-.45-1.4-1.1-1.4-1.98 0-.72.3-1.33.92-1.8s1.4-.73 2.33-.73c1 0 1.8.25 2.43.75.6.5.92 1.13.92 1.93h-1.88c0-.36-.14-.66-.4-.9s-.62-.36-1.07-.36c-.42 0-.76.1-1.02.28a.91.91 0 0 0-.39.77.77.77 0 0 0 .37.68c.24.16.73.32 1.47.48s1.32.36 1.73.58c.43.22.74.5.94.8s.3.7.3 1.14c0 .76-.32 1.37-.94 1.83-.63.47-1.44.7-2.46.7-.7 0-1.3-.13-1.83-.38-.54-.24-.96-.6-1.26-1.02-.3-.44-.45-.9-.45-1.4h1.82c.03.45.2.78.5 1.03.3.24.73.36 1.24.36.5 0 .87-.1 1.12-.28.3-.18.42-.42.42-.73zm3.5-8.3a1.03 1.03 0 0 1 .28-.72c.18-.2.45-.3.78-.3s.6.1.78.3c.2.2.28.43.28.72s-.1.52-.28.7c-.18.2-.45.3-.78.3s-.6-.1-.78-.3a.92.92 0 0 1-.28-.7zm2 10.57h-1.9v-8.4h1.9v8.4zm5.5-1.35c.47 0 .86-.14 1.17-.4s.47-.6.5-1.02h1.77a2.79 2.79 0 0 1-.48 1.46c-.3.46-.73.8-1.24 1.08-.52.26-1.1.4-1.7.4-1.17 0-2.1-.4-2.8-1.14-.7-.76-1.03-1.8-1.03-3.15v-.2c0-1.27.34-2.3 1.02-3.06.7-.77 1.62-1.15 2.8-1.15 1 0 1.8.3 2.44.87s.96 1.35 1 2.3h-1.77c-.02-.47-.18-.87-.5-1.18a1.59 1.59 0 0 0-1.17-.47c-.6 0-1.1.22-1.4.66-.33.45-.5 1.1-.5 2.02v.3c0 .9.16 1.6.5 2.04.32.42.8.65 1.42.65zm15.3-1.28h-4.37l-.9 2.64h-2.04l4.26-11.3h1.76l4.27 11.3h-2.04l-.93-2.64zm-3.82-1.58h3.28l-1.64-4.68-1.64 4.68zm12.88 3.4c-.55.65-1.34.98-2.35.98-.9 0-1.6-.27-2.07-.8s-.7-1.3-.7-2.3v-5.44h1.88v5.4c0 1.07.45 1.6 1.33 1.6.92 0 1.53-.33 1.85-.98v-6.03h1.9v8.4h-1.77l-.06-.82zm6.1-9.6v2.04h1.48v1.4h-1.48v4.68c0 .32.07.55.2.7s.35.2.68.2a3.05 3.05 0 0 0 .66-.08v1.45a4.23 4.23 0 0 1-1.24.18c-1.44 0-2.17-.8-2.17-2.4v-4.75h-1.4v-1.4h1.4v-2.04h1.88zm4.78 2.93c.62-.7 1.4-1.07 2.34-1.07 1.78 0 2.7 1.02 2.72 3.06v5.48h-1.9v-5.4c0-.57-.13-1-.37-1.23-.25-.23-.62-.36-1.1-.36-.76 0-1.32.34-1.7 1v6h-1.88V10.7h1.88v4.43zm13.16 7.47h-1.95V11.3h1.95v11.3zm3.98-8.38l.06.97c.62-.75 1.43-1.12 2.44-1.12 1.74 0 2.64 1 2.66 3v5.54h-1.9v-5.44c0-.53-.12-.93-.34-1.18-.23-.26-.6-.4-1.13-.4-.76 0-1.32.35-1.7 1.04v5.97h-1.88v-8.4h1.78zm7.75 8.38v-7h-1.28v-1.4h1.28v-.77c0-.93.26-1.65.78-2.16.5-.5 1.24-.76 2.17-.76.33 0 .68.05 1.06.14l-.05 1.47a3.8 3.8 0 0 0-.72-.06c-.9 0-1.36.47-1.36 1.4v.75h1.7v1.4h-1.7v7h-1.88zm4.6-4.26c0-.82.16-1.56.5-2.22.32-.66.78-1.17 1.37-1.52.6-.36 1.27-.53 2.04-.53 1.13 0 2.04.37 2.75 1.1s1.1 1.7 1.14 2.9l.01.45c0 .82-.16 1.56-.47 2.2a3.47 3.47 0 0 1-1.37 1.51c-.6.36-1.28.54-2.05.54-1.18 0-2.13-.4-2.84-1.18-.7-.8-1.07-1.84-1.07-3.16v-.1zm1.9.16c0 .86.17 1.53.53 2.03a1.75 1.75 0 0 0 1.48.73c.64 0 1.13-.24 1.5-.74.35-.5.52-1.22.52-2.18 0-.85-.17-1.52-.54-2.02a1.77 1.77 0 0 0-1.48-.75c-.62 0-1.1.24-1.46.74-.37.5-.54 1.2-.54 2.2zM135.66 69.9c-.38.55-.9.96-1.6 1.23s-1.48.4-2.4.4-1.73-.2-2.45-.65c-.7-.43-1.26-1.05-1.65-1.84-.4-.8-.6-1.72-.6-2.76v-1c0-1.7.4-3 1.18-3.95.8-.93 1.9-1.4 3.35-1.4 1.17 0 2.12.3 2.84.9s1.16 1.45 1.32 2.56h-1.48c-.28-1.5-1.17-2.25-2.67-2.25-1 0-1.75.35-2.27 1.05-.5.7-.77 1.72-.78 3.05v.92c0 1.27.3 2.28.87 3.02.57.75 1.36 1.12 2.35 1.12.56 0 1.05-.07 1.46-.2.42-.12.77-.33 1.04-.62v-2.53h-2.6v-1.22h4.1v4.14z"/><use xlink:href="#B"/><path d="M154.04 60.97V63h1.56v1.1h-1.56v5.2c0 .34.07.6.2.77.15.16.38.25.72.25.16 0 .4-.04.68-.1v1.15c-.38.1-.74.16-1.1.16-.64 0-1.12-.2-1.45-.58-.32-.4-.48-.94-.48-1.65v-5.2h-1.53V63h1.53v-2.04h1.43z"/><use xlink:href="#B" x="19.21"/><path d="M179.47 60.1v7.68c0 1.07-.34 1.94-1 2.62-.67.68-1.57 1.06-2.7 1.14l-.4.01c-1.24 0-2.22-.33-2.96-1s-1.1-1.6-1.1-2.75v-7.7h1.47v7.65c0 .8.22 1.45.68 1.9.45.45 1.1.68 1.92.68.84 0 1.48-.23 1.94-.68.45-.45.67-1.1.67-1.9V60.1h1.5zm6.9 6.72h-2.66v4.56h-1.5V60.1h3.73c1.27 0 2.25.3 2.94.87s1.03 1.42 1.03 2.53c0 .7-.2 1.3-.57 1.83s-.9.9-1.58 1.17l2.65 4.8v.1h-1.6l-2.45-4.57zm-2.66-1.22h2.3c.74 0 1.33-.18 1.76-.57.44-.38.66-.9.66-1.54 0-.7-.2-1.23-.63-1.6-.42-.37-1.02-.56-1.8-.56h-2.28v4.28zm10.2 4.57h5.35v1.2h-6.85V60.1h1.5v10.07z"/><path d="M133.7 93.96h-4.9v4h5.68v1.2h-7.17V87.9h7.1v1.2h-5.6v3.63h4.9v1.23zm4.18-3.16l.05 1.06a3.03 3.03 0 0 1 2.51-1.21c1.77 0 2.66 1 2.68 3v5.54h-1.43v-5.54c-.01-.6-.15-1.06-.42-1.35s-.7-.44-1.27-.44c-.47 0-.87.13-1.22.38a2.39 2.39 0 0 0-.82.98v5.97h-1.43v-8.4h1.35zm9.75-2.05v2.04h1.56v1.1h-1.56v5.2c0 .33.07.58.2.76.15.16.38.25.72.25a2.99 2.99 0 0 0 .68-.1v1.15a4.24 4.24 0 0 1-1.1.16c-.64 0-1.12-.2-1.45-.58-.32-.4-.48-.93-.48-1.65v-5.2h-1.53v-1.1h1.53v-2.04h1.43zm7.1 10.57c-1.13 0-2.05-.37-2.77-1.1-.72-.75-1.07-1.74-1.07-3v-.27c0-.83.16-1.57.47-2.23.32-.65.76-1.16 1.33-1.53a3.37 3.37 0 0 1 1.86-.55c1.1 0 1.94.36 2.54 1.08s.9 1.74.9 3.08v.6h-5.68c.02.82.26 1.5.72 2 .47.5 1.06.77 1.76.77.5 0 .94-.1 1.3-.3a3.11 3.11 0 0 0 .92-.82l.88.68c-.7 1.06-1.76 1.6-3.16 1.6zm-.18-7.52c-.58 0-1.07.2-1.45.64-.4.42-.64 1-.74 1.76h4.2v-.1c-.04-.73-.24-1.3-.6-1.7-.35-.4-.83-.6-1.43-.6zm9.57.28c-.22-.04-.46-.06-.7-.06-.94 0-1.58.4-1.92 1.2v5.95h-1.43V90.8h1.4l.03.97c.47-.76 1.13-1.12 2-1.12.28 0 .5.03.64.1v1.33zm6.27 7.1V87.9h3.7c1.23 0 2.15.25 2.76.76.62.5.93 1.26.93 2.25 0 .52-.16 1-.45 1.4-.3.4-.72.73-1.23.95.6.16 1.1.5 1.44.97.36.47.53 1.05.53 1.7 0 1.02-.33 1.8-.98 2.4-.66.57-1.6.86-2.8.86h-3.9zm1.5-6.47h2.25c.65 0 1.17-.16 1.56-.48.4-.33.6-.78.6-1.33 0-.62-.18-1.08-.54-1.36-.37-.28-.92-.43-1.66-.43h-2.2v3.6zm0 1.2v4.06h2.46c.7 0 1.23-.18 1.64-.54.4-.36.6-.85.6-1.48 0-1.36-.75-2.04-2.22-2.04h-2.48zm13.72 5.27c-.08-.16-.15-.46-.2-.88a3.18 3.18 0 0 1-2.4 1.04c-.82 0-1.5-.23-2.04-.7-.52-.47-.8-1.07-.8-1.78 0-.87.34-1.55 1-2.04.67-.48 1.6-.72 2.8-.72h1.4v-.66c0-.5-.15-.9-.45-1.2s-.75-.45-1.33-.45c-.5 0-.94.13-1.3.4-.34.26-.5.57-.5.94h-1.44c0-.42.15-.82.45-1.2.3-.4.7-.7 1.2-.93s1.07-.34 1.68-.34c.97 0 1.72.24 2.27.73.55.47.83 1.14.85 2v3.86c0 .77.1 1.4.3 1.84v.12h-1.53zm-2.37-1.1c.45 0 .87-.12 1.28-.35.4-.23.7-.54.87-.9V95.1h-1.12c-1.75 0-2.64.5-2.64 1.55 0 .45.16.8.46 1.05s.67.38 1.15.38zm11.1-1.12c0-.4-.15-.7-.44-.9-.3-.22-.8-.4-1.53-.56s-1.3-.34-1.72-.55c-.43-.22-.75-.47-.95-.78s-.3-.66-.3-1.08c0-.7.3-1.27.87-1.74s1.32-.7 2.23-.7c.95 0 1.72.24 2.32.74.6.48.88 1.1.88 1.88h-1.44c0-.4-.16-.73-.5-1.02-.34-.28-.76-.43-1.26-.43-.52 0-.93.12-1.23.35-.3.22-.44.52-.44.9 0 .34.14.6.4.78.27.17.78.35 1.48.5.72.16 1.3.36 1.74.58.45.2.78.48 1 .8.2.32.32.7.32 1.14a2.11 2.11 0 0 1-.9 1.8c-.6.46-1.38.68-2.33.68-.68 0-1.27-.12-1.78-.35-.52-.24-.92-.57-1.22-1s-.44-.9-.44-1.4h1.43c.03.48.22.86.58 1.14s.83.43 1.42.43c.54 0 .98-.12 1.3-.33a.94.94 0 0 0 .5-.86zm3.72-8.4a.87.87 0 0 1 .21-.59c.14-.16.35-.23.63-.23s.5.08.64.23a.87.87 0 0 1 .21.59c0 .23-.08.43-.2.58-.15.16-.36.23-.64.23s-.5-.08-.63-.23c-.15-.16-.2-.35-.2-.58zm1.55 10.6h-1.43V90.8h1.43v8.38zm6.05-1c.5 0 .96-.16 1.34-.47.4-.3.6-.7.64-1.16h1.36c-.03.47-.2.93-.5 1.37a3.34 3.34 0 0 1-1.22 1.04 3.55 3.55 0 0 1-1.62.39c-1.14 0-2.05-.38-2.72-1.14-.68-.76-1.02-1.8-1.02-3.12v-.24c0-.82.16-1.54.46-2.18s.73-1.13 1.3-1.48 1.22-.52 2-.52c.94 0 1.72.28 2.35.84s.96 1.3 1 2.2h-1.36c-.04-.54-.25-1-.62-1.34s-.82-.52-1.37-.52c-.73 0-1.3.26-1.7.8-.4.52-.6 1.28-.6 2.27v.27c0 .97.2 1.72.6 2.24s.96.77 1.7.77zm16.12-1.94h-4.73L216 99.17h-1.53l4.3-11.28h1.3l4.32 11.28h-1.53l-1.07-2.95zM217.5 95h3.84l-1.92-5.28L217.5 95zm13.7 3.35c-.56.65-1.38.98-2.46.98-.9 0-1.57-.25-2.04-.78-.47-.52-.7-1.3-.72-2.3V90.8h1.43v5.42c0 1.27.52 1.9 1.55 1.9 1.1 0 1.83-.4 2.2-1.23v-6.1h1.43v8.38h-1.37v-.8zm5.92-9.6v2.04h1.56v1.1h-1.56v5.2c0 .33.07.58.2.76.15.16.38.25.72.25a2.99 2.99 0 0 0 .68-.1v1.15c-.38.1-.75.16-1.1.16-.64 0-1.12-.2-1.45-.58s-.48-.93-.48-1.65v-5.2h-1.53v-1.1h1.53v-2.04h1.43zm5.08 3.05a3.05 3.05 0 0 1 2.48-1.17c1.77 0 2.66 1 2.68 3v5.54h-1.43v-5.54c-.01-.6-.15-1.06-.42-1.35s-.7-.44-1.27-.44c-.47 0-.87.13-1.22.38-.36.24-.63.57-.82.98v5.97h-1.43v-11.9h1.43v4.54zm13.85 7.37h-1.5V87.9h1.5v11.28zm4.25-8.37l.05 1.06c.64-.8 1.48-1.2 2.5-1.2 1.77 0 2.67 1 2.68 3v5.54h-1.43v-5.54c0-.6-.15-1.06-.42-1.35s-.7-.44-1.26-.44c-.47 0-.88.13-1.23.38-.35.24-.62.57-.82.98v5.97h-1.43v-8.4h1.35zm8.5 8.37V91.9h-1.33v-1.1h1.33v-.86c0-.9.24-1.6.73-2.08.47-.5 1.15-.74 2.04-.74a3.74 3.74 0 0 1 .99.13l-.08 1.16a3.89 3.89 0 0 0-.78-.08c-.47 0-.83.14-1.1.4-.25.28-.38.67-.38 1.17v.9h1.8v1.1h-1.8v7.28h-1.43zm4.82-4.27c0-.82.16-1.57.48-2.22.32-.66.78-1.16 1.35-1.52.58-.36 1.23-.53 1.98-.53 1.14 0 2.06.4 2.77 1.18.7.8 1.06 1.84 1.06 3.16v.1c0 .8-.16 1.55-.47 2.2s-.76 1.15-1.34 1.5c-.58.37-1.25.54-2 .54-1.13 0-2.05-.4-2.76-1.18s-1.06-1.84-1.06-3.14v-.1zm1.45.16c0 .93.2 1.68.64 2.24s1.02.85 1.73.85c.73 0 1.3-.3 1.73-.86.44-.57.65-1.37.65-2.4 0-.92-.22-1.67-.66-2.24a2.09 2.09 0 0 0-1.73-.86 2.06 2.06 0 0 0-1.72.85c-.43.56-.64 1.36-.64 2.4z" fill="#fff"/><path d="M135.63 123.38c-.14 1.2-.58 2.1-1.32 2.76-.75.65-1.73.98-2.97.98-1.33 0-2.4-.48-3.2-1.43-.8-.96-1.2-2.24-1.2-3.84v-1.1c0-1.06.2-1.98.56-2.77.38-.8.9-1.4 1.6-1.83s1.48-.64 2.38-.64c1.2 0 2.16.33 2.9 1 .72.67 1.14 1.6 1.26 2.78h-1.5c-.14-.9-.42-1.55-.84-1.96-.44-.4-1.04-.6-1.8-.6-.95 0-1.7.36-2.24 1.06s-.8 1.7-.8 3v1.1c0 1.22.25 2.2.77 2.93s1.22 1.1 2.14 1.1c.83 0 1.46-.18 1.9-.56s.74-1.03.88-1.96h1.5zm3.77 3.58h-1.43v-11.9h1.43v11.9zm2.7-10.62c0-.23.07-.43.2-.58.14-.16.35-.24.63-.24s.5.08.63.24c.15.16.22.35.22.58s-.08.43-.22.58c-.14.16-.35.23-.63.23s-.5-.08-.63-.23-.2-.35-.2-.58zm1.55 10.62h-1.43v-8.4h1.43v8.4zm6.05-1.02c.5 0 .96-.16 1.34-.47s.6-.7.64-1.16h1.36a2.61 2.61 0 0 1-.5 1.37c-.3.44-.7.78-1.22 1.05-.5.25-1.05.4-1.6.4-1.14 0-2.05-.4-2.73-1.14-.67-.77-1-1.8-1-3.13v-.24c0-.8.15-1.54.45-2.18a3.53 3.53 0 0 1 1.3-1.48c.55-.35 1.22-.52 2-.52.94 0 1.72.28 2.35.84s.95 1.3 1 2.2h-1.36c-.05-.54-.25-1-.62-1.34s-.82-.52-1.37-.52c-.73 0-1.3.26-1.7.78s-.6 1.28-.6 2.28v.27c0 .96.2 1.7.6 2.23s.94.77 1.7.77zm7.68-2.86l-.9.94v2.95h-1.43v-11.9h1.43v7.2l.77-.92 2.62-2.76h1.74l-3.27 3.5 3.64 4.88h-1.7l-2.9-3.9zm17.04-1.34h-4.9v4h5.68v1.22h-7.17v-11.3h7.1v1.2h-5.6v3.64h4.9v1.22zm4.38 5.22h-1.43v-11.9h1.43v11.9zm6.16.16c-1.14 0-2.06-.38-2.78-1.12-.7-.75-1.07-1.74-1.07-3v-.26c0-.83.16-1.58.47-2.23.32-.66.77-1.17 1.34-1.54a3.36 3.36 0 0 1 1.85-.55c1.1 0 1.94.36 2.55 1.08.6.72.9 1.74.9 3.1v.6h-5.68c.02.82.26 1.5.73 2a2.32 2.32 0 0 0 1.76.77c.5 0 .93-.1 1.3-.3a3.11 3.11 0 0 0 .92-.82l.87.68c-.7 1.05-1.74 1.6-3.15 1.6zm-.18-7.52c-.57 0-1.06.2-1.45.63-.4.42-.64 1-.73 1.77h4.2v-.12c-.04-.73-.23-1.3-.58-1.7-.36-.4-.84-.6-1.44-.6zm6.86-1.03l.04.93c.6-.73 1.44-1.1 2.5-1.1 1.17 0 1.97.45 2.4 1.35a3.22 3.22 0 0 1 1.09-.98c.45-.24.98-.37 1.6-.37 1.84 0 2.77.97 2.8 2.93v5.62h-1.43v-5.54c0-.6-.14-1.05-.4-1.34-.27-.3-.74-.45-1.38-.45-.53 0-.98.16-1.33.47-.36.32-.56.75-.6 1.28v5.57h-1.44v-5.5c0-1.22-.6-1.82-1.8-1.82-.94 0-1.6.4-1.93 1.2v6.12h-1.43v-8.4h1.35zm16.46 8.55c-1.14 0-2.06-.38-2.78-1.12-.7-.75-1.07-1.74-1.07-3v-.26c0-.83.16-1.58.47-2.23.32-.66.77-1.17 1.34-1.54a3.36 3.36 0 0 1 1.85-.55c1.1 0 1.94.36 2.55 1.08.6.72.9 1.74.9 3.1v.6h-5.68c.02.82.26 1.5.73 2a2.32 2.32 0 0 0 1.76.77c.5 0 .93-.1 1.3-.3a3.11 3.11 0 0 0 .92-.82l.87.68c-.7 1.05-1.75 1.6-3.15 1.6zm-.2-7.52c-.57 0-1.06.2-1.45.63-.4.42-.64 1-.73 1.77h4.2v-.12c-.04-.73-.23-1.3-.58-1.7-.36-.4-.84-.6-1.44-.6zm6.87-1.03l.04 1.06c.64-.8 1.48-1.2 2.52-1.2 1.76 0 2.66 1 2.67 3v5.54h-1.43v-5.55c0-.6-.14-1.06-.4-1.35s-.7-.43-1.27-.43c-.47 0-.87.12-1.23.37-.35.25-.62.57-.8.98v5.98h-1.43v-8.4h1.35zm9.73-2.03v2.04h1.57v1.1h-1.57v5.2c0 .33.07.58.2.76.14.16.38.25.7.25.17 0 .4-.03.7-.1v1.16c-.38.1-.75.16-1.1.16-.64 0-1.12-.2-1.44-.58-.33-.4-.5-.94-.5-1.66v-5.2h-1.52v-1.1h1.52v-2.04h1.42z"/><use xlink:href="#C"/><path d="M139.72 152.64l1.95-6.3h1.54l-3.37 9.68c-.52 1.4-1.36 2.1-2.5 2.1l-.27-.02-.53-.1v-1.16l.4.03c.48 0 .86-.1 1.13-.3s.5-.55.67-1.08l.32-.85-3-8.3h1.57l2.08 6.3zm12.25-2c0 1.27-.3 2.3-.88 3.08s-1.37 1.17-2.36 1.17c-1.02 0-1.82-.33-2.4-.97v4.04h-1.43v-11.62h1.3l.07.93c.58-.73 1.4-1.1 2.43-1.1 1 0 1.8.38 2.4 1.14s.88 1.8.88 3.17v.15zm-1.44-.17c0-.95-.2-1.7-.6-2.24-.4-.55-.95-.82-1.66-.82a2.1 2.1 0 0 0-1.95 1.15v4c.43.76 1.1 1.14 1.97 1.14a1.95 1.95 0 0 0 1.64-.8c.4-.55.6-1.35.6-2.43zm7.13 4.42c-1.13 0-2.06-.38-2.77-1.12-.72-.75-1.08-1.74-1.08-3v-.26c0-.83.16-1.58.48-2.23.3-.66.76-1.17 1.33-1.54a3.37 3.37 0 0 1 1.86-.55c1.1 0 1.94.36 2.54 1.08s.9 1.75.9 3.1v.6h-5.7c.02.83.26 1.5.73 2a2.3 2.3 0 0 0 1.76.77c.5 0 .94-.1 1.3-.3a3.11 3.11 0 0 0 .92-.82l.88.7c-.7 1.05-1.75 1.6-3.16 1.6zm-.17-7.52a1.88 1.88 0 0 0-1.46.63c-.4.42-.63 1-.73 1.77h4.2v-.1c-.05-.74-.24-1.3-.6-1.7s-.83-.6-1.43-.6zm11.77-3.05v2.03h1.57v1.1h-1.57v5.2c0 .34.07.6.2.76.14.16.38.25.7.25.16 0 .4-.03.7-.1v1.15c-.38.1-.75.16-1.1.16-.64 0-1.12-.2-1.44-.58-.33-.4-.5-.94-.5-1.66v-5.2h-1.52v-1.1h1.52v-2.03h1.42zm3.1 6.14c0-.82.16-1.56.48-2.22.33-.66.78-1.16 1.36-1.52.57-.35 1.23-.53 1.97-.53 1.14 0 2.06.4 2.77 1.2.7.78 1.06 1.84 1.06 3.15v.1c0 .8-.16 1.54-.47 2.2a3.6 3.6 0 0 1-1.34 1.52c-.58.36-1.25.54-2 .54-1.14 0-2.06-.4-2.76-1.2-.7-.78-1.07-1.83-1.07-3.14v-.1zm1.44.18c0 .93.2 1.68.65 2.24.43.56 1 .84 1.73.84s1.3-.3 1.73-.85c.43-.57.64-1.38.64-2.4 0-.92-.2-1.67-.65-2.24s-1.02-.85-1.74-.85a2.08 2.08 0 0 0-1.72.84c-.42.56-.64 1.36-.64 2.42zm14.54 4.1h-1.48v-11.3h1.48v11.3zm4.25-8.4l.05 1.06a3.06 3.06 0 0 1 2.51-1.21c1.77 0 2.66 1 2.68 3v5.54h-1.43v-5.55c-.01-.6-.15-1.06-.42-1.34-.27-.3-.7-.44-1.27-.44-.47 0-.87.13-1.22.37a2.38 2.38 0 0 0-.82.98v5.98h-1.43v-8.4h1.35zm14.88 4.3c0 1.27-.3 2.3-.87 3.08a2.83 2.83 0 0 1-2.37 1.17c-1.02 0-1.82-.33-2.4-.97v4.04h-1.43v-11.62h1.3l.07.93c.6-.73 1.4-1.1 2.44-1.1 1 0 1.8.38 2.38 1.14.6.76.88 1.8.88 3.17v.15zm-1.43-.17c0-.95-.2-1.7-.6-2.24-.4-.55-.96-.82-1.66-.82-.87 0-1.52.38-1.96 1.15v4c.43.76 1.1 1.14 1.97 1.14a1.95 1.95 0 0 0 1.64-.8c.4-.55.6-1.35.6-2.43zm8.85 3.42c-.56.66-1.4 1-2.46 1-.9 0-1.58-.26-2.04-.78-.47-.5-.7-1.3-.7-2.3v-5.46h1.43v5.42c0 1.28.5 1.9 1.55 1.9 1.1 0 1.82-.4 2.2-1.22v-6.1h1.43v8.4h-1.37v-.83zm5.9-9.57v2.03h1.57v1.1h-1.57v5.2c0 .34.07.6.2.76.14.16.38.25.7.25.16 0 .4-.03.7-.1v1.15c-.38.1-.75.16-1.1.16-.64 0-1.12-.2-1.45-.58-.32-.4-.48-.94-.48-1.66v-5.2h-1.53v-1.1h1.53v-2.03h1.42z"/><use xlink:href="#C" y="27.78"/><path d="M139.72 180.43l1.95-6.3h1.54l-3.37 9.7c-.52 1.4-1.36 2.1-2.5 2.1l-.27-.03-.53-.1v-1.16l.4.03c.48 0 .86-.1 1.13-.3s.5-.56.67-1.1l.32-.85-3-8.3h1.57l2.08 6.3zm12.25-2c0 1.27-.3 2.3-.88 3.08s-1.37 1.17-2.36 1.17c-1.02 0-1.82-.32-2.4-.97v4.04h-1.43v-11.62h1.3l.07.93c.58-.72 1.4-1.1 2.43-1.1 1 0 1.8.4 2.4 1.14.6.76.88 1.8.88 3.17v.15zm-1.44-.16c0-.95-.2-1.7-.6-2.24-.4-.55-.95-.82-1.66-.82-.86 0-1.52.4-1.95 1.15v4c.43.77 1.1 1.14 1.97 1.14a1.95 1.95 0 0 0 1.64-.8c.4-.55.6-1.36.6-2.43zm7.13 4.4c-1.13 0-2.06-.38-2.77-1.12-.72-.75-1.08-1.74-1.08-3v-.26c0-.83.16-1.58.48-2.23a3.55 3.55 0 0 1 1.33-1.53 3.3 3.3 0 0 1 1.86-.56c1.1 0 1.94.36 2.54 1.1.6.72.9 1.74.9 3.08v.6h-5.7c.02.82.26 1.5.73 2a2.3 2.3 0 0 0 1.76.77c.5 0 .94-.1 1.3-.3a2.87 2.87 0 0 0 .92-.82l.88.7c-.7 1.05-1.75 1.6-3.16 1.6zm-.17-7.52a1.88 1.88 0 0 0-1.46.63c-.4.43-.63 1.02-.73 1.77h4.2v-.1c-.05-.73-.24-1.3-.6-1.7-.35-.38-.83-.6-1.43-.6zm11.77-3.06v2.03h1.57v1.1h-1.57v5.2c0 .34.07.6.2.76s.38.25.7.25c.16 0 .4-.03.7-.1v1.15c-.38.1-.75.16-1.1.16-.64 0-1.12-.2-1.44-.58-.33-.4-.5-.94-.5-1.65v-5.2h-1.52v-1.1h1.52v-2.03h1.42zm3.1 6.16c0-.82.16-1.56.48-2.22.33-.65.78-1.16 1.36-1.5.57-.36 1.23-.54 1.97-.54 1.14 0 2.06.4 2.77 1.2.7.78 1.06 1.84 1.06 3.15v.1c0 .8-.16 1.55-.47 2.2a3.43 3.43 0 0 1-1.34 1.5c-.58.35-1.25.54-2 .54-1.14 0-2.06-.4-2.76-1.18-.7-.8-1.07-1.84-1.07-3.14v-.1zm1.44.17c0 .93.2 1.68.65 2.24.43.56 1 .84 1.73.84a2.04 2.04 0 0 0 1.73-.85c.43-.57.64-1.38.64-2.4 0-.92-.2-1.67-.65-2.24s-1.02-.85-1.74-.85a2.08 2.08 0 0 0-1.72.84c-.42.56-.64 1.36-.64 2.42zm14.43-.33v4.42h-1.48v-11.3h4.16c1.24 0 2.2.32 2.9.95s1.05 1.46 1.05 2.5c0 1.1-.34 1.94-1.03 2.53-.68.6-1.67.9-2.94.9h-2.67zm0-1.22h2.67c.8 0 1.4-.18 1.83-.56.43-.37.64-.9.64-1.63 0-.67-.2-1.2-.64-1.6-.43-.4-1-.62-1.74-.63h-2.76v4.43zm13.8 5.65c-.1-.16-.16-.47-.2-.88a3.18 3.18 0 0 1-2.4 1.04c-.82 0-1.5-.23-2.04-.7-.52-.47-.8-1.07-.8-1.78 0-.87.34-1.55 1-2.04.67-.48 1.6-.73 2.8-.73h1.4v-.66c0-.5-.15-.9-.45-1.2s-.75-.45-1.33-.45c-.5 0-.94.13-1.3.4-.34.25-.5.56-.5.93h-1.44c0-.42.15-.82.45-1.2a2.98 2.98 0 0 1 1.21-.92c.5-.23 1.07-.35 1.68-.35.97 0 1.72.24 2.27.73.55.48.83 1.15.85 2v3.87c0 .77.1 1.38.3 1.83v.13h-1.52zm-2.4-1.1c.45 0 .87-.12 1.28-.35s.7-.53.87-.9v-1.72h-1.12c-1.75 0-2.64.5-2.64 1.54 0 .46.16.8.46 1.06s.68.37 1.15.37zm11.13-1.13c0-.4-.15-.7-.44-.9s-.8-.4-1.52-.55c-.73-.16-1.3-.34-1.73-.56-.43-.2-.74-.47-.94-.78a1.89 1.89 0 0 1-.3-1.07c0-.7.3-1.27.87-1.74s1.33-.72 2.23-.72c.95 0 1.72.25 2.32.74a2.34 2.34 0 0 1 .88 1.89h-1.43c0-.4-.17-.74-.5-1.02s-.76-.43-1.26-.43c-.52 0-.93.12-1.22.34-.3.23-.45.52-.45.9a.86.86 0 0 0 .41.78c.28.17.78.34 1.5.5s1.3.35 1.73.57.78.5 1 .8.32.7.32 1.14a2.15 2.15 0 0 1-.89 1.8c-.6.46-1.4.68-2.34.68-.68 0-1.27-.12-1.78-.36-.52-.23-.92-.57-1.2-1-.3-.43-.45-.88-.45-1.38H207a1.52 1.52 0 0 0 .58 1.14c.36.28.83.42 1.42.42.54 0 .98-.1 1.3-.33.33-.2.5-.48.5-.85zm8.6 0c0-.4-.15-.7-.44-.9s-.8-.4-1.53-.55c-.73-.16-1.3-.34-1.72-.56-.43-.2-.75-.47-.95-.78a1.89 1.89 0 0 1-.3-1.07c0-.7.3-1.27.87-1.74s1.32-.72 2.23-.72c.95 0 1.72.25 2.32.74a2.34 2.34 0 0 1 .88 1.89h-1.44c0-.4-.16-.74-.5-1.02s-.76-.43-1.26-.43c-.52 0-.93.12-1.23.34a1.08 1.08 0 0 0-.44.89.86.86 0 0 0 .41.78c.27.17.77.34 1.48.5.72.16 1.3.35 1.74.57.45.22.78.5 1 .8s.32.7.32 1.14c0 .75-.3 1.35-.9 1.8-.6.46-1.38.68-2.33.68-.68 0-1.27-.12-1.78-.36-.52-.23-.93-.57-1.22-1s-.44-.88-.44-1.38h1.43a1.52 1.52 0 0 0 .58 1.14c.36.28.83.42 1.42.42.54 0 .97-.1 1.3-.33s.5-.48.5-.85zm11.12.25l1.62-6.42h1.43l-2.44 8.4h-1.16l-2.04-6.36-2 6.36h-1.16l-2.43-8.4h1.42l1.66 6.28 1.95-6.28h1.16l1.98 6.42zm4.52-2.3c0-.82.16-1.56.48-2.22a3.61 3.61 0 0 1 1.35-1.51c.57-.36 1.23-.54 1.98-.54 1.13 0 2.06.4 2.77 1.2.7.78 1.06 1.84 1.06 3.15v.1c0 .8-.16 1.55-.47 2.2a3.43 3.43 0 0 1-1.34 1.5c-.58.35-1.25.54-2 .54-1.13 0-2.05-.4-2.76-1.18-.7-.8-1.06-1.84-1.06-3.14v-.1zm1.44.17c0 .93.2 1.68.64 2.24s1.02.84 1.73.84a2.04 2.04 0 0 0 1.73-.85c.44-.57.65-1.38.65-2.4 0-.92-.22-1.67-.66-2.24a2.08 2.08 0 0 0-1.73-.85 2.08 2.08 0 0 0-1.72.84c-.43.56-.64 1.36-.64 2.42zm12.46-3a3.98 3.98 0 0 0-.7-.05c-.94 0-1.58.4-1.92 1.2v5.95h-1.43v-8.4h1.4l.03.97c.47-.75 1.13-1.12 2-1.12.28 0 .5.04.64.12v1.32zm1.36 2.84c0-1.3.3-2.33.9-3.1a2.88 2.88 0 0 1 2.4-1.18c1 0 1.76.34 2.34 1v-4.37h1.43v11.9H256l-.07-.9c-.57.7-1.38 1.06-2.4 1.06-.97 0-1.76-.4-2.37-1.2-.62-.8-.92-1.84-.92-3.12v-.12zm1.43.16c0 .95.2 1.7.6 2.23.4.54.93.8 1.63.8.9 0 1.57-.4 2-1.22v-3.86c-.43-.78-1.1-1.18-1.98-1.18-.7 0-1.25.27-1.64.8-.4.55-.6 1.35-.6 2.42z"/><defs><path id="A" d="M417.17 324.67a5.01 5.01 0 0 0-1.42-.4 4.19 4.19 0 0 0-.37-.04h-.02c.1-.5.15-1 .16-1.5l-.01-.38-.06-1.24-.06-.78c-.01-.05-.01-.1-.01-.13l.18.5 1.72 4.05c-.02-.01-.03-.02-.05-.03s-.04-.03-.06-.03z"/><path id="B" d="M137.93 67.1c0-.8.16-1.56.48-2.2.32-.66.77-1.16 1.35-1.52.57-.36 1.23-.53 1.98-.53 1.13 0 2.06.4 2.77 1.18.7.8 1.06 1.84 1.06 3.16v.1c0 .8-.16 1.55-.47 2.2s-.76 1.15-1.34 1.5-1.25.54-2 .54c-1.13 0-2.05-.4-2.76-1.18-.7-.8-1.06-1.84-1.06-3.14v-.1zm1.45.18c0 .93.2 1.68.64 2.24.44.56 1 .84 1.73.84s1.3-.28 1.73-.85c.44-.57.65-1.38.65-2.4 0-.92-.22-1.67-.66-2.23a2.09 2.09 0 0 0-1.73-.86 2.08 2.08 0 0 0-1.72.84c-.43.56-.64 1.37-.64 2.42z"/><path id="C" d="M135.12 144.68h-3.62v10.07h-1.48v-10.07h-3.62v-1.22h8.73v1.22z"/><path id="D" d="M389.37 318.45a2.25 2.25 0 0 1 .09-.35c.56-1.8 2.5-2.75 4.34-3.22 1.82-.47 3.8-.7 5.27-1.88l.2-.17c.64-.52 1.36-1.12 2.08-.8.2.1.4.25.55.4 1.82 1.67 4.53 3.04 7.05 3.04 1.6 0 4.57-2.53 5.8-.74.22.38.33.82.32 1.25l.4 5.2c.1 1.53.2 3.18-.62 4.48-.9 1.46-2.72 2.08-4.4 2.4-1.4.34-2.88.32-4.28-.07-1.5-.5-2.7-1.66-4.13-2.36-1.65-.8-3.52-1-5.34-1.22s-3.7-.56-5.2-1.6c-1.42-.96-2.43-2.72-2.1-4.37z"/><path id="E" d="M389.37 318.45a7.14 7.14 0 0 1 .93.71c3.05 2.6 7.72 1.73 11.42 3.26.87.36 1.7.85 2.58 1.15 1.46.48 3.04.4 4.58.32 1.1-.06 2.43-.3 2.8-1.32.4-1.06-.63-2.18-1.72-2.47s-2.25-.07-3.38-.15c-2.28-.26-4.32-1.54-5.56-3.47a15.09 15.09 0 0 1-1.77-3.66c.64-.52 1.36-1.12 2.08-.8.2.1.4.25.55.4 1.82 1.67 4.53 3.04 7.05 3.04 1.6 0 4.57-2.53 5.8-.74.22.38.33.82.32 1.25l.4 5.2c.1 1.53.2 3.18-.62 4.48-1.03 1.53-2.6 2.6-4.4 2.98-1.4.34-2.88.32-4.28-.07-1.5-.5-2.7-1.66-4.13-2.36-1.65-.8-3.52-1-5.34-1.22s-3.7-.56-5.2-1.6c-1.4-.96-2.88-3.28-2.08-4.95z"/><path id="F" d="M401.95 203.77c-1.92-.2-3.9-.33-5.74.27-3.7 1.2-5.9 5.14-6.55 8.98-.64 3.85-.08 7.78-.15 11.68-.08 4-.76 8.36 1.38 11.75.85 1.34 2.1 2.47 2.53 4a3.64 3.64 0 0 0 .56 1.52c.38.3.8.6 1.22.83a3.44 3.44 0 0 1 .86 1.3 128.4 128.4 0 0 1 9.42 28.98c.97 4.83.2 9.84-.95 14.64s-2.65 9.53-3.18 14.43c-.2 1.95-.27 3.97-1.05 5.77-.4.92-.98 1.8-1.06 2.8-.16 2.1 1.9 3.65 3.8 4.53 2.72 1.26 5.8 2.07 8.7 1.38.68-.13 1.3-.43 1.84-.87.7-.65.98-1.63 1.23-2.56 1.98-7.5 2.1-15.7 4.43-23.08 2.56-8.16 1.5-16.98.1-25.4a2.97 2.97 0 0 1 .01-1.51c.22-.42.5-.8.83-1.15 1.38-1.77.82-4.3.66-6.54-.23-3.22.54-6.4 1.3-9.55l2.8-11.62c.23-1.1.56-2.18 1-3.22.65-1.46 1.67-2.72 2.53-4.06a22.75 22.75 0 0 0 3.12-16.77c-9.55-3.65-19.44-5.5-29.62-6.5z"/><path id="G" d="M441.7 141.12c-1.9-.3-2.67 1.6-3.65 2.94-2.57 3.5-5 7.16-6.57 11.23-1.78 4.64-2.37 9.63-3.5 14.46-.9 3.83-2.17 7.6-2.75 11.48-.38 3.06-.54 6.15-.5 9.23-.02 3.6-.04 7.2.57 10.73.1.8.35 1.6.74 2.3.9 1.46 2.64 2.1 4.26 2.64 2.84-1.86 5.83-3.88 7.22-7 .77-1.72 1-3.64 1.8-5.34.46-.96 1.1-1.84 1.36-2.87.4-1.54-.1-3.16-.08-4.75.05-3.45 2.57-6.66 2.02-10.07-.26-1.62-1.2-3.13-1.15-4.77.08-.9.3-1.76.67-2.58 1.92-5.03 3.8-10.4 2.82-15.7-.25-1.36-.7-2.7-.62-4.08.08-1.58.83-3.1.6-4.68a3.98 3.98 0 0 0-3.24-3.2z"/><path id="H" d="M401.47 125.66c-.58 1.93.57 1.84 2.14 1.77 1.76-.07 3.32 1.05 4.73 2.1 2.5 1.9 5.03 3.85 6.7 6.5 1.1 1.74 1.78 3.72 2.84 5.5 1.78 2.97 4.57 5.27 6.06 8.4a3.71 3.71 0 0 0 .71 1.17c.58.45 1.3.67 2.02.63 8.4.4 16.14-4.56 19.32-12.36.32-.66.47-1.4.46-2.12a3.76 3.76 0 0 0-1.5-2.52 14.71 14.71 0 0 0-2.61-1.5c-.3-.12-.55-.3-.76-.54a5.8 5.8 0 0 1-.43-.82c-.5-.9-1.63-1.17-2.5-1.7-3.17-1.92-2.86-6.88-5.57-9.4-1.9-1.7-4.7-1.84-6.78-.36-.26.26-.6.42-.95.47-.35-.07-.67-.24-.92-.5-1.2-.86-2.83-.7-4.24-.32s-2.82.98-4.3.9c-1.04-.06-2.04-.46-3.08-.6-1.13-.1-2.26-.01-3.36.24-1.83.33-3.7.75-5.28 1.74a6.25 6.25 0 0 0-2.71 3.32z"/></defs><clipPath id="I"><use xlink:href="#A"/></clipPath><g fill="gray"><path d="M415.36 324.72h0z" class="D"/><path d="M415.36 322.3h1.92v2.43h-1.92zm0-2.12h1.92v2.1h-1.92z" class="D"/><path d="M417.28 320.18h-1.92 1.92z" class="D"/></g><path d="M406.75 116.64a32.99 32.99 0 0 0-3.1-6.38c.1.2 7.26-1.6 8-1.73a81.34 81.34 0 0 1 8.52-1.1c.94-.06 1.98-.28 2.2.82.16.83-.44 2.33-.68 3.4a3.39 3.39 0 0 0-.08.44c-.3 2.7-.08 5.42.62 8.04.56 2.03 1.5 4.1 3.27 5.23-6.32-.95-12.62 2.15-19 1.83.12-2.16.85-4.26.9-6.43.02-1.4-.2-2.8-.65-4.12zm-49.7-3.8l-.9-2.08c-.6-1.4-1.5-2.98-2.38-4.56-2.38-3.87-5.36-7.35-7.94-5.36-.5.4-1 1-1.4 1.7-2 3.37-1.8 6.75-.8 9.63 0 .2 0 .4.1.6.1.4.3.9.5 1.3.5.8 1.2 1.4 2 2 .4.4.9.8 1.5 1.2.9.7 2 1.2 3.18 1.3 1.5.1 4.76-.8 5.65-2.08.4-.7.6-1.4.6-2.2v-.4c-.01-.3-.1-.7-.1-1z" fill="#a0616a"/><path fill="#65617d" d="M430 322.7c-1.12-2.03-4.26-1.28-6.27-.86-1.1.23-2.3.7-2.82 1.7-.23.55-.38 1.12-.44 1.72-.44 2.3-1.8 4.5-1.33 6.78a74.27 74.27 0 0 0 11.14-.9c.7-.1 1.5-.2 1.98.3-.48-2.7-.9-6.3-2.26-8.74z"/><use xlink:href="#D" class="B"/><use xlink:href="#D" class="C"/><use xlink:href="#E" fill="#e8eaf2"/><use xlink:href="#E" opacity=".05"/><use xlink:href="#F" class="C"/><use xlink:href="#F" opacity=".1"/><path d="M388.73 225.25c.57-1.78.6-11.72 1.2-13.5.43-1.45 1-2.85 1.72-4.2 1.3-2.2 3-2.93 6.03-.86a102.98 102.98 0 0 1 24.35 2.85c1.25.3 2.66.76 3.2 1.94.1.23.16.46.2.7.04.47.04.94-.02 1.4a29.55 29.55 0 0 1-1.05 6.54c-.67 2.1-1.88 4.12-3.72 5.34-.92.62-2 1.05-2.7 1.9-1.7 2.07-.27 5.2-.84 7.8-.16.73-.47 1.4-.68 2.12a15.21 15.21 0 0 0-.38 4.61c.06 2.7-.02 5.53.04 8.25.9 1.02 1.14 2.5 1 3.84a32.26 32.26 0 0 1-.91 3.98c-.47 2-.6 4.06-.38 6.1a1.62 1.62 0 0 0 .21.74c.3.48 1 .52 1.47.86 1.06.77.52 2.4.4 3.7-.3 2.97 2.13 5.4 3.82 7.87 2.3 3.34 3.4 7.33 4.3 11.3 1.74 7.73 2.52 15.66 2.88 23.57a15.94 15.94 0 0 1 2.94 3.56c1.2 2.22 1.36 4.83 1.5 7.35.05.4.01.82-.14 1.2a2.43 2.43 0 0 1-1.27 1.05c-3.7 1.8-7.8 2.74-11.92 2.7a1.71 1.71 0 0 1-.92-.18c-.26-.2-.46-.46-.58-.75a62.76 62.76 0 0 1-2.83-6.32c-.33-.85-.64-1.7-.95-2.57-4.6-12.72-5.32-28.03-13.78-38.58-1.8-2.26-3.13-4.86-3.9-7.65-.23-.85-.4-1.72-.6-2.6l-5.74-30.13a24.34 24.34 0 0 1-.51-4.51c0-2.44-2.15-7.18-1.4-9.5z" class="C"/><use xlink:href="#G" class="B"/><use xlink:href="#G" opacity=".05"/><circle fill="#a0616a" cx="410.27" cy="101.92" r="14.75"/><g class="B"><path d="M398.95 125.56c-.75-.02-1.6.06-2.1.62-.3.42-.5.92-.52 1.44l-.68 6.17c-.6 3.07-2.16 5.86-3.68 8.6l-3.98 7.1c.3 4.97.44 9.94.4 14.92.04.64-.05 1.28-.27 1.9-.3.57-.7 1.1-1.13 1.58-1.5 2-1.58 4.68-1.45 7.17a66.56 66.56 0 0 0 1.02 8.67c.68 3.66.06 7.72 1.37 11.2l1.55 4.13c.17.4.27.8.3 1.22.02.9-.6 1.67-1.05 2.46-.64 1.14-.96 2.44-.9 3.75a.7.7 0 0 0 .11.42c.17.23.5.2.8.17 3.5-.52 7.06-.38 10.6-.24 1.6.02 3.2.18 4.77.5 1.94.44 3.75 1.32 5.66 1.88 3.06.9 6.28.93 9.45 1.24 4.92.48 9.76 1.63 14.37 3.4.43-3.57-1.3-7.68.35-10.88 1.37-2.67.63-5.88.1-8.84-.3-1.6-.52-3.24-.75-4.87l-.75-5.34a7.65 7.65 0 0 1-.09-2.24c.17-1.1.8-2.07 1.34-3.05 1.6-3.03 1.92-6.9 1.33-10.27 1.34-2.2 2.5-4.52 3.43-6.92 1.76-4.14 3.54-8.33 4.2-12.77.67-4.45.1-9.25-2.47-12.93-1.02-1.46-2.33-2.7-3.42-4.1-1.54-1.97-2.65-4.25-4.2-6.2-1.57-1.95-3.78-3.6-6.28-3.62-1.2.06-2.4.3-3.52.72a84.9 84.9 0 0 1-11.92 2.68c-2 .3-4.1.56-5.8 1.65-.3.22-.6.4-.96.5-.95.24-1.82-.58-2.46-1.32-.9-.3-1.84-.47-2.77-.5z"/><path d="M399.5 142.8c.97-5.06 1.64-10.25.37-15.24a8.27 8.27 0 0 0-2.49-.76 1.22 1.22 0 0 0-.82.1c-.38.24-.42.76-.64 1.14-.62 1.1-2.25.73-3.46 1.03-1.32.32-2.37 1.56-3.73 1.57-.52-.08-1.05-.1-1.57-.06-.5.13-.9.82-.52 1.17a1.65 1.65 0 0 0-1.57.75c-.38.48-.62 1.07-1.04 1.52-.37-.5-1-.75-1.62-.63a6.15 6.15 0 0 0-1.71.67 2.23 2.23 0 0 1-.75.26c-.3.02-.62-.01-.92-.08a7.32 7.32 0 0 0-4.3.6c-1.18.56-2.32-.47-3.62-.55a1.99 1.99 0 0 1-1.33-.41c-.24-.3-.4-.66-.5-1.04-.6-1.7-2.04-2.97-3.8-3.35.7-2.2-.44-4.6-2.6-5.43.17-1.55-.43-3.08-1.62-4.1-.3-.2-.56-.4-.82-.64-.34-.4-.6-.88-.75-1.4l-1.15-3.04c-.53-.18-1.07-.33-1.62-.43-1.65-.18-3.32-.12-4.95.2-1.6.4-3.16 1.37-3.84 2.88-.12.22-.17.47-.13.72.1.3.3.56.56.74a7.67 7.67 0 0 1 2.34 4.21c.17.94-.46 1.94-.4 2.9a8.4 8.4 0 0 0 .73 2.69c.8 2 1.64 4.08 3.22 5.55.38 3.22 1.62 6.28 3.6 8.85 1.67 2.13 3.9 3.73 6.1 5.3a11.6 11.6 0 0 0 2.25 1.4c.72.27 1.47.47 2.23.6a115.45 115.45 0 0 0 20.23 2.22c1.65.04 3.38.02 4.84-.74 1.27-.66 2.2-1.8 3.1-2.93 1.4-1.8 2.35-3.97 2.7-6.26z"/><use xlink:href="#H"/></g><use xlink:href="#H" opacity=".05"/><path d="M395.64 332.12c.9-1.53 3-1.65 4.75-1.9a15.58 15.58 0 0 0 4.98-1.58c1.92-1 3.62-2.37 5.56-3.33 1.48-.8 3.16-1.13 4.82-.98.5.07.97.2 1.42.4a12.11 12.11 0 0 1 1.75 1.08c2.58 1.76 6.2 3.73 9.45 3.55 1.2-.06 1.78-.47 2.56-1.36.13-.15 2.95-3.67 3.3-2.1a56.61 56.61 0 0 1 1.43 11.67c.02.1.02.2.02.3a.99.99 0 0 1-1.08.89c-3.84.68-7.73 1.02-11.62 1-3.16-.01-6.3-.25-9.45-.5l-3.22-.25c-3.3-.18-6.6-.58-9.86-1.22-1.43-.3-2.9-.75-3.96-1.74-1.06-1-1.6-2.7-.86-3.95z" class="C"/><path fill="#e8eaf2" d="M395.64 332.12c.82.7 1.74 1.3 2.72 1.75 1.5.58 3.08.94 4.7 1.04a183.38 183.38 0 0 0 28.79 1.01c.45.02.9-.08 1.3-.27.8-.47.93-1.56.96-2.5.02-.56-.01-1.22-.48-1.53a1.56 1.56 0 0 0-.82-.2c-3.9-.2-8.05.66-11.55-1.07-1.73-.86-5.07-3.68-5.5-6 .5.07.97.2 1.42.4a12.11 12.11 0 0 1 1.75 1.08c2.58 1.76 6.2 3.73 9.45 3.55 1.2-.06 1.78-.47 2.56-1.36.13-.15 2.95-3.67 3.3-2.1.88 3.82 1.94 7.74 2 11.67-.17.47-.42.9-.72 1.32-.23.27-.57.43-.92.44-3.84.68-7.73 1.02-11.62 1-3.16-.01-6.3-.25-9.45-.5l-3.22-.25c-3.3-.18-6.6-.58-9.86-1.22-1.43-.3-2.9-.75-3.96-1.74-1.06-1-2.1-3.58-.86-4.54z"/><path d="M402.14 96.56c-1.16-1.77-2.6-3.8-2.04-6.03a4.61 4.61 0 0 1 1.3-2.18c.44-.43.95-.78 1.5-1.06 1.35-.6 2.8-.94 4.27-1 1.12-.13 2.25-.08 3.36.14 1.12.32 2.2.8 3.18 1.42 3.03 1.7 6.1 3.43 8.62 5.82 2.53 2.4 4.5 5.55 4.76 9.02a11.49 11.49 0 0 1-.01 1.76h0a14.79 14.79 0 0 1-.44 2.55 24.6 24.6 0 0 1-1.22 3.47c-.57 1.33-1.36 2.76-2.75 3.16-.6.14-1.24.15-1.85 0a9.26 9.26 0 0 1-6.72-5.43c-.73-1.74-1.2-4.4-3.38-4.84-2.16-.45-2.64 1.56-4.34 2.06-2.85.83-1.8-2.13-1.87-3.66-.05-1.96-1.33-3.63-2.37-5.2z" class="C"/><path d="M400.65 89.56c.64-2.06 1.82-2.84 3.38-3.57l1.24-.56c2.16-.97 4.25-2.4 6.7-2.4 2.24 0 4.38 1.23 6.6 1.18.1 0 .22 0 .33-.02.07 0 .13-.01.2-.02.62-.08 1.36-.22 1.77.25.13.2.23.4.3.6a1.28 1.28 0 0 0 .11.2c.08.14.17.27.28.38.7.78 1.9 1.13 2.9 1.64 2.23 1.14 3.7 3.46 4.28 5.9.58 2.44.38 5-.06 7.47-.25 1.38-.82 2.97-1.9 3.66l.34-.26s7.46 5.28 6.1 6.03c-1.16.64-8.03-4.46-10.1-6l-5.9-1.7c-3-.87-6.02-1.75-8.8-3.16-.96-.48-1.88-1.03-2.75-1.64a15.6 15.6 0 0 1-1.36-1.07 14.78 14.78 0 0 1-2.02-2.09c-.32-.4-.6-.8-.87-1.25-.64-1.06-1.15-2.36-.78-3.56z" class="B"/><path d="M423.25 103.94a3.27 3.27 0 0 0 2.72.41 2.86 2.86 0 0 0 1.02-.38l-3.74-.03z" opacity=".1"/><g class="C"><path d="M50.25 236.16l-6 82.6s7.25-2.84 8.83-4.4-.63-8.2-.63-8.2l10.1-38.77.95-33.1-13.25 1.9z"/><path d="M50.94 313.46s17.5 3.84 18.95 7.9-21.82 2.16-26.86 1.44-1.44-8.63-1.44-8.63l9.35-.72z"/><path d="M61.6 206.22c3.47 1.9 4.4 21.75 4.4 21.75l-3.47 19.54-14.5 54.22v6.62a41.79 41.79 0 0 1-1.58 10.72c-.95 3.47 2.2 7.88 2.2 7.88-2.2 6.93-15.76 2.2-15.76 2.2s.32-8.5 0-10.1-.32-1.26-1.26-4.1c-.95-2.84-.32-5.36 0-8.5s.95-1.26-1.58-6.93c-2.52-5.67 3.15-41.92 3.15-41.92s3.78-25.22 1.26-28.7-6.3-23.96-6.3-23.96 29.96-.63 33.42 1.26z"/><path d="M46.15 326.63s23 5.04 24.9 10.4-28.7 2.84-35.3 1.9-1.9-11.35-1.9-11.35l12.3-.94z"/></g><g fill="#ffb9b9"><circle cx="39.85" cy="101.58" r="12.61"/><path d="M44.5 108.06c-1.76 2.64 2.17 15.24 2.17 15.24l-15.46-.05-.23-16.1s15.28-1.72 13.52.9z"/></g><path d="M66 187.62c-.32 4.4-.95 2.2-1.58 4.1s2.84 6.93 0 10.72c-2.84 3.78-1.9 5.04-1.9 5.04l-33.4-.95s-1.9-.63-.95-1.58-1.58-3.15-3.78-6c-2.2-2.84-.63-1.9 2.2-5.67s-1.9-9.46-1.9-9.46l-1.9-39.72s3.15-14.18 11.66-20.17 19.54 8.2 19.54 8.2S66.32 183.2 66 187.62z" class="B"/><path fill="#ffb9b9" d="M59.4 210.32l1.17 1.87c1.7 2.67 1.6 6.1-.25 8.7-.97 1.3-2.3 2.2-4.07 1.74-4.73-1.26-5.36-9.14-5.36-9.14l8.5-3.16z"/><path d="M54.2 131.98s-6-1.58-13.55-6.3c-7.57-4.73-16.83 15-16.83 15l-.82-1.76c-.32-.63-.95-1.26-1.58-3.15s1.26-4.73.63-5.04c-.63-.32-.95-3.47-.32-4.4.63-.95.32-1.9 0-2.84s0-7.25 0-7.25C50.1 109.94 54.2 132 54.2 132zm-11.65 1.32a9.28 9.28 0 0 1 2.46 7.19l-2.64 32v6c0 1.9 2.52 5.67 3.47 6.62s.95.63 1.26 2.52c.32 1.9 7.88 14.18 7.88 14.18s4.4 5.04 5.36 8.2c.95 3.15-9.14 6.62-9.14 6.62a10.37 10.37 0 0 1-2.52-1.9c-1.26-1.26-.95-2.52-.63-4.1s0-1.26-2.84-3.15-20.17-28.37-20.17-28.37 1.58-20.8.95-34.04 9.46-14.18 9.46-14.18c3.33-.42 5.6.83 7.1 2.4z" class="B"/><path d="M50.06 92.04c-1.82.14-3.62.44-5.4.88-.75.14-1.46.44-2.07.9-.97.83-1.2 2.22-1.4 3.48l-.87 6.23c-.02.4-.16.8-.4 1.15-.36.3-.8.5-1.27.57-1.7.45-3.17 1.46-4.2 2.86-1.4 1.9-1.92 4.43-3.73 5.94-.47-4.2-3.82-7.42-5.58-11.25-1.1-2.42-1.58-5.1-1.36-7.74.07-.97.26-1.93.56-2.85.94-2.76 3.03-4.97 5.73-6.07 1.3-.52 2.73-.77 3.92-1.52.65-.4 1.2-.95 1.85-1.34 1.32-.8 2.93-.93 4.48-.93a31.88 31.88 0 0 1 9.55 1.46c1.4.44 2.87 1.05 3.63 2.3.88 1.46.46 3.48-.77 4.66a5.15 5.15 0 0 1-4.76 1.09" class="C"/><path d="M44.26 206.57l-17.7-22.96c1.4 9.34 17.7 22.96 17.7 22.96zm1-28.57l8.4 17.28-10.28-15.42.17-21.68z" opacity=".1"/><g class="B"><path d="M370.55 190.5h0a2.01 2.01 0 0 1-2.01-2.01V55.9a2.01 2.01 0 0 1 2.01-2.01h0a2.01 2.01 0 0 1 2.01 2.01v132.6a2.01 2.01 0 0 1-2.01 2.01z" opacity=".2"/><path d="M370.55 83h0a2.01 2.01 0 0 1-2.01-2.01V55.9a2.01 2.01 0 0 1 2.01-2.01h0a2.01 2.01 0 0 1 2.01 2.01V81a2.01 2.01 0 0 1-2.01 2z"/></g></svg>