<svg xmlns="http://www.w3.org/2000/svg" xmlns:xlink="http://www.w3.org/1999/xlink" viewBox="0 0 639 302" xmlns:v="https://vecta.io/nano"><style><![CDATA[.B{fill:#2f2e41}.C{fill:#007bff}.D{fill:#2fc19a}.E{fill:#ed474a}]]></style><path fill="#3f3d56" d="M639 21.96H0V6.64A6.64 6.64 0 0 1 6.64 0h625.6A6.75 6.75 0 0 1 639 6.75v15.2z"/><g class="C"><path d="M26.43 49.9h-1.3v4.04h-.52V49.9h-1.3v-.48h3.14v.48z"/><use xlink:href="#B"/><use xlink:href="#C"/><use xlink:href="#D"/><use xlink:href="#E"/><path d="M42.56 53.95h-.52v-.5h-.01c-.2.4-.55.6-1 .6-.77 0-1.15-.46-1.15-1.38v-1.93h.5v1.85c0 .68.26 1.02.78 1.02.25 0 .46-.1.62-.28s.24-.43.24-.73v-1.86h.52v3.23zm1.3-4.05a.31.31 0 0 1-.34-.34c0-.1.03-.18.1-.24s.14-.1.24-.1a.31.31 0 0 1 .34.34.31.31 0 0 1-.1.24c-.07.05-.15.1-.24.1zm.25 4.05h-.52v-3.23h.52v3.23z"/><use xlink:href="#D" x="12.61"/><use xlink:href="#B" x="20.91"/><path d="M53.86 54.97h-.46c-.65-.74-.98-1.66-.98-2.75 0-1.1.33-2.03.98-2.8h.47c-.66.8-1 1.73-1 2.8-.01 1.06.32 1.98.98 2.76z"/><use xlink:href="#F"/><use xlink:href="#G"/><path d="M61.43 54.97h-.46c.66-.8.98-1.7.98-2.76 0-1.06-.33-2-1-2.8h.47c.66.77.98 1.7.98 2.8 0 1.1-.33 2-.98 2.75z"/></g><g class="B"><path d="M25.26 40.13v2.62h-1.2v-7.23h2.2c.83 0 1.47.2 1.93.58s.7.93.7 1.63-.24 1.28-.72 1.73-1.12.67-1.94.67h-.96zm0-3.62v2.64h.78c.5 0 .9-.12 1.18-.36s.4-.58.4-1c0-.85-.5-1.28-1.48-1.28h-.88zm8.38 6.25H32.5v-.8h-.02c-.36.62-.88.93-1.57.93-.5 0-.9-.14-1.2-.4-.3-.28-.43-.64-.43-1.1 0-.98.56-1.54 1.7-1.7l1.53-.22c0-.74-.35-1.1-1.05-1.1a2.48 2.48 0 0 0-1.67.64V38c.54-.32 1.17-.48 1.9-.48 1.3 0 1.96.64 1.96 1.93v3.34zm-1.13-2.54l-1.08.15c-.34.04-.6.13-.76.24-.17.12-.25.33-.25.63 0 .22.08.4.24.54s.37.2.63.2a1.18 1.18 0 0 0 .89-.38c.23-.25.35-.57.35-.95v-.44zm7.03-2.62l-2.33 6c-.48 1.07-1.16 1.6-2.04 1.6-.25 0-.45-.02-.62-.07v-.97c.2.06.35.1.5.1.44 0 .76-.22.98-.65l.35-.85-2.05-5.16h1.3l1.23 3.75.1.37H37l.1-.36 1.3-3.76h1.18zm8.5 5.16h-1.17v-2.82c0-.54-.08-.93-.23-1.18s-.4-.36-.77-.36c-.3 0-.57.15-.78.46s-.32.67-.32 1.1v2.8H43.6v-2.9c0-.96-.34-1.44-1.02-1.44-.32 0-.58.14-.78.43s-.3.66-.3 1.13v2.8h-1.17V37.6h1.17v.82h.02a1.78 1.78 0 0 1 1.63-.94 1.53 1.53 0 0 1 .94.3c.27.2.45.46.55.77.38-.7.96-1.07 1.72-1.07 1.14 0 1.7.7 1.7 2.1v3.2z"/><use xlink:href="#H"/><path d="M59.56 42.76H58.4v-2.9c0-.97-.34-1.45-1.02-1.45-.36 0-.65.13-.88.4s-.35.6-.35 1v2.95h-1.18V37.6h1.18v.86h.02c.4-.65.94-.98 1.67-.98.56 0 1 .18 1.3.55s.44.9.44 1.58v3.16zm4.14-.06c-.23.1-.53.17-.9.17-1 0-1.5-.48-1.5-1.44V38.5h-.86v-.92h.86v-1.2l1.17-.33v1.53h1.24v.92h-1.24v2.58c0 .3.06.52.17.66.1.13.3.2.55.2.2 0 .37-.06.5-.17v.92z"/><use xlink:href="#I"/><path d="M77.7 42.76h-1.17v-.82h-.02c-.34.63-.87.94-1.58.94-1.22 0-1.83-.73-1.83-2.2v-3.1h1.17v2.97c0 .93.36 1.4 1.08 1.4.35 0 .63-.13.86-.38.22-.26.33-.6.33-1V37.6h1.17v5.16zm2.1-6.26a.67.67 0 0 1-.49-.19c-.14-.12-.2-.28-.2-.47s.07-.35.2-.48c.14-.13.3-.2.5-.2s.37.06.5.2a.63.63 0 0 1 .21.48.65.65 0 0 1-.2.47.71.71 0 0 1-.5.19zm.58 6.25H79.2V37.6h1.17v5.17zm4.26-.05c-.23.1-.53.17-.9.17-1 0-1.5-.48-1.5-1.44V38.5h-.86v-.92h.86v-1.2l1.17-.33v1.53h1.24v.92H83.4v2.58c0 .3.06.52.17.66.1.13.3.2.55.2.2 0 .37-.06.5-.17v.92z"/><use xlink:href="#H" x="36.12"/></g><g fill="#fff"><use xlink:href="#J"/><use xlink:href="#K"/><use xlink:href="#L"/><use xlink:href="#M"/><path d="M224.75 14.2v-.77c.07.06.15.12.25.17s.2.1.3.13l.32.08a1.69 1.69 0 0 0 .3.03c.32 0 .55-.05.7-.16s.23-.26.23-.46a.51.51 0 0 0-.08-.28c-.05-.08-.12-.15-.22-.22-.1-.07-.2-.13-.33-.2l-.4-.2-.43-.25c-.13-.08-.25-.18-.35-.28a1.18 1.18 0 0 1-.23-.35c-.06-.13-.08-.28-.08-.45a1.07 1.07 0 0 1 .14-.55 1.18 1.18 0 0 1 .38-.39 1.81 1.81 0 0 1 .53-.23c.2-.05.4-.07.6-.07.47 0 .82.05 1.03.16v.74c-.26-.18-.6-.28-1-.28a1.84 1.84 0 0 0-.33.03 1.32 1.32 0 0 0-.3.1c-.1.05-.16.1-.2.2s-.08.17-.08.27.02.2.06.26.1.14.18.2.18.12.3.18l.4.2c.16.08.3.17.45.26s.26.2.37.3a1.23 1.23 0 0 1 .25.36 1.11 1.11 0 0 1 .09.46c0 .23-.05.42-.14.58a1.04 1.04 0 0 1-.37.38 1.6 1.6 0 0 1-.54.21 3.32 3.32 0 0 1-.65.07c-.08 0-.17-.01-.28-.02s-.22-.03-.34-.05-.22-.05-.33-.08c-.08-.01-.17-.04-.23-.08z"/><use xlink:href="#N"/><path d="M235.28 14.38h-.82l-.4-1.15h-1.78l-.4 1.15h-.82l1.7-4.52h.84l1.7 4.52zm-1.42-1.77l-.63-1.8c-.02-.06-.04-.15-.06-.28h-.01l-.06.28-.62 1.8h1.38zm4.5-2.1h-1.3v3.88h-.75V10.5H235v-.64h3.35v.64z"/><use xlink:href="#O"/><use xlink:href="#P"/><use xlink:href="#Q"/><use xlink:href="#O" x="65.1"/><use xlink:href="#J" x="284.85"/><use xlink:href="#N" x="86.9"/><use xlink:href="#R"/><use xlink:href="#S"/><path d="M329.1 14.38h-2.54V9.85H329v.64h-1.7v1.28h1.55v.63h-1.55v1.34h1.8v.64zm43.26-3.88h-1.3v3.88h-.75V10.5H369v-.64h3.35v.64z"/><use xlink:href="#M" x="333.96"/><use xlink:href="#T"/><use xlink:href="#N" x="151.4"/><use xlink:href="#N" x="156.74"/><use xlink:href="#R" x="69.84"/><use xlink:href="#S" x="69.83"/><use xlink:href="#M" x="357.33"/><use xlink:href="#T" x="75.79"/><use xlink:href="#N" x="227.19"/><use xlink:href="#K" x="430"/><path d="M466.6 14.38h-.88l-.7-1.22-.2-.3c-.06-.08-.13-.14-.2-.2a.53.53 0 0 0-.21-.11c-.08-.02-.16-.04-.25-.04h-.3v1.84h-.75V9.85h1.5c.2 0 .4.03.6.08a1.47 1.47 0 0 1 .47.23 1.04 1.04 0 0 1 .31.38c.08.15.1.33.1.53 0 .16-.02.3-.07.44s-.1.25-.2.36c-.1.1-.2.2-.3.27-.12.07-.26.13-.42.17v.01c.08.05.15.1.2.15l.17.17.16.2.18.26.8 1.28zm-2.74-3.92v1.47h.62c.12 0 .22-.02.32-.05.1-.04.18-.1.25-.15s.13-.15.17-.25.06-.2.06-.32c0-.22-.07-.4-.2-.5s-.33-.18-.6-.18h-.62z"/><use xlink:href="#N" x="238.49"/><use xlink:href="#M" x="431.47"/><path d="M473.88 14.38V9.85h1.3c1.67 0 2.5.73 2.5 2.2 0 .7-.23 1.26-.7 1.68s-1.08.64-1.86.64h-1.25zm.74-3.9v3.25h.6c.53 0 .94-.15 1.23-.44s.44-.7.44-1.23c0-1.06-.55-1.6-1.64-1.6h-.63zm5.66 3.9V9.85h1.43c.44 0 .78.1 1.04.3a.9.9 0 0 1 .38.75c0 .26-.07.48-.22.67-.14.2-.35.32-.6.4v.01c.3.04.56.15.75.35.2.2.28.45.28.76a1.11 1.11 0 0 1-.46.94c-.3.24-.7.36-1.15.36h-1.45zm.75-3.92v1.3h.5c.26 0 .46-.06.6-.18s.22-.3.22-.52c0-.4-.26-.58-.78-.58h-.54zm0 1.88v1.43h.64c.28 0 .5-.06.65-.2s.23-.3.23-.53c0-.47-.33-.7-.97-.7h-.55z"/><use xlink:href="#R" x="164.95"/><use xlink:href="#P" x="263.08"/><path d="M513.05 10.5h-1.3v3.88H511V10.5h-1.3v-.64h3.35v.64z"/><use xlink:href="#K" x="484.48"/><use xlink:href="#Q" x="217.47"/><path d="M524.35 10.5h-1.3v3.88h-.75V10.5H521v-.64h3.35v.64zm3.2 3.88H525V9.85h2.44v.64h-1.7v1.28h1.55v.63h-1.55v1.34h1.8v.64z"/><use xlink:href="#U"/><use xlink:href="#N" x="306.28"/><path d="M539.1 14.38h-.77V9.85h.77v4.53zm5.96 0h-.74v-2.93l.04-.88h-.01l-.12.43-1.35 3.38h-.52L541 11.03c-.04-.1-.08-.25-.12-.45h-.01a9.18 9.18 0 0 1 .03.89v2.92h-.7V9.85h1.06l1.2 3 .18.52h.02l.2-.53 1.2-3h1.02v4.53z"/><use xlink:href="#M" x="507.1"/><path d="M580.75 10.5h-1.7v1.36h1.56v.63h-1.56v1.9h-.75V9.85h2.44v.64zm1.58 3.88h-.77V9.85h.77v4.53z"/><use xlink:href="#J" x="559.62"/><path d="M589.16 14.38h-.77V9.85h.77v4.53z"/><use xlink:href="#T" x="213.91"/><path d="M597.42 14.38h-.75v-1.96h-2.13v1.96h-.75V9.85h.75v1.9h2.13v-1.9h.75v4.53z"/><use xlink:href="#M" x="559.48"/><use xlink:href="#U" x="73.53"/><use xlink:href="#N" x="379.82"/><path d="M612.62 14.38h-.77V9.85h.77v4.53z"/><use xlink:href="#L" x="580.64"/><path d="M622.24 14.38h-2.54V9.85h2.44v.64h-1.7v1.28H622v.63h-1.55v1.34h1.8v.64z"/></g><g fill="#dee2e6"><path d="M0 63.6h639v.65H0z"/><path d="M0 63.6h639v.65H0z"/></g><g class="B"><path d="M508.3 38.24a.97.97 0 0 0-.06-.36c-.04-.1-.1-.2-.18-.26a.68.68 0 0 0-.26-.15 1.14 1.14 0 0 0-.33-.05c-.1 0-.2.01-.3.04a1.36 1.36 0 0 0-.28.11c-.1.05-.18.1-.26.17-.1.07-.17.14-.24.22v-.55c.14-.14.3-.25.5-.32a1.82 1.82 0 0 1 .66-.11c.18 0 .36.03.5.08.16.05.3.13.4.23s.2.23.27.38.1.32.1.52a1.88 1.88 0 0 1-.06.49c-.04.15-.1.28-.2.4a2.1 2.1 0 0 1-.31.37 3.4 3.4 0 0 1-.44.36l-.53.4c-.14.1-.25.2-.33.3s-.14.2-.17.28-.05.2-.05.32H509v.46h-2.8v-.22c0-.2.02-.36.06-.5s.1-.3.2-.42.22-.26.38-.4l.58-.45.4-.34c.1-.1.2-.2.27-.32s.12-.22.14-.33.04-.2.04-.34z"/><use xlink:href="#V"/><use xlink:href="#W"/><use xlink:href="#V" x="6.96"/><use xlink:href="#X"/><path d="M527 41.58h-.52v-.5h-.01c-.2.4-.55.6-1 .6-.77 0-1.15-.46-1.15-1.38v-1.93h.5v1.85c0 .68.26 1.02.78 1.02.25 0 .46-.1.62-.28s.24-.43.24-.73v-1.86h.53v3.23z"/><use xlink:href="#Y"/><use xlink:href="#W" x="20.11"/><use xlink:href="#W" x="23.6"/><path d="M540.9 40.86l-.5 1.55h-.37l.37-1.55h.5z"/><use xlink:href="#F" x="451.95" y="-4.62"/><path d="M512.56 47.05a4.43 4.43 0 0 1-.1 1.01c-.07.3-.17.54-.3.74s-.3.35-.48.46a1.35 1.35 0 0 1-.64.16c-.23 0-.43-.05-.6-.15a1.26 1.26 0 0 1-.45-.44c-.12-.2-.2-.43-.28-.7a4.61 4.61 0 0 1-.09-.96 4.74 4.74 0 0 1 .1-1.05c.07-.3.16-.56.3-.76s.3-.36.48-.46a1.39 1.39 0 0 1 .65-.16c.96-.01 1.43.76 1.43 2.3zm-.53.05c0-1.3-.3-1.93-.92-1.93-.64 0-.97.65-.97 1.96 0 1.22.32 1.83.95 1.83s.94-.62.94-1.86z"/><use xlink:href="#Z"/><path d="M517.23 48.05a1.31 1.31 0 0 1-.12.56c-.08.17-.18.3-.32.43a1.62 1.62 0 0 1-.5.28c-.2.07-.4.1-.65.1-.43 0-.77-.08-1.03-.25v-.56a1.63 1.63 0 0 0 1.05.36 1.44 1.44 0 0 0 .43-.06c.13-.04.24-.1.33-.17.1-.08.16-.17.2-.27.05-.1.07-.23.07-.36 0-.6-.42-.9-1.26-.9h-.38v-.44h.36c.74 0 1.12-.28 1.12-.83 0-.5-.28-.77-.85-.77-.32 0-.62.1-.9.32V45c.3-.17.63-.26 1.03-.26.2 0 .36.03.5.08s.28.13.4.22a.94.94 0 0 1 .25.34 1.05 1.05 0 0 1 .09.44c0 .6-.3.98-.9 1.15v.01a1.6 1.6 0 0 1 .43.11c.13.06.24.13.34.23.1.1.17.2.22.33s.08.25.08.4z"/><use xlink:href="#a"/><use xlink:href="#Z" x="8.37"/><use xlink:href="#b"/><use xlink:href="#b" x="3.48"/><path d="M304.1 39.88h-1.83v5.66h-.74v-5.66h-1.82v-.67h4.4v.67z"/><use xlink:href="#c"/><use xlink:href="#d"/><use xlink:href="#e"/><use xlink:href="#f"/><use xlink:href="#g"/><use xlink:href="#h"/><use xlink:href="#e" x="17.65"/><use xlink:href="#i"/><use xlink:href="#j"/><path d="M376.68 45.54h-.74V39.2h.74v6.33zm9.05 0h-.82l-.67-1.77h-2.68l-.63 1.77h-.83l2.43-6.33h.77l2.43 6.33zM384 43.1l-1-2.7a4.49 4.49 0 0 1-.1-.42h-.02c-.03.18-.06.32-.1.42l-.98 2.7h2.2z"/><use xlink:href="#g" x="63.54"/><use xlink:href="#e" x="78.99"/><use xlink:href="#k"/><use xlink:href="#l"/><use xlink:href="#m"/><use xlink:href="#e" x="99.74"/><use xlink:href="#h" x="87.34"/><use xlink:href="#k" x="22.94"/><use xlink:href="#n"/><use xlink:href="#o"/><use xlink:href="#p"/><use xlink:href="#l" x="63.44"/><use xlink:href="#q"/><use xlink:href="#r"/><path d="M304.1 272.54h-1.83v5.66h-.74v-5.66h-1.82v-.67h4.4v.67z"/><use xlink:href="#c" y="232.66"/><use xlink:href="#d" y="232.66"/><use xlink:href="#e" y="232.66"/><path d="M318.03 277.95v-.87a1.61 1.61 0 0 0 .36.24c.14.07.3.13.44.18.16.05.3.1.47.1a2.29 2.29 0 0 0 .43.04c.46 0 .8-.08 1.02-.25a.87.87 0 0 0 .34-.73c0-.17-.04-.32-.1-.45s-.18-.24-.3-.35c-.13-.1-.3-.2-.47-.3l-.58-.3-.62-.34c-.2-.1-.36-.24-.5-.38a1.54 1.54 0 0 1-.33-.47c-.08-.17-.12-.38-.12-.62 0-.3.06-.54.2-.75s.3-.4.5-.53.44-.24.7-.3a3.1 3.1 0 0 1 .81-.1c.62 0 1.08.08 1.36.23v.83c-.37-.26-.85-.4-1.44-.4a2.81 2.81 0 0 0-.49.05c-.16.03-.3.1-.43.17a.99.99 0 0 0-.31.3c-.08.12-.12.27-.12.44 0 .16.03.3.1.42s.15.23.27.32a2.46 2.46 0 0 0 .43.28l.58.3c.23.1.44.23.64.35s.38.26.53.4.27.32.36.5.13.4.13.63c0 .3-.06.58-.18.8a1.58 1.58 0 0 1-.5.53c-.2.14-.45.23-.72.3a3.98 3.98 0 0 1-.86.09c-.1 0-.22-.01-.37-.02s-.3-.04-.45-.07-.3-.07-.43-.1l-.3-.16z"/><use xlink:href="#g" y="232.66"/><use xlink:href="#h" y="232.66"/><use xlink:href="#e" x="17.65" y="232.66"/><use xlink:href="#i" y="232.66"/><use xlink:href="#j" y="232.66"/><path d="M376.68 278.2h-.74v-6.33h.74v6.33z"/><use xlink:href="#o" x="-71.6" y="232.66"/><use xlink:href="#g" x="63.54" y="232.66"/><use xlink:href="#e" x="78.99" y="232.66"/><use xlink:href="#s"/><use xlink:href="#l" y="232.66"/><path d="M411.06 278.2h-.72v-.7h-.02a1.52 1.52 0 0 1-1.39.81c-.45 0-.8-.12-1.06-.36-.25-.24-.38-.55-.38-.95 0-.84.5-1.34 1.5-1.47l1.36-.2c0-.77-.3-1.15-.93-1.15-.54 0-1.04.2-1.47.56V274c.44-.28.96-.42 1.54-.42 1.06 0 1.6.56 1.6 1.7v2.93zm-.72-2.28l-1.1.15c-.34.05-.6.13-.76.25s-.26.33-.26.63c0 .22.08.4.24.54s.37.2.63.2c.36 0 .66-.13.9-.38s.35-.57.35-.96v-.44z"/><use xlink:href="#e" x="99.74" y="232.66"/><use xlink:href="#h" x="87.34" y="232.66"/><use xlink:href="#s" x="22.94"/><use xlink:href="#n" y="232.66"/><use xlink:href="#o" y="232.66"/><use xlink:href="#p" y="232.66"/><use xlink:href="#l" x="63.44" y="232.66"/><use xlink:href="#q" y="232.66"/><use xlink:href="#r" y="232.66"/><path d="M578.67 41.58h-.53v-4.52h.53v4.52z"/><use xlink:href="#Y" x="51.75"/><path d="M585.82 39.87v1.7h-.53v-4.52h1.24c.48 0 .86.12 1.12.35.27.24.4.57.4 1s-.15.78-.44 1.05-.7.4-1.2.4h-.6zm0-2.33v1.85h.55c.37 0 .64-.08.84-.25s.3-.4.3-.7c0-.6-.35-.9-1.06-.9h-.62z"/><use xlink:href="#t"/><path d="M592.43 41.65c-.48 0-.86-.15-1.14-.45-.3-.3-.43-.7-.43-1.2 0-.54.15-.97.44-1.27.3-.3.7-.46 1.2-.46.48 0 .86.15 1.13.44.27.3.4.7.4 1.23s-.15.93-.44 1.24c-.3.32-.68.47-1.17.47zm.04-2.94c-.33 0-.6.1-.8.34-.2.23-.3.54-.3.93 0 .38.1.68.3.9s.46.33.8.33.6-.1.77-.32c.18-.22.27-.52.27-.92s-.1-.7-.27-.93-.44-.34-.77-.34zm5.15 2.6c0 1.2-.57 1.78-1.7 1.78a2.32 2.32 0 0 1-1.05-.23v-.52c.36.2.7.3 1.04.3.8 0 1.2-.42 1.2-1.27v-.35h-.01a1.22 1.22 0 0 1-1.11.62c-.4 0-.72-.14-.97-.43s-.37-.67-.37-1.16c0-.55.13-.98.4-1.3s.63-.5 1.08-.5c.44 0 .76.17.97.52h.01v-.45h.52v3zm-.52-1.2v-.48a.93.93 0 0 0-.26-.66.86.86 0 0 0-.65-.27c-.32 0-.57.12-.75.35s-.27.56-.27.98c0 .36.1.65.26.86.17.22.4.32.7.32a.89.89 0 0 0 .71-.31c.18-.2.27-.47.27-.8z"/><use xlink:href="#t" x="9.83"/><use xlink:href="#B" x="574.46" y="-12.36"/><use xlink:href="#u"/><use xlink:href="#u" x="2.73"/></g><path fill="#f5f5f6" d="M577.72 45.2h46.5v2.58h-46.5z"/><path d="M577.72 45.2h30.35v2.58h-30.35z" class="C"/><use xlink:href="#v" class="D"/><g fill="#fff"><path d="M236.28 44.98v1.88h-.58V41.9h1.37c.53 0 .94.13 1.24.4.3.26.44.62.44 1.1s-.16.86-.5 1.16-.76.45-1.32.45h-.66zm0-2.57v2.04h.6c.4 0 .7-.1.92-.28.2-.18.32-.44.32-.78 0-.66-.4-.98-1.17-.98h-.68z"/><use xlink:href="#w"/><use xlink:href="#x"/><use xlink:href="#y"/><use xlink:href="#z"/><use xlink:href="#AA"/></g><g class="C"><path d="M26.43 283.18h-1.3v4.04h-.52v-4.04h-1.3v-.48h3.14v.48z"/><use xlink:href="#B" y="233.28"/><use xlink:href="#C" y="233.27"/><use xlink:href="#AB"/><path d="M36.38 287.04v-.62a1.3 1.3 0 0 0 .26.17c.1.05.2.1.32.13l.33.08a1.71 1.71 0 0 0 .31.03c.33 0 .57-.06.73-.18s.24-.3.24-.52a.66.66 0 0 0-.08-.32c-.05-.1-.13-.17-.22-.25a2.08 2.08 0 0 0-.33-.21l-.42-.22-.44-.24c-.14-.08-.26-.17-.36-.27s-.18-.2-.24-.34-.1-.27-.1-.44c0-.2.04-.4.14-.54s.2-.28.36-.38a1.62 1.62 0 0 1 .5-.22 2.3 2.3 0 0 1 .58-.07c.45 0 .77.05.97.16v.6c-.27-.2-.6-.28-1.03-.28-.12 0-.23.01-.35.04-.12.02-.22.06-.3.12-.1.05-.16.13-.22.2a.55.55 0 0 0-.09.32c0 .12.02.22.07.3.04.08.1.16.2.23a1.51 1.51 0 0 0 .31.2 4.1 4.1 0 0 0 .42.21l.46.25a3.15 3.15 0 0 1 .38.3c.1.1.2.23.26.36s.1.28.1.45a1.17 1.17 0 0 1-.13.57c-.1.15-.2.28-.35.38s-.32.17-.5.2a3.81 3.81 0 0 1-.6.06c-.07 0-.16-.01-.26-.02s-.2-.03-.32-.05-.2-.05-.3-.08a.91.91 0 0 1-.26-.12zm6.18.2h-.52v-.5h-.01c-.2.4-.55.6-1 .6-.77 0-1.15-.46-1.15-1.38V284h.5v1.85c0 .68.26 1.02.78 1.02.25 0 .46-.1.62-.28s.24-.43.24-.73V284h.52v3.23zm1.3-4.05a.31.31 0 0 1-.34-.34c0-.1.03-.18.1-.24s.14-.1.24-.1a.31.31 0 0 1 .34.34.31.31 0 0 1-.1.24c-.07.06-.15.1-.24.1zm.25 4.05h-.52V284h.52v3.23z"/><use xlink:href="#AB" x="12.61"/><use xlink:href="#B" x="20.91" y="233.28"/></g><g class="B"><path d="M29.65 276.04h-1.4l-1.16-1.94c-.1-.18-.2-.33-.3-.46-.1-.13-.2-.23-.3-.3a1.01 1.01 0 0 0-.34-.18c-.13-.04-.26-.06-.4-.06h-.48v2.94h-1.2v-7.23h2.38c.34 0 .65.04.94.12s.54.2.75.37a1.84 1.84 0 0 1 .5.61c.12.24.18.53.18.86 0 .26-.04.5-.1.7-.08.2-.18.4-.32.57a2.07 2.07 0 0 1-.5.43 2.41 2.41 0 0 1-.66.27v.02a1.85 1.85 0 0 1 .34.24l.28.27c.1.1.17.2.26.32l.3.42 1.26 2.04zm-4.4-6.26v2.35h1a1.4 1.4 0 0 0 .51-.09 1.22 1.22 0 0 0 .41-.25c.1-.1.2-.24.27-.4.06-.15.1-.33.1-.52 0-.35-.1-.62-.33-.8s-.53-.3-.94-.3h-1.02z"/><use xlink:href="#H" x="-19.38" y="233.27"/><path d="M40.28 275.63c0 1.9-.95 2.85-2.86 2.85-.67 0-1.26-.1-1.76-.34v-1.07c.56.32 1.1.48 1.6.48 1.23 0 1.84-.6 1.84-1.8v-.56h-.02c-.4.66-.97 1-1.75 1-.63 0-1.14-.23-1.52-.7-.4-.46-.58-1.08-.58-1.85 0-.88.2-1.58.62-2.1.4-.52.98-.78 1.7-.78.68 0 1.2.28 1.52.84h.02v-.72h1.17v4.75zm-1.16-1.96V273c0-.36-.12-.67-.36-.93s-.54-.4-.9-.4c-.44 0-.8.16-1.04.5s-.38.8-.38 1.38c0 .5.12.9.36 1.22.24.3.56.46.96.46a1.24 1.24 0 0 0 .98-.44c.25-.3.38-.66.38-1.12z"/><use xlink:href="#AC"/><path d="M49 276.04h-1.18v-7.65H49v7.65z"/><use xlink:href="#AD"/><use xlink:href="#AE"/><path d="M68.67 276.04h-1.32l-.65-1.84h-2.85l-.63 1.84h-1.3l2.7-7.23h1.35l2.7 7.23zm-2.3-2.82l-1-2.9c-.03-.1-.06-.25-.1-.45h-.02c-.03.2-.06.34-.1.45l-1 2.9h2.2zm6.08-3.88a.99.99 0 0 0-.54-.14c-.57 0-.85.32-.85.96v.7h1.2v.92h-1.2v4.25H69.9v-4.25H69v-.92h.88v-.84c0-.54.18-.97.54-1.3s.8-.47 1.34-.47c.3 0 .52.03.7.1v.98z"/><use xlink:href="#AF"/><path d="M81.33 273.77H77.8c.01.48.16.85.44 1.1.28.26.67.4 1.16.4a2.55 2.55 0 0 0 1.52-.49v.94c-.47.3-1.1.44-1.87.44-.76 0-1.36-.23-1.8-.7s-.65-1.13-.65-1.98c0-.8.24-1.46.7-1.97a2.33 2.33 0 0 1 1.77-.76c.7 0 1.25.23 1.64.68s.58 1.08.58 1.9v.46zm-1.13-.82c0-.42-.1-.75-.3-.98s-.46-.35-.8-.35c-.34 0-.62.12-.86.37-.23.25-.38.57-.43.96h2.4z"/><use xlink:href="#AE" x="26.52"/><path d="M94.3 275.74c-.54.28-1.22.42-2.03.42-1.05 0-1.9-.33-2.52-1s-.95-1.53-.95-2.6c0-1.16.36-2.1 1.07-2.8.7-.7 1.6-1.07 2.7-1.07.7 0 1.28.1 1.74.3v1.2a3.03 3.03 0 0 0-1.6-.43c-.78 0-1.42.25-1.9.75s-.73 1.17-.73 2c0 .8.23 1.43.68 1.9s1.05.7 1.8.7c.68 0 1.28-.16 1.78-.48v1.1zm3.52.42c-.8 0-1.43-.24-1.9-.72s-.7-1.12-.7-1.92c0-.87.25-1.55.74-2.03.5-.5 1.17-.73 2-.73.8 0 1.44.24 1.9.7s.68 1.13.68 1.97c0 .82-.24 1.48-.73 1.98-.5.5-1.15.74-1.97.74zm.05-4.47c-.46 0-.82.16-1.08.48-.27.32-.4.76-.4 1.32 0 .54.13.97.4 1.28s.63.47 1.08.47c.46 0 .82-.15 1.06-.46.25-.3.37-.74.37-1.3s-.12-1-.37-1.32c-.24-.3-.6-.46-1.06-.46z"/><use xlink:href="#AG"/><use xlink:href="#AG" x="9.15"/><path d="M120.6 269.8a.67.67 0 0 1-.49-.19c-.14-.12-.2-.28-.2-.47s.07-.35.2-.48c.14-.13.3-.2.5-.2.2 0 .37.06.5.2a.63.63 0 0 1 .21.48c0 .18-.07.34-.2.47s-.3.2-.5.2zm.58 6.25H120v-5.17h1.17v5.17z"/><use xlink:href="#AF" x="49.42"/><use xlink:href="#AH"/><use xlink:href="#AC" x="93.1"/><use xlink:href="#AI"/><use xlink:href="#AF" x="70.35"/><use xlink:href="#H" x="97.83" y="233.27"/></g><path d="M0 105.52h639v.65H0zm0 149.4h639v.65H0z" fill="#dee2e6"/><g class="B"><use xlink:href="#AJ"/><use xlink:href="#AK"/><use xlink:href="#AJ" x="6.97"/><path d="M539.1 271.94a4.43 4.43 0 0 1-.1 1.01c-.07.3-.17.54-.3.74s-.3.35-.48.46a1.35 1.35 0 0 1-.64.16c-.23 0-.43-.05-.6-.15a1.26 1.26 0 0 1-.45-.44c-.12-.2-.2-.43-.28-.7a4.61 4.61 0 0 1-.09-.96 4.74 4.74 0 0 1 .1-1.05c.07-.3.16-.56.3-.76s.3-.36.48-.46a1.39 1.39 0 0 1 .65-.16c.95-.01 1.43.76 1.43 2.3zm-.53.05c0-1.3-.3-1.93-.92-1.93-.64 0-.97.65-.97 1.96 0 1.22.32 1.83.95 1.83.63.01.94-.62.94-1.86z"/><use xlink:href="#X" x="19.6" y="232.64"/><use xlink:href="#AL"/><use xlink:href="#AM"/><use xlink:href="#AJ" x="27.08"/><use xlink:href="#AJ" x="30.56"/><path d="M560.48 273.5l-.5 1.55h-.37l.37-1.55h.5z"/><use xlink:href="#F" x="471.53" y="228.02"/><use xlink:href="#AK" y="7.76"/><path d="M533.1 279.37c-.1 0-.18-.03-.25-.1s-.1-.15-.1-.25.03-.18.1-.25.15-.1.25-.1.18.03.25.1.1.15.1.25-.04.18-.1.25-.15.1-.25.1zm0 2.67c-.1 0-.18-.03-.25-.1s-.1-.15-.1-.25.03-.18.1-.25a.34.34 0 0 1 .5 0c.07.07.1.15.1.25s-.04.18-.1.25-.15.1-.25.1z"/><use xlink:href="#AN"/><use xlink:href="#a" x="19.59" y="232.64"/><use xlink:href="#AO"/><use xlink:href="#b" x="19.58" y="232.65"/><path d="M548.34 277.45v3h.58v.47h-.58v1.06h-.5v-1.06h-2.13v-.45l.6-.7.58-.77.5-.78c.16-.26.3-.5.4-.75h.55zm-2.06 2.98h1.54v-2.2l-.45.74-.4.6-.36.48-.33.4z"/><use xlink:href="#AJ" x="52.32"/><use xlink:href="#V" x="71.89" y="232.64"/><use xlink:href="#AJ" x="59.27"/><use xlink:href="#V" x="78.84" y="232.64"/><use xlink:href="#X" x="71.9" y="232.64"/><use xlink:href="#AL" x="52.32"/><use xlink:href="#AM" x="52.3"/><use xlink:href="#AJ" x="79.38"/><use xlink:href="#AJ" x="82.87"/><path d="M612.8 273.5l-.5 1.55h-.37l.37-1.55h.5z"/><use xlink:href="#F" x="523.84" y="228.02"/><use xlink:href="#V" x="71.89" y="240.4"/><use xlink:href="#AO" x="43.94"/><use xlink:href="#AN" x="52.3"/><use xlink:href="#a" x="71.89" y="232.64"/><use xlink:href="#AO" x="52.3"/><use xlink:href="#b" x="71.89" y="232.65"/><path d="M600.64 277.45v3h.58v.47h-.58v1.06h-.5v-1.06H598v-.45l.6-.7.58-.77.5-.78c.16-.26.3-.5.4-.75h.55zm-2.05 2.98h1.54v-2.2l-.45.74-.4.6-.36.48-.33.4z"/></g><use xlink:href="#AP" class="E"/><g fill="#fff"><path d="M239.77 273.76h-1.94v1.72h1.8v.52h-1.8v2.2h-.58v-4.97h2.53v.53z"/><use xlink:href="#w" x="1.04" y="231.34"/><use xlink:href="#AQ"/><path d="M246.3 278.2h-.57v-5.26h.57v5.26z"/><use xlink:href="#AR"/><use xlink:href="#AA" x="-1.55" y="231.34"/></g><g class="C"><path d="M10.15 38.98h5.8v.45h-5.8z"/><path d="M9.9 38.73h6.3v.95H9.9z"/><path d="M13.275 36.297v5.8h-.45v-5.8z"/><path d="M12.58 36.04h.95v6.3h-.95zm-2.43 236.13h5.8v.45h-5.8z"/><path d="M9.9 271.92h6.3v.95H9.9z"/><path d="M13.275 269.487v5.8h-.45v-5.8z"/><path d="M12.58 269.23h.95v6.3h-.95z"/></g><g class="B"><path d="M304.1 82h-1.83v5.66h-.74V82h-1.82v-.67h4.4V82zm3.65 3.58h-3.2c.01.5.15.9.4 1.17.26.27.62.4 1.07.4.5 0 .98-.17 1.4-.5v.68c-.4.3-.92.43-1.58.43-.64 0-1.14-.2-1.5-.62-.37-.4-.55-1-.55-1.73 0-.7.2-1.28.6-1.72a1.92 1.92 0 0 1 1.49-.66c.6 0 1.05.2 1.37.57s.5.9.5 1.6v.38zm-.74-.62c0-.42-.1-.74-.3-.98-.2-.23-.47-.35-.83-.35-.34 0-.63.12-.87.37a1.54 1.54 0 0 0-.44.96H307z"/><use xlink:href="#d" y="42.12"/><use xlink:href="#e" y="42.1"/><use xlink:href="#f" y="42.12"/><use xlink:href="#g" y="42.12"/><use xlink:href="#h" y="42.13"/><use xlink:href="#e" x="17.65" y="42.1"/><path d="M337.03 85.58h-3.2c.01.5.15.9.4 1.17.26.27.62.4 1.07.4.5 0 .98-.17 1.4-.5v.68c-.4.3-.92.43-1.58.43-.64 0-1.14-.2-1.5-.62-.37-.4-.55-1-.55-1.73 0-.7.2-1.28.6-1.72a1.92 1.92 0 0 1 1.49-.66c.6 0 1.05.2 1.37.57s.5.9.5 1.6v.38zm-.74-.62c0-.42-.1-.74-.3-.98-.2-.23-.47-.35-.83-.35-.34 0-.63.12-.87.37-.24.24-.4.56-.44.96h2.44z"/><use xlink:href="#j" y="42.12"/><path d="M376.68 87.66h-.74v-6.33h.74v6.33zm9.05 0h-.82l-.67-1.77h-2.68l-.63 1.77h-.83l2.43-6.33h.77l2.43 6.33zM384 85.2l-1-2.7a4.49 4.49 0 0 1-.1-.42h-.02c-.03.18-.06.32-.1.42l-.98 2.7h2.2z"/><use xlink:href="#g" x="63.54" y="42.12"/><use xlink:href="#e" x="78.99" y="42.1"/><use xlink:href="#AS"/><use xlink:href="#l" y="42.12"/><use xlink:href="#m" y="42.12"/><use xlink:href="#e" x="99.74" y="42.1"/><use xlink:href="#h" x="87.34" y="42.13"/><use xlink:href="#AS" x="22.94"/><use xlink:href="#n" y="42.12"/><path d="M457.33 87.66h-.82l-.67-1.77h-2.68l-.63 1.77h-.83l2.43-6.33h.77l2.43 6.33zm-1.74-2.45l-1-2.7a4.49 4.49 0 0 1-.1-.42h-.02c-.03.18-.06.32-.1.42l-.98 2.7h2.2zm6.43 2.45h-.72v-.77h-.02c-.34.58-.85.87-1.55.87-.57 0-1.02-.2-1.36-.6s-.5-.96-.5-1.65c0-.75.2-1.35.57-1.8a1.87 1.87 0 0 1 1.5-.68c.62 0 1.07.24 1.36.73h.02v-2.8h.72v6.7zm-.72-2.05v-.67c0-.37-.12-.67-.36-.93-.24-.25-.55-.38-.92-.38-.44 0-.8.16-1.04.5s-.38.77-.38 1.34c0 .52.12.93.36 1.23s.57.45.98.45a1.24 1.24 0 0 0 .98-.44c.25-.28.38-.64.38-1.1z"/><use xlink:href="#l" x="63.44" y="42.12"/><use xlink:href="#q" y="42.13"/><use xlink:href="#r" y="42.12"/></g><g class="C"><path d="M26.43 90.7h-1.3v4.04h-.52V90.7h-1.3v-.48h3.14v.48z"/><use xlink:href="#B" y="40.8"/><path d="M29.63 94.63v-.56a1.51 1.51 0 0 0 .93.31c.45 0 .68-.15.68-.45a.38.38 0 0 0-.06-.22c-.04-.06-.1-.1-.16-.16s-.14-.1-.23-.12l-.3-.12-.38-.17a.95.95 0 0 1-.27-.2.67.67 0 0 1-.16-.25c-.04-.1-.06-.2-.06-.32 0-.15.04-.3.1-.4s.16-.2.28-.3.25-.14.4-.18a1.76 1.76 0 0 1 .46-.06c.28 0 .53.05.75.15v.52c-.24-.16-.5-.23-.82-.23a1.03 1.03 0 0 0-.26.03.61.61 0 0 0-.2.09c-.06.04-.1.1-.13.14-.03.06-.05.12-.05.18 0 .08.01.15.05.2.03.06.07.1.13.15a1.96 1.96 0 0 0 .21.12c.08.04.18.07.3.12a2.7 2.7 0 0 1 .38.17 1.24 1.24 0 0 1 .29.2c.08.07.14.16.18.25s.06.2.06.34a.82.82 0 0 1-.11.42.78.78 0 0 1-.28.29 1.08 1.08 0 0 1-.41.17c-.15.04-.3.06-.48.06a1.89 1.89 0 0 1-.84-.19z"/><use xlink:href="#D" y="40.8"/><use xlink:href="#E" y="40.8"/><path d="M42.56 94.74h-.52v-.5h-.01c-.2.4-.55.6-1 .6-.77 0-1.15-.46-1.15-1.38V91.5h.5v1.85c0 .68.26 1.02.78 1.02.25 0 .46-.1.62-.28s.24-.43.24-.73V91.5h.52v3.23zm1.3-4.04a.31.31 0 0 1-.34-.34c0-.1.03-.18.1-.24s.14-.1.24-.1a.31.31 0 0 1 .34.34.31.31 0 0 1-.1.24c-.07.06-.15.1-.24.1zm.25 4.05h-.52V91.5h.52v3.23z"/><use xlink:href="#D" x="12.61" y="40.8"/><use xlink:href="#B" x="20.91" y="40.8"/><path d="M53.86 95.77h-.46c-.65-.74-.98-1.66-.98-2.75 0-1.1.33-2.03.98-2.8h.47a4.27 4.27 0 0 0-1 2.8c-.01 1.05.32 1.97.98 2.76zm3.24-3.57a4.72 4.72 0 0 1-.12 1.11 2.29 2.29 0 0 1-.36.82 1.66 1.66 0 0 1-.58.51c-.23.12-.5.17-.78.17-.3 0-.56-.05-.8-.16v-.5a1.62 1.62 0 0 0 .8.21c.2 0 .4-.04.55-.13a1.11 1.11 0 0 0 .41-.37 1.67 1.67 0 0 0 .25-.59 3.24 3.24 0 0 0 .1-.8h-.01c-.2.4-.53.58-1 .58-.2 0-.37-.03-.53-.1s-.3-.16-.42-.3a1.46 1.46 0 0 1-.27-.45c-.07-.17-.1-.36-.1-.57a1.84 1.84 0 0 1 .1-.6c.06-.17.17-.34.3-.48.13-.13.28-.24.46-.3a1.81 1.81 0 0 1 .58-.1c.23 0 .43.05.6.14.18.1.32.23.44.4.12.18.2.4.27.65.08.27.1.56.1.9zm-.56-.46c0-.17-.02-.33-.07-.48a1.16 1.16 0 0 0-.18-.37.85.85 0 0 0-.29-.24c-.12-.06-.23-.08-.36-.08-.12 0-.24.02-.35.07a.95.95 0 0 0-.28.2 1.13 1.13 0 0 0-.19.32 1.29 1.29 0 0 0-.07.4 1.44 1.44 0 0 0 .06.43c.04.13.1.23.18.32a.79.79 0 0 0 .3.2c.12.05.24.07.37.07.12 0 .23-.02.34-.07s.2-.1.28-.18a1.35 1.35 0 0 0 .2-.27.73.73 0 0 0 .08-.33zm1.4 4.03h-.46c.66-.8.98-1.7.98-2.76s-.33-2-1-2.8h.47c.66.77.98 1.7.98 2.8.01 1.1-.32 2-.98 2.75z"/></g><g class="B"><path d="M30.2 83.55h-1.3l-3.46-5.32c-.1-.13-.16-.27-.22-.42h-.03c.03.15.04.5.04 1v4.74h-1.16V76.3h1.4l3.34 5.2.27.44h.02c-.03-.2-.05-.52-.05-.97V76.3h1.16v7.24zm6.03-2.25H32.7c.01.48.16.85.44 1.1.28.26.67.4 1.16.4a2.55 2.55 0 0 0 1.52-.49v.94c-.47.3-1.1.44-1.87.44-.76 0-1.36-.23-1.8-.7s-.65-1.13-.65-1.98c0-.8.24-1.46.7-1.97a2.33 2.33 0 0 1 1.77-.76c.7 0 1.25.23 1.64.68s.58 1.08.58 1.9v.46zm-1.13-.83c0-.42-.1-.75-.3-.98a1 1 0 0 0-.8-.35c-.34 0-.62.12-.86.37-.23.25-.38.57-.43.96h2.4zm9.2-2.07l-1.52 5.17h-1.23l-.94-3.5a2.02 2.02 0 0 1-.07-.45h-.02c-.01.1-.04.26-.1.44l-1.02 3.5h-1.2l-1.52-5.17h1.2l.94 3.72c.03.1.05.26.06.44h.04a2.51 2.51 0 0 1 .08-.45l1.04-3.7h1.1l.93 3.74a3.71 3.71 0 0 1 .07.44h.04a2.18 2.18 0 0 1 .08-.44l.92-3.74h1.1zm7.9 5.15h-4.06v-7.23h3.9v1.02h-2.7v2.05h2.5v1h-2.5v2.14h2.86v1z"/><use xlink:href="#AT"/><path d="M63.83 78.4l-2 5.17h-1.27l-1.9-5.17h1.27l1.15 3.6a3.25 3.25 0 0 1 .16.7h.02a4.29 4.29 0 0 1 .14-.68l1.2-3.63h1.23z"/><use xlink:href="#AI" x="-76.32" y="-192.5"/><path d="M70.3 79.5c-.14-.1-.34-.17-.6-.17-.35 0-.64.16-.87.47s-.35.74-.35 1.28v2.47H67.3v-5.17h1.17v1.06h.02c.1-.36.3-.65.53-.85a1.19 1.19 0 0 1 .8-.3c.2 0 .37.03.48.1v1.12zm3.04 4.18c-.8 0-1.43-.24-1.9-.72s-.7-1.12-.7-1.92c0-.87.25-1.55.74-2.03.5-.5 1.17-.73 2-.73.8 0 1.44.24 1.9.7s.68 1.13.68 1.97c0 .82-.24 1.48-.73 1.98-.5.5-1.15.74-1.97.74zm.06-4.48c-.46 0-.82.16-1.08.48-.27.32-.4.76-.4 1.32 0 .54.13.97.4 1.28s.63.47 1.08.47c.46 0 .82-.15 1.06-.46.25-.3.37-.74.37-1.3s-.12-1-.37-1.32c-.25-.3-.6-.46-1.06-.46z"/><use xlink:href="#AT" x="23.87"/><path d="M90.98 83.55H89.8v-2.82c0-.54-.08-.93-.23-1.18s-.4-.36-.77-.36c-.3 0-.57.15-.78.46s-.32.67-.32 1.1v2.8h-1.18v-2.9c0-.96-.34-1.44-1.02-1.44-.32 0-.58.14-.78.43s-.3.66-.3 1.13v2.8h-1.17v-5.17h1.17v.82h.02a1.78 1.78 0 0 1 1.63-.94 1.53 1.53 0 0 1 .94.3c.27.2.45.46.55.77.38-.7.96-1.07 1.72-1.07 1.14 0 1.7.7 1.7 2.1v3.2z"/><use xlink:href="#AU"/><path d="M102.5 83.55h-1.17v-2.9c0-.97-.34-1.45-1.02-1.45-.36 0-.65.13-.88.4s-.35.6-.35 1v2.95H97.9v-5.17h1.18v.86h.02c.4-.65.94-.98 1.67-.98.56 0 1 .18 1.3.55s.44.9.44 1.58v3.16z"/><use xlink:href="#AV"/><use xlink:href="#AH" x="-18.77" y="-192.48"/><path d="M120.63 83.55h-1.17v-.82h-.02c-.34.63-.87.94-1.58.94-1.22 0-1.83-.73-1.83-2.2v-3.1h1.17v2.97c0 .93.36 1.4 1.08 1.4.35 0 .63-.13.86-.38.22-.26.33-.6.33-1V78.4h1.17v5.16z"/><use xlink:href="#AI" x="-18.78" y="-192.5"/><use xlink:href="#AV" x="20.92"/><use xlink:href="#AU" x="36.12"/></g><use xlink:href="#v" y="40.8" class="D"/><g fill="#fff"><path d="M236.28 85.78v1.88h-.58V82.7h1.37c.53 0 .94.13 1.24.4.3.26.44.62.44 1.1s-.16.86-.5 1.16-.76.45-1.32.45h-.66zm0-2.57v2.04h.6c.4 0 .7-.1.92-.28.2-.18.32-.44.32-.78 0-.66-.4-.98-1.17-.98h-.68z"/><use xlink:href="#w" y="40.8"/><use xlink:href="#x" y="40.8"/><use xlink:href="#y" y="40.8"/><use xlink:href="#AR" x="1.55" y="-190.55"/><use xlink:href="#AA" y="40.8"/></g><g class="C"><path d="M10.15 79.68h5.8v.45h-5.8z"/><path d="M9.9 79.43h6.3v.95H9.9z"/><path d="M13.28 77.003v5.8h-.45v-5.8z"/><path d="M12.58 76.75h.95v6.3h-.95z"/></g><g class="D"><path d="M27.26 139.7h-.6l-.48-1.27h-1.92l-.45 1.27h-.6l1.73-4.52h.55l1.75 4.52zm-1.24-1.75l-.7-1.93a1.68 1.68 0 0 1-.07-.3h-.01c-.02.13-.05.23-.07.3l-.7 1.93h1.56zm4.58 1.75h-.52v-.55h-.01c-.24.42-.6.62-1.1.62-.4 0-.73-.14-.97-.43s-.36-.68-.36-1.18c0-.53.13-.96.4-1.28s.63-.48 1.08-.48c.44 0 .77.17.97.52h.01v-2h.52v4.78zm-.52-1.46v-.48a.93.93 0 0 0-.26-.66c-.17-.18-.4-.27-.66-.27-.32 0-.56.12-.74.35s-.27.55-.27.96c0 .37.1.67.26.88.17.22.4.32.7.32a.87.87 0 0 0 .7-.31c.2-.2.27-.48.27-.8zm5.05 1.46h-.53v-2.06h-2.34v2.06h-.53v-4.52h.53v1.98h2.34v-1.98h.53v4.52zm2.47.07c-.48 0-.86-.15-1.14-.45-.3-.3-.43-.7-.43-1.2 0-.54.15-.97.44-1.27.3-.3.7-.46 1.2-.46.48 0 .86.15 1.13.44.27.3.4.7.4 1.23s-.15.93-.44 1.24c-.3.32-.68.47-1.17.47zm.04-2.94c-.33 0-.6.1-.8.34-.2.23-.3.54-.3.93 0 .38.1.68.3.9s.46.33.8.33.6-.1.77-.32c.18-.22.27-.52.27-.92s-.1-.7-.27-.93-.43-.34-.77-.34zm4.6 2.72c-.25.15-.54.22-.88.22-.46 0-.83-.15-1.12-.45-.28-.3-.42-.7-.42-1.17 0-.53.15-.96.46-1.28.3-.32.7-.48 1.22-.48.28 0 .53.05.75.16v.53a1.31 1.31 0 0 0-.77-.25 1.05 1.05 0 0 0-.81.35c-.2.24-.32.55-.32.93s.1.68.3.9.46.33.8.33a1.25 1.25 0 0 0 .79-.28v.5zm5.3-3.9h-1.3v4.04h-.53v-4.04h-1.3v-.48h3.14v.48z"/><use xlink:href="#B" x="21.09" y="85.74"/><path d="M50.7 139.58v-.56a1.51 1.51 0 0 0 .93.31c.45 0 .68-.15.68-.45a.38.38 0 0 0-.06-.22c-.04-.06-.1-.1-.16-.16s-.14-.1-.23-.12l-.3-.12-.38-.17a.95.95 0 0 1-.27-.2.67.67 0 0 1-.16-.25c-.04-.1-.06-.2-.06-.32 0-.15.04-.3.1-.4s.16-.2.28-.3.25-.14.4-.18a1.76 1.76 0 0 1 .46-.06c.28 0 .53.05.75.15v.52c-.24-.16-.5-.23-.82-.23a1.03 1.03 0 0 0-.26.03.61.61 0 0 0-.2.09c-.06.04-.1.1-.13.14-.03.06-.05.12-.05.18 0 .08.01.15.05.2.03.06.07.1.13.15a1.96 1.96 0 0 0 .21.12c.08.04.18.07.3.12a2.7 2.7 0 0 1 .38.17 1.24 1.24 0 0 1 .29.2c.08.07.14.16.18.25s.06.2.06.34a.82.82 0 0 1-.11.42.78.78 0 0 1-.28.29 1.08 1.08 0 0 1-.41.17c-.15.04-.3.06-.48.06a1.82 1.82 0 0 1-.84-.19z"/><use xlink:href="#D" x="21.09" y="85.76"/></g><g class="B"><path d="M28.07 128.5h-4v-7.23h1.2v6.22h2.8v1z"/><use xlink:href="#AI" x="-111.95" y="-147.54"/><path d="M36.28 128.5H35.1v-2.9c0-.97-.34-1.45-1.02-1.45-.36 0-.65.13-.88.4s-.35.6-.35 1v2.95h-1.18v-5.17h1.18v.86h.02c.4-.65.94-.98 1.67-.98.56 0 1 .18 1.3.55s.44.9.44 1.58v3.16zm6.12 0h-1.5l-2-2.48h-.02v2.48H37.7v-7.65h1.18v4.85h.02l1.9-2.37h1.4l-2.13 2.5 2.3 2.68z"/><use xlink:href="#I" x="-21.59" y="85.75"/><path d="M55.3 128.27c-.4.24-.9.36-1.47.36-.77 0-1.4-.24-1.86-.72s-.7-1.1-.7-1.86c0-.85.25-1.53.76-2.05s1.18-.77 2.03-.77c.47 0 .9.08 1.25.25v1.1a1.87 1.87 0 0 0-1.15-.4c-.5 0-.9.17-1.22.5s-.47.77-.47 1.3c0 .53.15.96.45 1.27s.7.46 1.2.46c.42 0 .82-.15 1.2-.45v1z"/><use xlink:href="#AD" x="5.92" y="-147.54"/><use xlink:href="#AT" x="8.5" y="44.95"/></g><path d="M36.5 164.86v-.77c.07.06.15.12.25.17s.2.1.3.13l.32.08a1.69 1.69 0 0 0 .3.03c.32 0 .55-.05.7-.16s.23-.26.23-.46a.51.51 0 0 0-.08-.28c-.05-.08-.12-.15-.22-.22s-.2-.13-.33-.2l-.4-.2-.43-.25c-.13-.08-.25-.18-.35-.28a1.18 1.18 0 0 1-.23-.35c-.06-.13-.08-.28-.08-.45a1.07 1.07 0 0 1 .14-.55 1.18 1.18 0 0 1 .38-.39 1.81 1.81 0 0 1 .53-.23 2.46 2.46 0 0 1 .6-.07c.47 0 .82.05 1.03.16v.74c-.26-.18-.6-.28-1-.28a1.84 1.84 0 0 0-.33.03 1.32 1.32 0 0 0-.3.1c-.1.05-.16.1-.2.2s-.08.17-.08.27a.5.5 0 0 0 .06.26c.04.06.1.14.18.2s.18.12.3.18l.4.2c.16.08.3.17.45.26s.26.2.37.3a1.23 1.23 0 0 1 .25.36 1.11 1.11 0 0 1 .09.46c0 .23-.05.42-.14.58a1.04 1.04 0 0 1-.37.38 1.6 1.6 0 0 1-.54.21 3.32 3.32 0 0 1-.65.07c-.08 0-.17-.01-.28-.02s-.22-.03-.34-.05-.22-.05-.33-.08c-.08 0-.17-.04-.23-.08zm7.28-3.7h-1.3v3.88h-.75v-3.88h-1.3v-.64h3.35v.64zm3.85 3.9H45.1v-4.52h2.44v.64h-1.7v1.28h1.55v.63h-1.55v1.34h1.8v.63zm2.2-1.64v1.64h-.75v-4.52h1.37c.52 0 .92.12 1.2.36s.43.58.43 1.02a1.41 1.41 0 0 1-.45 1.08c-.3.28-.7.42-1.2.42h-.6zm0-2.26v1.65h.5c.32 0 .57-.07.73-.22.17-.15.25-.36.25-.63 0-.53-.3-.8-.93-.8h-.54zm3.48 3.72v-.77c.07.06.15.12.25.17s.2.1.3.13l.32.08a1.69 1.69 0 0 0 .3.03c.32 0 .55-.05.7-.16s.23-.26.23-.46a.51.51 0 0 0-.08-.28c-.05-.08-.12-.15-.22-.22s-.2-.13-.33-.2l-.4-.2-.43-.25c-.13-.08-.25-.18-.35-.28a1.18 1.18 0 0 1-.23-.35c-.06-.13-.08-.28-.08-.45a1.07 1.07 0 0 1 .14-.55 1.18 1.18 0 0 1 .38-.39 1.81 1.81 0 0 1 .53-.23 2.46 2.46 0 0 1 .6-.07c.47 0 .82.05 1.03.16v.74c-.26-.18-.6-.28-1-.28a1.84 1.84 0 0 0-.33.03 1.32 1.32 0 0 0-.3.1c-.1.05-.16.1-.2.2s-.08.17-.08.27a.5.5 0 0 0 .06.26c.04.06.1.14.18.2s.18.12.3.18l.4.2c.16.08.3.17.45.26s.26.2.37.3a1.23 1.23 0 0 1 .25.36 1.11 1.11 0 0 1 .09.46c0 .23-.05.42-.14.58a1.04 1.04 0 0 1-.37.38 1.6 1.6 0 0 1-.54.21 3.32 3.32 0 0 1-.65.07c-.08 0-.17-.01-.28-.02s-.22-.03-.34-.05-.22-.05-.33-.08c-.1 0-.17-.04-.23-.08z" opacity=".5" fill="#5a6169"/><g class="B"><path d="M55.55 179.53h-.84l-3.03-4.7a1.85 1.85 0 0 1-.19-.37h-.02c.02.13.03.4.03.8v4.25h-.7v-5.88h.9l2.94 4.6.24.4h.02c-.03-.17-.04-.46-.04-.87v-4.14h.7v5.9z"/><use xlink:href="#AW"/><path d="M64.57 175.33l-1.67 4.2h-.66l-1.6-4.2h.74l1.07 3.05c.08.22.13.42.15.6h.02a2.99 2.99 0 0 1 .13-.57l1.12-3.07h.7z"/><use xlink:href="#AX"/><path d="M70.9 179.2c0 1.54-.74 2.3-2.2 2.3-.52 0-.97-.1-1.36-.3v-.67c.47.26.92.4 1.35.4 1.03 0 1.55-.55 1.55-1.65v-.46h-.02c-.32.54-.8.8-1.44.8a1.62 1.62 0 0 1-1.26-.56c-.32-.36-.48-.87-.48-1.5 0-.7.17-1.28.5-1.7s.8-.63 1.4-.63c.57 0 .98.23 1.26.68h.02v-.58h.67v3.87zm-.67-1.57V177a1.2 1.2 0 0 0-.34-.86 1.12 1.12 0 0 0-.84-.36c-.42 0-.74.15-.98.45s-.35.73-.35 1.27c0 .47.1.84.34 1.12s.52.42.9.42a1.16 1.16 0 0 0 .92-.4c.23-.26.35-.6.35-1.02zm5.05 1.9h-.68v-.66h-.02a1.4 1.4 0 0 1-1.29.75c-.42 0-.75-.1-.98-.33-.24-.22-.35-.5-.35-.88 0-.78.46-1.24 1.4-1.37l1.26-.18c0-.7-.3-1.07-.86-1.07a2.04 2.04 0 0 0-1.37.52v-.7c.4-.26.9-.4 1.43-.4 1 0 1.48.52 1.48 1.57v2.73zm-.68-2.12l-1 .14c-.3.04-.55.12-.7.23s-.24.3-.24.6a.63.63 0 0 0 .22.5.85.85 0 0 0 .58.2 1.11 1.11 0 0 0 .83-.35c.22-.23.33-.53.33-.9v-.4z"/><use xlink:href="#AY"/><path d="M82.76 177.6H79.8c.01.47.14.83.38 1.08s.57.38 1 .38c.47 0 .9-.16 1.3-.47v.63c-.37.27-.86.4-1.46.4-.6 0-1.06-.2-1.4-.57s-.5-.92-.5-1.6c0-.65.2-1.2.56-1.6s.83-.62 1.38-.62.97.18 1.28.53c.3.36.45.85.45 1.48v.37zm-.7-.57c0-.4-.1-.7-.28-.9s-.44-.32-.77-.32c-.32 0-.6.1-.8.34a1.54 1.54 0 0 0-.41.89h2.27z"/><use xlink:href="#AY" x="9.53"/><use xlink:href="#AZ"/><use xlink:href="#Aa"/><use xlink:href="#Aa" x="6.07"/><use xlink:href="#Aa" x="12.13"/><path d="M114.58 179.62a.43.43 0 0 1-.32-.14c-.1-.1-.13-.2-.13-.32a.46.46 0 0 1 .13-.33c.1-.1.2-.14.32-.14.13 0 .24.05.33.14s.13.2.13.33-.04.23-.13.32a.43.43 0 0 1-.33.14z"/><use xlink:href="#Ab"/><path d="M123.62 175.33l-1.4 2.12 1.38 2.07h-.78l-.82-1.36-.18-.32h-.02c-.01.02-.08.13-.2.32l-.84 1.36H120l1.43-2.06-1.37-2.14h.78l.8 1.44.18.33h.02l1.05-1.76h.73z"/><use xlink:href="#AW" x="67.4"/><use xlink:href="#Ac"/><path d="M136.6 178.92h-.02v2.54h-.67v-6.13h.67v.74h.02a1.58 1.58 0 0 1 1.45-.84c.54 0 .96.2 1.27.56.3.38.46.88.46 1.5 0 .7-.17 1.26-.5 1.7-.34.42-.8.63-1.4.63-.56.01-.98-.23-1.27-.7zm-.02-1.7v.6c0 .35.1.64.34.88.22.24.5.36.86.36a1.13 1.13 0 0 0 .96-.47c.23-.3.35-.74.35-1.3 0-.47-.1-.83-.32-1.1s-.5-.4-.88-.4c-.4 0-.7.14-.94.4-.25.28-.37.62-.37 1.03zm4.94 2.3h-.67v-6.2h.67v6.2z"/><use xlink:href="#Ab" x="26.71"/><path d="M147.5 179.62a.43.43 0 0 1-.32-.14c-.1-.1-.13-.2-.13-.32a.46.46 0 0 1 .13-.33c.1-.1.2-.14.32-.14.13 0 .24.05.33.14s.13.2.13.33-.04.23-.13.32c-.1.1-.2.14-.33.14z"/><use xlink:href="#Ad"/><use xlink:href="#Ae"/><use xlink:href="#Ac" x="29.21"/></g><g class="D"><use xlink:href="#Af"/><use xlink:href="#Ag"/><use xlink:href="#Ah"/><use xlink:href="#Ah" x="3.06"/><use xlink:href="#Ai"/><use xlink:href="#Aj"/><use xlink:href="#Af" y="14.37"/><use xlink:href="#Ag" y="14.37"/><use xlink:href="#Ak"/><use xlink:href="#Ak" x="3.06"/><use xlink:href="#Ai" y="14.39"/><use xlink:href="#Aj" y="14.37"/><use xlink:href="#Af" y="29.21"/><use xlink:href="#Ag" y="29.21"/><use xlink:href="#Ak" y="14.83"/><use xlink:href="#Ak" x="3.06" y="14.83"/><path d="M256 207.18h-2.42c.01.33.1.58.3.76s.46.27.8.27c.38 0 .73-.1 1.04-.34v.65c-.32.2-.75.3-1.28.3-.52 0-.93-.16-1.23-.48s-.45-.78-.45-1.36c0-.55.16-1 .5-1.35s.73-.52 1.22-.52.86.16 1.13.47.4.75.4 1.3v.3zm-.78-.56c0-.3-.07-.5-.2-.67s-.32-.24-.56-.24a.78.78 0 0 0-.59.25c-.16.17-.26.4-.3.66h1.65z"/><use xlink:href="#Aj" y="29.21"/><use xlink:href="#Af" y="44.04"/><path d="M245.9 223.57h-.78V223h-.01c-.25.43-.6.64-1.08.64-.35 0-.62-.1-.82-.28s-.3-.44-.3-.75c0-.67.4-1.06 1.16-1.17l1.05-.15c0-.5-.24-.76-.72-.76-.42 0-.8.15-1.14.44v-.7c.37-.22.8-.33 1.3-.33.9 0 1.35.44 1.35 1.33v2.3zm-.78-1.74l-.75.1c-.23.03-.4.1-.52.17-.12.08-.17.23-.17.43a.47.47 0 0 0 .16.37c.1.1.25.14.43.14a.8.8 0 0 0 .61-.26c.16-.17.24-.4.24-.65v-.3z"/><use xlink:href="#Ah" y="44.04"/><use xlink:href="#Ah" x="3.06" y="44.04"/><use xlink:href="#Ai" y="44.03"/><use xlink:href="#Al"/></g><g class="E"><path d="M245.03 234.12h-1.86v1.5h1.7v.7h-1.7v2.08h-.83v-4.97h2.68v.7z"/><use xlink:href="#Ag" x="2.4" y="58.87"/><path d="M249.7 234.1c-.13 0-.25-.04-.34-.13s-.14-.2-.14-.33.05-.24.14-.33.2-.13.34-.13a.49.49 0 0 1 .35.13.43.43 0 0 1 .14.33.43.43 0 0 1-.14.32c-.1.1-.2.14-.35.14zm.4 4.3h-.8v-3.55h.8v3.55zm1.86 0h-.8v-5.26h.8v5.26z"/><use xlink:href="#Ai" y="58.86"/><use xlink:href="#Al" y="14.83"/></g><g class="B"><use xlink:href="#Am"/><path d="M56.6 193.9h-.67v-6.2h.67v6.2z"/><use xlink:href="#AX" x="-7.34" y="14.38"/><use xlink:href="#Ad" x="-89.1" y="14.38"/><use xlink:href="#An"/><path d="M73.48 193.9h-3.05v-5.88h.7v5.26h2.36v.62zm2.56.1c-.62 0-1.12-.2-1.5-.6s-.55-.9-.55-1.56c0-.7.2-1.26.58-1.65.38-.4.9-.6 1.56-.6.63 0 1.1.2 1.47.58.35.4.53.92.53 1.6 0 .67-.2 1.2-.57 1.6s-.9.6-1.53.6zm.05-3.83c-.43 0-.77.15-1.03.44-.25.3-.38.7-.38 1.22 0 .5.13.9.38 1.18s.6.43 1.02.43.77-.14 1-.42.35-.68.35-1.2-.12-.93-.35-1.2c-.22-.3-.55-.44-1-.44zm6.7 3.4c0 1.54-.74 2.3-2.2 2.3-.52 0-.97-.1-1.36-.3v-.67c.47.26.92.4 1.35.4 1.03 0 1.55-.55 1.55-1.65v-.46h-.02c-.32.54-.8.8-1.44.8a1.62 1.62 0 0 1-1.26-.56c-.32-.36-.48-.87-.48-1.5 0-.7.17-1.28.5-1.7s.8-.63 1.4-.63c.57 0 .98.23 1.26.68h.02v-.58h.67v3.87zm-.67-1.56v-.62a1.2 1.2 0 0 0-.34-.86 1.12 1.12 0 0 0-.84-.36c-.42 0-.74.15-.98.45s-.35.73-.35 1.27c0 .47.1.84.34 1.12s.52.42.9.42a1.16 1.16 0 0 0 .92-.4c.23-.26.35-.6.35-1.02z"/><use xlink:href="#Ao"/><path d="M89.67 193.9H89v-2.4c0-.9-.33-1.34-.98-1.34-.34 0-.6.13-.83.38s-.33.57-.33.96v2.4h-.67v-4.2h.67v.7h.02c.32-.53.78-.8 1.38-.8.46 0 .8.15 1.05.44.24.3.37.72.37 1.3v2.56zm4.33 0h-.7v-5.88h.7v5.88z"/><use xlink:href="#Ad" x="-53.62" y="14.38"/><use xlink:href="#Ae" x="-53.62" y="14.37"/><use xlink:href="#Ap"/><use xlink:href="#Am" y="14.83"/><path d="M56.6 208.74h-.67v-6.2h.67v6.2z"/><use xlink:href="#AX" x="-7.34" y="29.21"/><use xlink:href="#Ad" x="-89.1" y="29.21"/><use xlink:href="#An" y="14.84"/><use xlink:href="#Ae" x="-82.62" y="29.21"/><use xlink:href="#Ap" x="-29.01" y="14.84"/><path d="M85.45 208.74H82.4v-5.88h.7v5.26h2.36v.62z"/><use xlink:href="#Ae" x="-66.72" y="29.21"/><path d="M94.76 208.4c0 1.54-.74 2.3-2.2 2.3-.52 0-.97-.1-1.36-.3v-.67c.47.26.92.4 1.35.4 1.03 0 1.55-.55 1.55-1.65v-.46h-.02c-.32.54-.8.8-1.44.8-.52 0-.94-.2-1.26-.56s-.48-.87-.48-1.5c0-.7.17-1.28.5-1.7s.8-.63 1.4-.63c.57 0 .98.23 1.26.68h.02v-.58h.67v3.87zm-.67-1.57v-.62a1.2 1.2 0 0 0-.34-.86 1.12 1.12 0 0 0-.84-.36c-.42 0-.74.15-.98.45s-.35.73-.35 1.27c0 .47.1.84.34 1.12s.52.42.9.42a1.16 1.16 0 0 0 .92-.4c.23-.25.35-.6.35-1.02z"/><use xlink:href="#Ao" x="11.97" y="14.83"/><use xlink:href="#Ap" x="-6.11" y="14.84"/><path d="M105.02 208.5v-.8c.1.08.2.16.33.22l.4.17a2.23 2.23 0 0 0 .43.1l.4.04c.42 0 .74-.08.95-.24s.3-.38.3-.68c0-.16-.04-.3-.1-.4-.07-.12-.17-.23-.3-.32a2.57 2.57 0 0 0-.44-.28l-.54-.28a5.03 5.03 0 0 1-.57-.32c-.18-.1-.33-.22-.46-.35s-.23-.27-.3-.44a1.29 1.29 0 0 1-.11-.57c0-.27.06-.5.18-.7a1.54 1.54 0 0 1 .46-.49 2.26 2.26 0 0 1 .65-.29 3.08 3.08 0 0 1 .75-.09c.58 0 1 .07 1.27.2v.77c-.35-.24-.8-.36-1.34-.36-.15 0-.3.02-.45.05s-.28.08-.4.15-.2.16-.3.27a.76.76 0 0 0-.11.41c0 .15.03.28.08.4s.14.2.25.3a2.13 2.13 0 0 0 .4.26l.54.28a5.76 5.76 0 0 1 .6.33c.2.1.35.24.5.38a1.89 1.89 0 0 1 .34.46 1.34 1.34 0 0 1 .13.58c0 .3-.06.53-.17.74-.1.2-.27.36-.46.5a1.75 1.75 0 0 1-.67.27c-.25.06-.52.08-.8.08-.1 0-.2-.01-.34-.02s-.28-.04-.42-.07-.28-.06-.4-.1-.24-.06-.32-.12z"/><use xlink:href="#AX" x="44.36" y="29.21"/><path d="M117.66 208.74H117v-2.4c0-.46-.07-.8-.22-1-.14-.2-.38-.3-.72-.3-.3 0-.53.13-.73.4a1.53 1.53 0 0 0-.3.94v2.4h-.67v-2.5c0-.83-.32-1.24-.96-1.24a.88.88 0 0 0-.73.37c-.2.25-.3.57-.3.97v2.4h-.67v-4.2h.67v.66h.02c.3-.5.73-.76 1.3-.76.3 0 .54.08.75.24a1.23 1.23 0 0 1 .44.63 1.49 1.49 0 0 1 1.4-.87c.92 0 1.4.57 1.4 1.7v2.6zm1.96-.6h-.02v2.54h-.67v-6.13h.67v.74h.02a1.58 1.58 0 0 1 1.45-.84c.54 0 .96.2 1.27.56.3.38.46.88.46 1.5 0 .7-.17 1.26-.5 1.7-.34.42-.8.63-1.4.63-.56 0-.98-.23-1.27-.7zm-.02-1.7v.6c0 .35.1.64.34.88.22.24.5.36.86.36a1.13 1.13 0 0 0 .96-.47c.23-.3.35-.74.35-1.3 0-.47-.1-.83-.32-1.1s-.5-.4-.88-.4c-.4 0-.7.14-.94.4-.25.28-.37.62-.37 1.03zm4.94 2.3h-.67v-6.2h.67v6.2zm4.7-4.2l-1.93 4.87c-.34.87-.83 1.3-1.45 1.3a1.84 1.84 0 0 1-.44-.05v-.6c.14.05.28.07.4.07.34 0 .6-.2.76-.6l.34-.8-1.64-4.2h.75l1.13 3.23.1.32h.02c.01-.07.04-.17.08-.3l1.2-3.24h.7zm3.8 4.2h-.7v-5.88h.7v5.88z"/><use xlink:href="#Ad" x="-14.59" y="29.21"/><use xlink:href="#AZ" x="49.45" y="29.21"/><use xlink:href="#Ap" x="39.03" y="14.84"/><path d="M53.93 223.57H50.8v-5.88h2.98v.62h-2.3v1.96h2.12v.62h-2.1v2.06h2.43v.62z"/><use xlink:href="#Ap" x="-49.3" y="29.67"/><use xlink:href="#Aq"/><use xlink:href="#Ab" x="-53.6" y="44.04"/><use xlink:href="#Ar"/><path d="M75.57 223.57h-.67v-.66h-.02a1.37 1.37 0 0 1-1.29.76c-1 0-1.5-.6-1.5-1.8v-2.5h.67v2.4c0 .9.34 1.33 1.02 1.33.33 0 .6-.12.8-.36s.32-.56.32-.95v-2.42h.67v4.2zm1.1-.15v-.72a1.99 1.99 0 0 0 1.2.4c.6 0 .9-.2.9-.6a.54.54 0 0 0-.08-.28.7.7 0 0 0-.21-.21c-.1-.06-.2-.1-.3-.16a5.04 5.04 0 0 0-.38-.15 4.68 4.68 0 0 1-.49-.22c-.14-.07-.26-.16-.35-.25a.85.85 0 0 1-.21-.32c-.05-.12-.07-.26-.07-.42a.98.98 0 0 1 .13-.52c.1-.15.2-.28.36-.38s.32-.18.5-.23a2.35 2.35 0 0 1 .6-.08 2.38 2.38 0 0 1 .98.19v.68c-.3-.2-.66-.3-1.07-.3-.13 0-.24.01-.34.04s-.2.07-.26.12a.52.52 0 0 0-.17.19c-.04.08-.06.15-.06.24a.54.54 0 0 0 .06.27c.04.07.1.14.17.2a1.47 1.47 0 0 0 .28.16l.37.15a3.39 3.39 0 0 1 .5.22c.15.08.27.16.38.25a.88.88 0 0 1 .24.33c.06.12.08.27.08.44 0 .2-.05.4-.14.54a1.12 1.12 0 0 1-.37.38c-.15.1-.33.18-.53.23a2.59 2.59 0 0 1-.63.07c-.4-.03-.78-.1-1.1-.28zm7.2-1.78H80.9c.01.47.14.83.38 1.08s.57.38 1 .38c.47 0 .9-.16 1.3-.47v.63c-.37.27-.86.4-1.46.4s-1.06-.2-1.4-.57-.5-.92-.5-1.6c0-.65.2-1.2.56-1.6s.83-.62 1.38-.62.97.18 1.28.53c.3.36.45.85.45 1.48v.37zm-.7-.57c0-.4-.1-.7-.28-.9s-.44-.32-.77-.32c-.32 0-.6.1-.8.34a1.54 1.54 0 0 0-.41.89h2.27z"/><use xlink:href="#Ar" x="17.93"/><use xlink:href="#Ap" x="-16.47" y="29.67"/><use xlink:href="#AW" x="35.55" y="44.04"/><path d="M102.78 223.57h-.67v-2.4c0-.46-.07-.8-.22-1-.14-.2-.38-.3-.72-.3-.3 0-.53.13-.73.4s-.3.58-.3.94v2.4h-.67v-2.5c0-.83-.32-1.24-.96-1.24a.88.88 0 0 0-.73.37c-.2.25-.3.57-.3.97v2.4h-.67v-4.2h.67v.66h.02c.3-.5.73-.76 1.3-.76.3 0 .54.08.75.24a1.23 1.23 0 0 1 .44.63c.3-.58.78-.87 1.4-.87.92 0 1.4.57 1.4 1.7v2.6z"/><use xlink:href="#Ab" x="-12.12" y="44.04"/><path d="M53.93 238.4H50.8v-5.88h2.98v.62h-2.3v1.96h2.12v.62h-2.1v2.06h2.43v.62zm4.52 0h-.67V236c0-.9-.33-1.34-.98-1.34-.34 0-.6.13-.83.38s-.33.57-.33.96v2.4h-.67v-4.2h.67v.7h.02c.32-.53.78-.8 1.38-.8.46 0 .8.15 1.05.44.24.3.37.72.37 1.3v2.56z"/><use xlink:href="#Aq" y="14.82"/><use xlink:href="#Ab" x="-53.6" y="58.86"/><use xlink:href="#Ar" y="14.82"/><path d="M72.86 237.78h-.02v2.54h-.67v-6.13h.67v.74h.02a1.58 1.58 0 0 1 1.45-.84c.54 0 .96.2 1.27.56.3.38.46.88.46 1.5 0 .7-.17 1.26-.5 1.7-.34.42-.8.63-1.4.63-.55.01-.97-.23-1.27-.7zm-.01-1.7v.6c0 .35.1.64.34.88.22.24.5.36.86.36a1.13 1.13 0 0 0 .96-.47c.23-.3.35-.74.35-1.3 0-.47-.1-.83-.32-1.1s-.5-.4-.88-.4c-.4 0-.7.14-.94.4-.25.28-.37.62-.37 1.03z"/><use xlink:href="#AW" x="20.1" y="58.87"/><path d="M81.13 238.24v-.72a1.99 1.99 0 0 0 1.2.4c.6 0 .9-.2.9-.6a.54.54 0 0 0-.08-.28.7.7 0 0 0-.21-.21c-.1-.06-.2-.1-.3-.16a5.04 5.04 0 0 0-.38-.15c-.2-.07-.35-.15-.5-.22a1.21 1.21 0 0 1-.35-.25.85.85 0 0 1-.21-.32c-.05-.12-.07-.26-.07-.42a.98.98 0 0 1 .13-.52c.1-.15.2-.28.36-.38s.32-.18.5-.23a2.35 2.35 0 0 1 .6-.08 2.38 2.38 0 0 1 .98.19v.68c-.3-.2-.66-.3-1.07-.3-.13 0-.24.01-.34.04s-.2.07-.26.12a.52.52 0 0 0-.17.19c-.04.08-.06.15-.06.24a.54.54 0 0 0 .06.27c.04.07.1.14.17.2a1.47 1.47 0 0 0 .28.16l.37.15a3.39 3.39 0 0 1 .5.22c.15.08.27.16.38.25a.88.88 0 0 1 .24.33c.06.12.08.27.08.44 0 .2-.05.4-.14.54a1.12 1.12 0 0 1-.37.38c-.15.1-.33.18-.53.23a2.59 2.59 0 0 1-.63.07c-.4-.03-.8-.1-1.1-.28zm3.57 0v-.72a1.99 1.99 0 0 0 1.2.4c.6 0 .9-.2.9-.6a.54.54 0 0 0-.08-.28.7.7 0 0 0-.21-.21c-.1-.06-.2-.1-.3-.16a5.04 5.04 0 0 0-.38-.15c-.2-.07-.35-.15-.5-.22a1.21 1.21 0 0 1-.35-.25.85.85 0 0 1-.21-.32c-.05-.12-.07-.26-.07-.42a.98.98 0 0 1 .13-.52c.1-.15.2-.28.36-.38s.32-.18.5-.23a2.35 2.35 0 0 1 .6-.08 2.38 2.38 0 0 1 .98.19v.68c-.3-.2-.66-.3-1.07-.3-.13 0-.24.01-.34.04s-.2.07-.26.12a.52.52 0 0 0-.17.19c-.04.08-.06.15-.06.24a.54.54 0 0 0 .06.27c.04.07.1.14.17.2a1.47 1.47 0 0 0 .28.16l.37.15a3.39 3.39 0 0 1 .5.22c.15.08.27.16.38.25a.88.88 0 0 1 .24.33c.06.12.08.27.08.44 0 .2-.05.4-.14.54a1.12 1.12 0 0 1-.37.38c-.15.1-.33.18-.53.23a2.59 2.59 0 0 1-.63.07c-.4-.03-.78-.1-1.1-.28z"/><use xlink:href="#Aa" x="-7.63" y="58.87"/><path d="M96.33 238.5c-.62 0-1.12-.2-1.5-.6s-.56-.9-.56-1.56c0-.7.2-1.26.58-1.65.38-.4.9-.6 1.56-.6.63 0 1.1.2 1.47.58.35.4.53.92.53 1.6 0 .67-.2 1.2-.57 1.6s-.9.6-1.52.6zm.05-3.83c-.43 0-.77.15-1.03.44-.25.3-.38.7-.38 1.22 0 .5.13.9.38 1.18s.6.43 1.02.43.77-.14 1-.42.35-.68.35-1.2-.12-.93-.35-1.2c-.23-.3-.56-.44-1-.44z"/><use xlink:href="#Ar" x="32.54" y="14.82"/><path d="M106 238.4h-.67v-.7h-.02c-.3.54-.8.8-1.44.8-.53 0-.95-.2-1.26-.56-.32-.38-.47-.9-.47-1.54 0-.7.17-1.25.52-1.67s.82-.63 1.4-.63 1 .23 1.26.68h.02v-2.6h.67v6.22zm-.67-1.9v-.62c0-.34-.1-.63-.34-.86-.22-.23-.5-.35-.85-.35-.4 0-.73.15-.97.45s-.35.72-.35 1.25c0 .48.1.87.34 1.15a1.12 1.12 0 0 0 .9.42c.37 0 .68-.14.9-.4s.35-.6.35-1.03zm199.93-103.22h-.82l-.67-1.77h-2.68l-.63 1.77h-.83l2.43-6.33h.77l2.43 6.33zm-1.73-2.44l-1-2.7a4.49 4.49 0 0 1-.1-.42h-.02c-.03.18-.06.32-.1.42l-.98 2.7h2.2zm6.43 2.44h-.72v-.77h-.02c-.34.58-.85.87-1.55.87-.57 0-1.02-.2-1.36-.6s-.5-.96-.5-1.65c0-.75.2-1.35.57-1.8a1.87 1.87 0 0 1 1.5-.68c.62 0 1.07.24 1.36.73h.02v-2.8h.72v6.7zm-.73-2.04v-.67c0-.37-.12-.67-.36-.93-.24-.25-.55-.38-.92-.38-.44 0-.8.16-1.04.5s-.38.77-.38 1.34c0 .52.12.93.36 1.23s.57.45.98.45a1.24 1.24 0 0 0 .98-.44c.26-.28.38-.65.38-1.1zm7.05 2.04h-.74v-2.9h-3.28v2.9h-.74v-6.33h.74v2.78h3.28v-2.78h.74v6.33zm3.45.12c-.67 0-1.2-.2-1.6-.63s-.6-.98-.6-1.68c0-.76.2-1.35.62-1.78s.98-.64 1.68-.64c.67 0 1.2.2 1.58.62s.57 1 .57 1.73c0 .72-.2 1.3-.6 1.73s-.95.65-1.64.65zm.05-4.12c-.46 0-.83.16-1.1.47-.27.32-.4.75-.4 1.3 0 .54.14.96.4 1.27s.64.46 1.1.46c.47 0 .83-.15 1.08-.45s.38-.73.38-1.3-.13-1-.38-1.3-.6-.46-1.08-.46zm6.44 3.8c-.35.2-.76.3-1.24.3-.64 0-1.17-.2-1.56-.63s-.6-.96-.6-1.63c0-.74.2-1.34.64-1.8s1-.68 1.7-.68c.4 0 .75.07 1.05.22v.74a1.83 1.83 0 0 0-1.08-.35c-.46 0-.84.17-1.14.5s-.44.77-.44 1.3.14.95.42 1.25.65.46 1.12.46c.4 0 .76-.13 1.1-.4v.7zm7.4-5.46h-1.83v5.66h-.74v-5.66h-1.82v-.67h4.4v.67z"/><use xlink:href="#i" x="0.25" y="87.74"/><use xlink:href="#d" x="29.52" y="87.74"/><use xlink:href="#e" x="29.52" y="87.74"/><use xlink:href="#j" y="87.7"/><path d="M376.68 133.24h-.74v-6.33h.74v6.33zm9.05 0h-.82l-.67-1.77h-2.68l-.63 1.77h-.83l2.43-6.33h.77l2.43 6.33zM384 130.8l-1-2.7a4.49 4.49 0 0 1-.1-.42h-.02c-.03.18-.06.32-.1.42l-.98 2.7h2.2z"/><use xlink:href="#g" x="63.54" y="87.7"/><use xlink:href="#e" x="78.99" y="87.7"/><use xlink:href="#As"/><use xlink:href="#l" y="87.7"/><use xlink:href="#m" y="87.7"/><use xlink:href="#e" x="99.74" y="87.7"/><use xlink:href="#h" x="87.34" y="87.7"/><use xlink:href="#As" x="22.94"/><use xlink:href="#n" y="87.7"/><use xlink:href="#o" y="87.74"/><use xlink:href="#p" y="87.74"/><use xlink:href="#l" x="63.44" y="87.74"/><use xlink:href="#q" y="87.73"/><use xlink:href="#r" y="87.74"/><path d="M508.3 125.04a.97.97 0 0 0-.06-.36c-.04-.1-.1-.2-.18-.26a.68.68 0 0 0-.26-.15 1.14 1.14 0 0 0-.33-.05c-.1 0-.2.01-.3.04a1.36 1.36 0 0 0-.28.11c-.1.05-.18.1-.26.17-.1.07-.17.14-.24.22v-.55c.14-.14.3-.25.5-.32a1.82 1.82 0 0 1 .66-.11c.18 0 .36.03.5.08.16.05.3.13.4.23s.2.23.27.38.1.32.1.52a1.88 1.88 0 0 1-.06.49c-.04.15-.1.28-.2.4a2.1 2.1 0 0 1-.31.37 3.4 3.4 0 0 1-.44.36l-.53.4c-.14.1-.25.2-.33.3s-.14.2-.17.28-.05.2-.05.32H509v.46h-2.8v-.22c0-.2.02-.36.06-.5s.1-.3.2-.42.22-.26.38-.4l.58-.45.4-.34c.1-.1.2-.2.27-.32s.12-.22.14-.33.04-.22.04-.34z"/><use xlink:href="#At"/><use xlink:href="#G" x="455.42" y="74.44"/><use xlink:href="#At" x="6.96"/><use xlink:href="#X" y="86.79"/><path d="M527 128.37h-.52v-.5h-.01c-.2.4-.55.6-1 .6-.77 0-1.15-.46-1.15-1.38v-1.93h.5V127c0 .68.26 1.02.78 1.02.25 0 .46-.1.62-.28s.24-.43.24-.73v-1.86h.53v3.23z"/><use xlink:href="#Y" y="86.79"/><use xlink:href="#G" x="475.53" y="74.44"/><use xlink:href="#G" x="479.02" y="74.44"/><path d="M540.9 127.66l-.5 1.55h-.37l.37-1.55h.5z"/><use xlink:href="#F" x="451.95" y="82.17"/><use xlink:href="#At" y="7.74"/><use xlink:href="#Au"/><use xlink:href="#AN" x="-19.59" y="-145.86"/><use xlink:href="#Av"/><use xlink:href="#Au" x="8.37"/><use xlink:href="#Aw"/><use xlink:href="#Aw" x="3.48"/><use xlink:href="#G" x="520.14" y="74.44"/><use xlink:href="#Ax"/><use xlink:href="#G" x="527.11" y="74.44"/><use xlink:href="#At" x="78.64"/><use xlink:href="#X" x="71.7" y="86.79"/><path d="M598.68 128.37h-.52v-.5h-.01c-.2.4-.55.6-1 .6-.77 0-1.15-.46-1.15-1.38v-1.93h.5V127c0 .68.26 1.02.78 1.02.25 0 .46-.1.62-.28s.24-.43.24-.73v-1.86h.52v3.23z"/><use xlink:href="#Y" x="71.68" y="86.79"/><use xlink:href="#G" x="547.22" y="74.44"/><use xlink:href="#G" x="550.7" y="74.44"/><path d="M612.6 127.66l-.5 1.55h-.37l.37-1.55h.5z"/><use xlink:href="#F" x="523.63" y="82.17"/><use xlink:href="#Ax" y="7.74"/><path d="M585.22 133.53c-.1 0-.18-.03-.25-.1s-.1-.15-.1-.25.03-.18.1-.25.15-.1.25-.1.18.03.25.1.1.15.1.25-.04.18-.1.25c-.07.06-.16.1-.25.1zm0 2.66c-.1 0-.18-.03-.25-.1s-.1-.15-.1-.25.03-.18.1-.25a.34.34 0 0 1 .5 0c.07.07.1.15.1.25s-.04.18-.1.25-.16.1-.25.1z"/><use xlink:href="#AN" x="52.1" y="-145.86"/><use xlink:href="#Av" x="71.69"/><use xlink:href="#Au" x="80.05"/><path d="M596.96 131.6v3h.58v.47h-.58v1.06h-.5v-1.06h-2.13v-.45l.6-.7.58-.77.5-.78c.16-.26.3-.5.4-.75h.55zm-2.06 3h1.54v-2.2l-.45.74-.4.6-.36.48c-.12.13-.22.27-.33.4zm5.54-3v3h.58v.47h-.58v1.06h-.5v-1.06h-2.13v-.45l.6-.7.58-.77.5-.78c.16-.26.3-.5.4-.75h.55zm-2.06 3h1.54v-2.2l-.45.74-.4.6-.36.48-.33.4z"/></g><use xlink:href="#AP" y="-145.58" class="E"/><path d="M43.12 180.93h-6.16a1.05 1.05 0 0 1-1.05-1.05v-6.16a1.05 1.05 0 0 1 1.05-1.05h6.16a1.05 1.05 0 0 1 1.05 1.05v6.16a1.05 1.05 0 0 1-1.05 1.05zm-6.16-7.74a.55.55 0 0 0-.55.55v6.16c0 .3.25.55.55.55h6.16c.3 0 .55-.25.55-.55v-6.16c0-.3-.25-.55-.55-.55h-6.16z" class="D"/><g fill="#fff"><path d="M239.77 128.16h-1.94v1.72h1.8v.52h-1.8v2.2h-.58v-4.97h2.53v.53z"/><use xlink:href="#w" x="1.04" y="85.74"/><use xlink:href="#AQ" y="-145.59"/><path d="M246.3 132.6h-.57v-5.26h.57v5.26z"/><use xlink:href="#z" x="-1.55" y="85.75"/><use xlink:href="#AA" x="-1.55" y="85.74"/></g><g class="C"><path d="M10.15 124.73h5.8v.45h-5.8z"/><path d="M9.9 124.48h6.3v.95H9.9z"/></g><g class="D"><path d="M40.72 179.1h-.92v-3.5l-1.1.34v-.74l1.9-.68h.1v4.6zm2.4 16.66h-6.16a1.05 1.05 0 0 1-1.05-1.05v-6.16a1.05 1.05 0 0 1 1.05-1.05h6.16a1.05 1.05 0 0 1 1.05 1.05v6.16c-.01.58-.47 1.05-1.05 1.05zM36.96 188a.55.55 0 0 0-.55.55v6.16c0 .3.25.55.55.55h6.16a.55.55 0 0 0 .55-.55v-6.16c0-.3-.25-.55-.55-.55h-6.16zm4.7 5.92H38.5v-.62l1.5-1.58a4.21 4.21 0 0 0 .45-.58c.1-.16.15-.32.15-.47 0-.2-.05-.36-.15-.48s-.25-.17-.44-.17c-.2 0-.37.07-.5.2s-.18.33-.18.56h-.9a1.55 1.55 0 0 1 .2-.77c.13-.23.32-.4.57-.54.24-.13.52-.2.83-.2.47 0 .84.1 1.1.34s.4.55.4.96a1.48 1.48 0 0 1-.18.69c-.12.24-.32.5-.6.82l-1.04 1.1h1.97v.73z"/><use xlink:href="#Ay"/><path d="M39.43 206.04h.5c.23 0 .4-.06.5-.17a.65.65 0 0 0 .17-.46c0-.2-.06-.33-.17-.43s-.26-.15-.46-.15c-.17 0-.32.05-.44.14a.46.46 0 0 0-.18.37h-.9a1.15 1.15 0 0 1 .19-.65c.13-.2.3-.34.54-.45a1.77 1.77 0 0 1 .77-.16c.5 0 .87.12 1.14.35.28.23.4.55.4.96a.96.96 0 0 1-.19.58c-.13.18-.3.3-.5.4.26.1.45.23.58.42s.2.4.2.66c0 .4-.15.73-.45.98s-.7.37-1.18.37c-.46 0-.83-.12-1.12-.36s-.44-.56-.44-.96h.9a.52.52 0 0 0 .19.42c.13.1.3.16.48.16.22 0 .4-.06.5-.17s.18-.27.18-.46c0-.46-.25-.7-.76-.7h-.48v-.7z"/><use xlink:href="#Ay" y="14.8"/><path d="M41.2 221.84h.52v.73h-.52v1h-.9v-1h-1.9l-.04-.57 1.9-3.02h.92v2.86zm-1.93 0h1v-1.62l-.06.1-.95 1.52z"/></g><g class="E"><use xlink:href="#Ay" y="29.64"/><path d="M38.64 236.13l.26-2.33h2.57v.76h-1.83l-.1 1a1.41 1.41 0 0 1 .69-.17c.44 0 .78.14 1.03.4s.37.65.37 1.14a1.63 1.63 0 0 1-.19.8c-.13.24-.3.42-.54.55s-.5.2-.83.2c-.28 0-.54-.06-.77-.17a1.3 1.3 0 0 1-.56-.47 1.29 1.29 0 0 1-.22-.7h.9c.02.2.08.34.2.45.1.1.26.16.45.16.2 0 .36-.07.48-.22.1-.15.17-.36.17-.63 0-.26-.06-.46-.2-.6a.7.7 0 0 0-.54-.21.82.82 0 0 0-.53.17l-.1.08-.72-.2z"/></g><path fill="#e1e5eb" d="M36.16 145.52h.82v10.3h-.82z"/><defs ><path id="B" d="M29.04 52.46h-2.28c.01.36.1.64.3.83.18.2.44.3.76.3.36 0 .7-.12 1-.36v.5c-.28.2-.66.3-1.13.3-.46 0-.8-.15-1.08-.44-.26-.3-.4-.7-.4-1.24 0-.5.14-.9.43-1.23.28-.32.64-.47 1.06-.47s.75.14.98.4.35.65.35 1.14v.27zm-.53-.44c0-.3-.07-.53-.22-.7-.14-.17-.34-.25-.6-.25-.24 0-.45.1-.62.26s-.28.4-.32.68h1.75z"/><path id="C" d="M29.63 53.83v-.56a1.51 1.51 0 0 0 .93.31c.45 0 .68-.15.68-.45a.38.38 0 0 0-.06-.22c-.04-.06-.1-.1-.16-.16s-.14-.1-.23-.12l-.3-.12-.38-.17a.95.95 0 0 1-.27-.2.67.67 0 0 1-.16-.25c-.04-.1-.06-.2-.06-.32 0-.15.04-.3.1-.4s.16-.2.28-.3.25-.14.4-.18a1.76 1.76 0 0 1 .46-.06c.28 0 .53.05.75.15v.52c-.24-.16-.5-.23-.82-.23a1.03 1.03 0 0 0-.26.03.61.61 0 0 0-.2.09c-.06.04-.1.1-.13.14-.03.06-.05.12-.05.18 0 .08.01.15.05.2.03.06.07.1.13.15a1.96 1.96 0 0 0 .21.12c.08.04.18.07.3.12a2.7 2.7 0 0 1 .38.17 1.24 1.24 0 0 1 .29.2c.08.07.14.16.18.25s.06.2.06.34a.82.82 0 0 1-.11.42.78.78 0 0 1-.28.29 1.08 1.08 0 0 1-.41.17c-.15.04-.3.06-.48.06-.3 0-.6-.06-.84-.2z"/><path id="D" d="M34.06 53.9c-.12.07-.28.1-.48.1-.57 0-.85-.32-.85-.95v-1.9h-.55v-.44h.55v-.8l.52-.17v.96h.8v.44h-.8v1.82c0 .22.04.37.1.46s.2.14.37.14c.13 0 .24-.04.34-.1v.45z"/><path id="E" d="M36.38 53.76v-.62a1.3 1.3 0 0 0 .26.17c.1.05.2.1.32.13a1.98 1.98 0 0 0 .33.08 1.71 1.71 0 0 0 .31.03c.33 0 .57-.06.73-.18s.24-.3.24-.52a.66.66 0 0 0-.08-.32c-.05-.1-.13-.17-.22-.25a2.08 2.08 0 0 0-.33-.21l-.42-.22-.44-.24c-.14-.08-.26-.17-.36-.27s-.18-.2-.24-.34-.1-.27-.1-.44c0-.2.04-.4.14-.54s.2-.28.36-.38a1.62 1.62 0 0 1 .5-.22c.2-.05.38-.07.58-.07.45 0 .77.05.97.16v.6c-.27-.2-.6-.28-1.03-.28-.12 0-.23.01-.35.04-.12.02-.22.06-.3.12-.1.05-.16.13-.22.2a.55.55 0 0 0-.09.32c0 .12.02.22.07.3.04.08.1.16.2.23a1.51 1.51 0 0 0 .31.2 4.1 4.1 0 0 0 .42.21l.46.25c.15.1.27.2.38.3.1.1.2.23.26.36s.1.28.1.45c0 .22-.04.4-.13.57-.1.15-.2.28-.35.38s-.32.17-.5.2-.4.06-.6.06c-.07 0-.16-.01-.26-.02-.1-.01-.2-.03-.32-.05s-.2-.05-.3-.08c-.13-.04-.2-.08-.26-.12z"/><path id="F" d="M56.2 53.95h-.52v-3.9a1.41 1.41 0 0 1-.17.14l-.26.15-.3.14c-.1.04-.2.08-.3.1v-.52c.1-.03.23-.07.36-.13l.38-.18.35-.2c.1-.07.2-.14.28-.2h.2v4.63z"/><path id="G" d="M59.84 50.6a.97.97 0 0 0-.06-.36c-.04-.1-.1-.2-.18-.26a.68.68 0 0 0-.26-.15 1.14 1.14 0 0 0-.33-.05c-.1 0-.2.01-.3.04a1.36 1.36 0 0 0-.28.11c-.1.05-.18.1-.26.17-.1.07-.17.14-.24.22v-.55c.14-.14.3-.25.5-.32a1.82 1.82 0 0 1 .66-.11c.18 0 .36.03.5.08.16.05.3.13.4.23s.2.23.27.38.1.32.1.52a1.88 1.88 0 0 1-.06.49c-.04.15-.1.28-.2.4a2.1 2.1 0 0 1-.31.37 3.4 3.4 0 0 1-.44.36l-.53.4c-.14.1-.25.2-.33.3s-.14.2-.17.28-.05.2-.05.32h2.25v.46h-2.8v-.22c0-.2.02-.36.06-.5s.1-.3.2-.42.22-.26.38-.4l.58-.45.4-.34c.1-.1.2-.2.27-.32s.12-.22.14-.33a1.86 1.86 0 0 0 .04-.34z"/><path id="H" d="M53.84 40.5h-3.52c.01.48.16.85.44 1.1.28.26.67.4 1.16.4a2.55 2.55 0 0 0 1.52-.49v.94c-.47.3-1.1.44-1.87.44-.76 0-1.36-.23-1.8-.7s-.65-1.13-.65-1.98c0-.8.24-1.46.7-1.97a2.33 2.33 0 0 1 1.77-.76c.7 0 1.25.23 1.64.68s.58 1.08.58 1.9v.46zm-1.13-.82c0-.42-.1-.75-.3-.98s-.46-.35-.8-.35c-.34 0-.62.12-.86.37-.23.25-.38.57-.43.96h2.4z"/><path id="I" d="M67.36 42.47v-1.24c.1.1.24.2.4.27a2.65 2.65 0 0 0 .49.2 3.18 3.18 0 0 0 .51.13 2.79 2.79 0 0 0 .47.05c.5 0 .88-.08 1.13-.25a.82.82 0 0 0 .37-.73.84.84 0 0 0-.12-.45c-.08-.13-.2-.24-.35-.35a4.8 4.8 0 0 0-.52-.3l-.64-.3-.7-.4c-.2-.13-.4-.28-.55-.45-.16-.16-.28-.35-.37-.55s-.13-.45-.13-.72c0-.34.08-.63.23-.9a1.9 1.9 0 0 1 .61-.62 2.89 2.89 0 0 1 .86-.36c.32-.08.65-.12.98-.12.76 0 1.3.1 1.66.26v1.2c-.4-.3-.94-.44-1.58-.44a3.07 3.07 0 0 0-.53.05c-.18.03-.33.1-.47.17a1.1 1.1 0 0 0-.34.3c-.1.12-.13.27-.13.44 0 .16.03.3.1.42s.17.23.3.32c.13.1.3.2.47.28l.65.3.7.4c.22.15.42.3.6.48a2.23 2.23 0 0 1 .4.58 1.7 1.7 0 0 1 .15.73c0 .37-.07.68-.22.93a1.87 1.87 0 0 1-.6.62c-.25.16-.54.27-.87.34s-.67.1-1.03.1c-.12 0-.27-.01-.45-.03l-.54-.08-.52-.13a1.57 1.57 0 0 1-.42-.17z"/><path id="J" d="M27.65 14.38h-.82l-2.16-3.32a2.15 2.15 0 0 1-.14-.26h-.02c.02.1.03.3.03.62v2.96h-.72V9.85h.87l2.1 3.25c.1.13.14.23.17.28h.01c-.02-.12-.03-.32-.03-.6V9.85h.72v4.53z"/><path id="K" d="M32.48 14.38h-.82l-.4-1.15h-1.78l-.4 1.15h-.82l1.7-4.52h.84l1.7 4.52zm-1.43-1.77l-.63-1.8c-.02-.06-.04-.15-.06-.28h-.01l-.06.28-.62 1.8h1.38z"/><path id="L" d="M37.96 14.38h-.74v-2.93l.04-.88h-.01l-.12.43-1.35 3.38h-.52l-1.35-3.35c-.04-.1-.08-.25-.12-.45h-.01a9.18 9.18 0 0 1 .03.89v2.92h-.7V9.85h1.06l1.2 3 .18.52h.02l.2-.53 1.2-3h1.02v4.53z"/><path id="M" d="M41.6 14.38h-2.54V9.85h2.44v.64h-1.7v1.28h1.55v.63h-1.55v1.34h1.8v.64z"/><path id="N" d="M231.38 10.5h-1.3v3.88h-.75V10.5h-1.3v-.64h3.35v.64z"/><path id="O" d="M242.5 12.55c0 1.27-.6 1.9-1.8 1.9-1.15 0-1.73-.6-1.73-1.83V9.85h.75v2.6c0 .9.34 1.33 1.03 1.33.66 0 1-.43 1-1.28V9.85h.75v2.7z"/><path id="P" d="M243.34 14.2v-.77c.07.06.15.12.25.17s.2.1.3.13l.32.08a1.69 1.69 0 0 0 .3.03c.32 0 .55-.05.7-.16s.23-.26.23-.46a.51.51 0 0 0-.08-.28c-.05-.08-.12-.15-.22-.22-.1-.07-.2-.13-.33-.2l-.4-.2-.43-.25c-.13-.08-.25-.18-.35-.28a1.18 1.18 0 0 1-.23-.35c-.06-.13-.08-.28-.08-.45a1.07 1.07 0 0 1 .14-.55 1.18 1.18 0 0 1 .38-.39 1.81 1.81 0 0 1 .53-.23c.2-.05.4-.07.6-.07.47 0 .82.05 1.03.16v.74c-.26-.18-.6-.28-1-.28a1.84 1.84 0 0 0-.33.03 1.32 1.32 0 0 0-.3.1c-.1.05-.16.1-.2.2s-.08.17-.08.27.02.2.06.26.1.14.18.2.18.12.3.18l.4.2c.16.08.3.17.45.26s.26.2.37.3a1.23 1.23 0 0 1 .25.36 1.11 1.11 0 0 1 .09.46c0 .23-.05.42-.14.58a1.04 1.04 0 0 1-.37.38 1.6 1.6 0 0 1-.54.21 3.32 3.32 0 0 1-.65.07c-.08 0-.17-.01-.28-.02s-.22-.03-.34-.05-.22-.05-.33-.08a.63.63 0 0 1-.23-.08z"/><path id="Q" d="M303.6 14.38h-.88l-.72-1.2-.2-.3c-.06-.08-.13-.14-.2-.2a.53.53 0 0 0-.21-.11c-.08-.02-.16-.04-.25-.04h-.3v1.84h-.75V9.85h1.5c.2 0 .4.03.6.08a1.47 1.47 0 0 1 .47.23 1.04 1.04 0 0 1 .31.38c.08.15.1.33.1.53 0 .16-.02.3-.07.44s-.1.25-.2.36c-.1.1-.2.2-.3.27-.12.07-.26.13-.42.17v.01c.08.05.15.1.2.15l.17.17.16.2.18.26.8 1.28zm-2.75-3.92v1.47h.62c.12 0 .22-.02.32-.05.1-.04.18-.1.25-.15s.13-.15.17-.25.06-.2.06-.32c0-.22-.07-.4-.2-.5s-.33-.18-.6-.18h-.62z"/><path id="R" d="M322.2 9.85l-1.48 2.88v1.64h-.75v-1.63l-1.44-2.9h.85l.9 1.94a4.61 4.61 0 0 1 .09.26h.01c.02-.07.05-.15.1-.26l.93-1.94h.8z"/><path id="S" d="M323.53 12.74v1.64h-.75V9.85h1.37c.52 0 .92.12 1.2.36s.43.58.43 1.02a1.41 1.41 0 0 1-.45 1.08c-.3.28-.7.42-1.2.42h-.6zm0-2.27v1.65h.5c.32 0 .57-.07.73-.22.17-.15.25-.36.25-.63 0-.53-.3-.8-.93-.8h-.54z"/><path id="T" d="M376.16 14.2v-.77c.07.06.15.12.25.17s.2.1.3.13l.32.08a1.69 1.69 0 0 0 .3.03c.32 0 .55-.05.7-.16s.23-.26.23-.46a.51.51 0 0 0-.08-.28c-.05-.08-.12-.15-.22-.22-.1-.07-.2-.13-.33-.2l-.4-.2-.43-.25c-.13-.08-.25-.18-.35-.28a1.18 1.18 0 0 1-.23-.35c-.06-.13-.08-.28-.08-.45a1.07 1.07 0 0 1 .14-.55 1.18 1.18 0 0 1 .38-.39 1.81 1.81 0 0 1 .53-.23c.2-.05.4-.07.6-.07.47 0 .82.05 1.03.16v.74c-.26-.18-.6-.28-1-.28a1.84 1.84 0 0 0-.33.03 1.32 1.32 0 0 0-.3.1c-.1.05-.16.1-.2.2s-.08.17-.08.27.02.2.06.26.1.14.18.2.18.12.3.18l.4.2c.16.08.3.17.45.26s.26.2.37.3a1.23 1.23 0 0 1 .25.36 1.11 1.11 0 0 1 .09.46c0 .23-.05.42-.14.58a1.04 1.04 0 0 1-.37.38 1.6 1.6 0 0 1-.54.21 3.32 3.32 0 0 1-.65.07c-.08 0-.17-.01-.28-.02s-.22-.03-.34-.05-.22-.05-.33-.08c-.1-.01-.17-.04-.23-.08z"/><path id="U" d="M528.35 14.38V9.85h1.3c1.67 0 2.5.73 2.5 2.2 0 .7-.23 1.26-.7 1.68s-1.08.64-1.86.64h-1.25zm.75-3.9v3.25h.6c.53 0 .94-.15 1.23-.44s.44-.7.44-1.23c0-1.06-.55-1.6-1.64-1.6h-.63z"/><path id="V" d="M512.56 39.3a4.43 4.43 0 0 1-.1 1.01c-.07.3-.17.54-.3.74s-.3.35-.48.46a1.35 1.35 0 0 1-.64.16c-.23 0-.43-.05-.6-.15a1.26 1.26 0 0 1-.45-.44c-.12-.2-.2-.43-.28-.7a4.61 4.61 0 0 1-.09-.96 4.74 4.74 0 0 1 .1-1.05c.07-.3.16-.56.3-.76s.3-.36.48-.46a1.39 1.39 0 0 1 .65-.16c.96-.01 1.43.76 1.43 2.3zm-.53.05c0-1.3-.3-1.93-.92-1.93-.64 0-.97.65-.97 1.96 0 1.22.32 1.83.95 1.83.63.01.94-.62.94-1.86z"/><path id="W" d="M515.26 38.24a.97.97 0 0 0-.06-.36c-.04-.1-.1-.2-.18-.26a.68.68 0 0 0-.26-.15 1.14 1.14 0 0 0-.33-.05c-.1 0-.2.01-.3.04a1.36 1.36 0 0 0-.28.11c-.1.05-.18.1-.26.17-.1.07-.17.14-.24.22v-.55c.14-.14.3-.25.5-.32a1.82 1.82 0 0 1 .66-.11c.18 0 .36.03.5.08.16.05.3.13.4.23s.2.23.27.38.1.32.1.52a1.88 1.88 0 0 1-.06.49c-.04.15-.1.28-.2.4a2.1 2.1 0 0 1-.31.37 3.4 3.4 0 0 1-.44.36l-.53.4c-.14.1-.25.2-.33.3s-.14.2-.17.28-.05.2-.05.32h2.25v.46h-2.8v-.22c0-.2.02-.36.06-.5s.1-.3.2-.42.22-.26.38-.4l.58-.45.4-.34c.1-.1.2-.2.27-.32s.12-.22.14-.33.04-.2.04-.34z"/><path id="X" d="M523.3 39.96c0 .54-.1.95-.34 1.25s-.53.45-.9.45a1.03 1.03 0 0 1-.43-.08v-.52c.1.08.26.12.44.12.48 0 .72-.4.72-1.2v-2.9h.53v2.9z"/><path id="Y" d="M530.72 41.58h-.52v-1.84c0-.7-.25-1.03-.75-1.03a.82.82 0 0 0-.64.29c-.17.2-.25.44-.25.74v1.84h-.52v-3.23h.52v.54h.01c.24-.4.6-.6 1.06-.6.35 0 .62.1.8.34s.28.56.28 1v1.97z"/><path id="Z" d="M513.53 46.73c-.1 0-.18-.03-.25-.1s-.1-.15-.1-.25.03-.18.1-.25.15-.1.25-.1.18.03.25.1.1.15.1.25-.04.18-.1.25c-.07.06-.15.1-.25.1zm0 2.67c-.1 0-.18-.03-.25-.1s-.1-.15-.1-.25.03-.18.1-.25a.34.34 0 0 1 .5 0c.07.07.1.15.1.25s-.04.18-.1.25-.15.1-.25.1z"/><path id="a" d="M520.87 46.8a4.72 4.72 0 0 1-.12 1.11 2.29 2.29 0 0 1-.36.82 1.66 1.66 0 0 1-.58.51c-.23.12-.5.17-.78.17-.3 0-.56-.05-.8-.16v-.5a1.62 1.62 0 0 0 .8.21c.2 0 .4-.04.55-.13a1.11 1.11 0 0 0 .41-.37 1.67 1.67 0 0 0 .25-.59c.06-.24.1-.5.1-.8h-.01c-.2.4-.53.58-1 .58-.2 0-.37-.03-.53-.1s-.3-.16-.42-.3-.2-.27-.27-.45c-.07-.17-.1-.36-.1-.57 0-.22.04-.43.1-.6s.17-.34.3-.48c.13-.13.28-.24.46-.3s.37-.1.58-.1c.23 0 .43.05.6.14.18.1.32.23.44.4.12.18.2.4.27.65.08.26.1.56.1.9zm-.56-.47c0-.17-.02-.33-.07-.48a1.17 1.17 0 0 0-.19-.37.85.85 0 0 0-.29-.24c-.12-.06-.23-.08-.36-.08-.12 0-.24.02-.35.07s-.2.12-.28.2a1.13 1.13 0 0 0-.19.32 1.29 1.29 0 0 0-.07.4 1.44 1.44 0 0 0 .06.43c.04.13.1.23.18.32s.18.15.3.2.24.07.37.07c.12 0 .23-.02.34-.07s.2-.1.28-.18c.08-.08.14-.17.2-.27a.74.74 0 0 0 .09-.33z"/><path id="b" d="M525.27 44.8v3h.58v.47h-.58v1.06h-.5v-1.06h-2.13v-.45l.6-.7.58-.77.5-.78c.16-.26.3-.5.4-.75h.55zm-2.05 2.98h1.54v-2.2l-.45.74-.4.6-.36.48-.33.4z"/><path id="c" d="M307.75 43.46h-3.2c.01.5.15.9.4 1.17.26.27.62.4 1.07.4.5 0 .98-.17 1.4-.5v.68c-.4.3-.92.43-1.58.43-.64 0-1.14-.2-1.5-.62-.37-.4-.55-1-.55-1.73 0-.7.2-1.28.6-1.72a1.92 1.92 0 0 1 1.49-.66c.6 0 1.05.2 1.37.57s.5.9.5 1.6v.38zm-.74-.6c0-.42-.1-.74-.3-.98-.2-.23-.47-.35-.83-.35-.34 0-.63.12-.87.37-.24.24-.4.56-.44.96H307z"/><path id="d" d="M308.58 45.38v-.78c.4.3.83.44 1.3.44.64 0 .95-.2.95-.64a.62.62 0 0 0-.08-.31c-.05-.08-.13-.16-.22-.22s-.2-.12-.33-.17l-.4-.16-.53-.24c-.15-.08-.28-.17-.38-.27s-.18-.22-.23-.35-.08-.28-.08-.45c0-.2.05-.4.15-.56s.23-.3.4-.4a1.97 1.97 0 0 1 .55-.25c.2-.06.42-.08.64-.08.4 0 .74.07 1.05.2v.73c-.33-.22-.7-.33-1.15-.33a1.38 1.38 0 0 0-.37.05c-.1.03-.2.07-.28.13s-.14.12-.18.2-.06.16-.06.26c0 .12.02.22.06.3s.1.15.2.2.18.12.3.17l.4.16.54.24a2.08 2.08 0 0 1 .41.27c.1.1.2.22.26.35s.1.3.1.47c0 .22-.05.42-.15.58-.1.17-.23.3-.4.4-.17.1-.36.2-.57.24s-.44.08-.67.08c-.47 0-.87-.1-1.2-.27z"/><path id="e" d="M314.78 45.5c-.17.1-.4.14-.68.14-.8 0-1.2-.44-1.2-1.32v-2.68h-.78v-.62h.78v-1.1l.72-.23v1.34h1.14v.62h-1.14v2.55c0 .3.05.52.16.65.1.13.27.2.5.2.18 0 .34-.05.47-.15v.6z"/><path id="f" d="M318.03 45.28v-.87a1.61 1.61 0 0 0 .36.24c.14.07.3.13.44.18.16.05.3.1.47.1a2.29 2.29 0 0 0 .43.04c.46 0 .8-.08 1.02-.25a.87.87 0 0 0 .34-.73c0-.17-.04-.32-.1-.45s-.18-.24-.3-.35c-.13-.1-.3-.2-.47-.3l-.58-.3-.62-.34c-.2-.1-.36-.24-.5-.38a1.54 1.54 0 0 1-.33-.47c-.08-.17-.12-.38-.12-.62 0-.3.06-.54.2-.75s.3-.4.5-.53.44-.24.7-.3a3.1 3.1 0 0 1 .81-.1c.62 0 1.08.08 1.36.23v.83c-.37-.26-.85-.4-1.44-.4a2.81 2.81 0 0 0-.49.05c-.16.03-.3.1-.43.17a.99.99 0 0 0-.31.3c-.08.12-.12.27-.12.44 0 .16.03.3.1.42s.15.23.27.32a2.46 2.46 0 0 0 .43.28l.58.3c.23.1.44.23.64.35s.38.26.53.4.27.32.36.5.13.4.13.63c0 .3-.06.58-.18.8a1.58 1.58 0 0 1-.5.53c-.2.14-.45.23-.72.3a3.98 3.98 0 0 1-.86.09c-.1 0-.22-.01-.37-.02s-.3-.04-.45-.07-.3-.07-.43-.1c-.12-.05-.23-.1-.3-.16z"/><path id="g" d="M326.68 45.54h-.72v-.72h-.02c-.3.55-.77.82-1.4.82-1.08 0-1.62-.64-1.62-1.92v-2.7h.72v2.6c0 .95.36 1.43 1.1 1.43a1.11 1.11 0 0 0 .87-.39c.23-.26.34-.6.34-1.02v-2.6h.72v4.5z"/><path id="h" d="M328.52 39.87c-.13 0-.24-.04-.33-.13a.46.46 0 0 1-.14-.34.46.46 0 0 1 .14-.34c.1-.1.2-.13.33-.13s.25.04.34.13a.46.46 0 0 1 .14.34c0 .13-.05.24-.14.33s-.2.14-.34.14zm.35 5.67h-.72v-4.52h.72v4.52z"/><path id="i" d="M337.03 43.46h-3.2c.01.5.15.9.4 1.17.26.27.62.4 1.07.4.5 0 .98-.17 1.4-.5v.68c-.4.3-.92.43-1.58.43-.64 0-1.14-.2-1.5-.62-.37-.4-.55-1-.55-1.73 0-.7.2-1.28.6-1.72a1.92 1.92 0 0 1 1.49-.66c.6 0 1.05.2 1.37.57s.5.9.5 1.6v.38zm-.74-.6c0-.42-.1-.74-.3-.98-.2-.23-.47-.35-.83-.35-.34 0-.63.12-.87.37-.24.24-.4.56-.44.96h2.44z"/><path id="j" d="M374.36 42.98c0 1.78-.8 2.67-2.4 2.67-1.54 0-2.3-.85-2.3-2.56v-3.87h.74v3.82c0 1.3.55 1.95 1.64 1.95 1.06 0 1.58-.63 1.58-1.88v-3.9h.74v3.76z"/><path id="k" d="M396.63 45.65c-.67 0-1.2-.2-1.6-.63s-.6-.98-.6-1.68c0-.76.2-1.35.62-1.78s.98-.64 1.68-.64c.67 0 1.2.2 1.58.62s.57 1 .57 1.73c0 .72-.2 1.3-.6 1.73s-.96.65-1.64.65zm.05-4.13c-.46 0-.83.16-1.1.47-.27.32-.4.75-.4 1.3 0 .54.14.96.4 1.27s.64.46 1.1.46c.47 0 .83-.15 1.08-.45s.38-.73.38-1.3-.13-1-.38-1.3-.6-.46-1.08-.46z"/><path id="l" d="M406.46 45.54h-.72v-2.6c0-.5-.08-.86-.23-1.1-.16-.22-.42-.34-.78-.34-.3 0-.57.14-.8.42s-.32.62-.32 1.02v2.58h-.72v-2.68c0-.9-.34-1.33-1.03-1.33-.32 0-.58.13-.8.4s-.3.6-.3 1.04v2.58h-.72v-4.52h.72v.72h.02c.32-.55.8-.82 1.4-.82a1.33 1.33 0 0 1 .81.26 1.26 1.26 0 0 1 .47.68c.34-.62.84-.94 1.5-.94 1 0 1.5.6 1.5 1.84v2.78z"/><path id="m" d="M411.06 45.54h-.72v-.7h-.02a1.52 1.52 0 0 1-1.39.81c-.45 0-.8-.12-1.06-.36-.25-.24-.38-.55-.38-.95 0-.84.5-1.34 1.5-1.47l1.36-.2c0-.77-.3-1.15-.93-1.15-.54 0-1.04.2-1.47.56v-.74c.44-.28.96-.42 1.54-.42 1.06 0 1.6.56 1.6 1.7v2.93zm-.72-2.3l-1.1.15c-.34.05-.6.13-.76.25s-.26.33-.26.63c0 .22.08.4.24.54s.37.2.63.2c.36 0 .66-.13.9-.38s.35-.57.35-.96v-.44z"/><path id="n" d="M426.73 45.54H426v-2.58c0-.96-.35-1.44-1.05-1.44-.36 0-.66.14-.9.4s-.36.62-.36 1.03v2.58h-.72v-4.52h.72v.75h.02c.34-.57.84-.86 1.48-.86.5 0 .87.16 1.13.48s.4.78.4 1.38v2.77z"/><path id="o" d="M457.33 45.54h-.82l-.67-1.77h-2.68l-.63 1.77h-.83l2.43-6.33h.77l2.43 6.33zm-1.74-2.44l-1-2.7a4.49 4.49 0 0 1-.1-.42h-.02c-.03.18-.06.32-.1.42l-.98 2.7h2.2z"/><path id="p" d="M462.02 45.54h-.72v-.77h-.02c-.34.58-.85.87-1.55.87-.57 0-1.02-.2-1.36-.6s-.5-.96-.5-1.65c0-.75.2-1.35.57-1.8a1.87 1.87 0 0 1 1.5-.68c.62 0 1.07.24 1.36.73h.02v-2.8h.72v6.7zm-.72-2.04v-.67c0-.37-.12-.67-.36-.93-.24-.25-.55-.38-.92-.38-.44 0-.8.16-1.04.5s-.38.77-.38 1.34c0 .52.12.93.36 1.23s.57.45.98.45a1.24 1.24 0 0 0 .98-.44c.25-.28.38-.65.38-1.1z"/><path id="q" d="M471.64 39.87c-.13 0-.24-.04-.33-.13a.46.46 0 0 1-.14-.34.46.46 0 0 1 .14-.34c.1-.1.2-.13.33-.13s.25.04.34.13a.46.46 0 0 1 .14.34c0 .13-.05.24-.14.33a.46.46 0 0 1-.34.14zm.36 5.67h-.72v-4.52h.72v4.52z"/><path id="r" d="M477.22 45.54h-.72v-2.58c0-.96-.35-1.44-1.05-1.44-.36 0-.66.14-.9.4s-.36.62-.36 1.03v2.58h-.72v-4.52h.72v.75h.02c.34-.57.84-.86 1.48-.86.5 0 .87.16 1.13.48s.4.78.4 1.38v2.77z"/><path id="s" d="M396.63 278.3c-.67 0-1.2-.2-1.6-.63s-.6-.98-.6-1.68c0-.76.2-1.35.62-1.78s.98-.64 1.68-.64c.67 0 1.2.2 1.58.62s.57 1 .57 1.73c0 .72-.2 1.3-.6 1.73s-.96.65-1.64.65zm.05-4.12c-.46 0-.83.16-1.1.47-.27.32-.4.75-.4 1.3 0 .54.14.96.4 1.27s.64.46 1.1.46c.47 0 .83-.15 1.08-.45s.38-.73.38-1.3-.13-1-.38-1.3-.6-.46-1.08-.46z"/><path id="t" d="M590.52 38.87c-.1-.07-.22-.1-.4-.1-.22 0-.4.1-.55.3-.15.2-.22.5-.22.85v1.65h-.52v-3.23h.52v.67h.01a1.11 1.11 0 0 1 .34-.53.75.75 0 0 1 .51-.19c.13 0 .24.01.3.04v.53z"/><path id="u" d="M604.1 41.46v-.56a1.51 1.51 0 0 0 .93.31c.45 0 .68-.15.68-.45a.38.38 0 0 0-.06-.22c-.04-.06-.1-.1-.16-.16s-.14-.1-.23-.12l-.3-.12-.38-.17a.95.95 0 0 1-.27-.2.67.67 0 0 1-.16-.25c-.04-.1-.06-.2-.06-.32 0-.15.04-.3.1-.4s.16-.2.28-.3.25-.14.4-.18a1.76 1.76 0 0 1 .46-.06c.28 0 .53.05.75.15v.52c-.24-.16-.5-.23-.82-.23a1.03 1.03 0 0 0-.26.03.61.61 0 0 0-.2.09c-.06.04-.1.1-.13.14-.03.06-.05.12-.05.18 0 .08.01.15.05.2.03.06.07.1.13.15a1.96 1.96 0 0 0 .21.12c.08.04.18.07.3.12a2.7 2.7 0 0 1 .38.17 1.24 1.24 0 0 1 .29.2c.08.07.14.16.18.25s.06.2.06.34a.82.82 0 0 1-.11.42.78.78 0 0 1-.28.29 1.08 1.08 0 0 1-.41.17c-.15.04-.3.06-.48.06a1.79 1.79 0 0 1-.84-.19z"/><path id="v" d="M264.4 51.66h-37.46a2.58 2.58 0 0 1-2.58-2.58v-9.7a2.58 2.58 0 0 1 2.58-2.58h37.46a2.58 2.58 0 0 1 2.58 2.58v9.7c0 1.43-1.15 2.58-2.58 2.58z"/><path id="w" d="M241.9 46.86h-.57v-.56h-.01c-.25.43-.6.64-1.1.64-.35 0-.63-.1-.83-.28s-.3-.44-.3-.75c0-.66.4-1.05 1.17-1.16l1.07-.15c0-.6-.24-.9-.73-.9-.43 0-.8.15-1.16.44v-.58c.35-.22.75-.33 1.2-.33.83 0 1.25.44 1.25 1.33v2.3zm-.57-1.8l-.86.12c-.26.04-.46.1-.6.2-.13.1-.2.26-.2.5a.52.52 0 0 0 .19.42c.12.1.3.16.5.16a.92.92 0 0 0 .7-.3c.2-.2.28-.45.28-.75v-.35z"/><path id="x" d="M242.75 46.73v-.6a1.67 1.67 0 0 0 1.02.34c.5 0 .75-.17.75-.5 0-.1-.02-.17-.06-.24s-.1-.12-.17-.18c-.07-.05-.16-.1-.26-.14l-.32-.13c-.16-.06-.3-.13-.4-.2s-.22-.14-.3-.22a.8.8 0 0 1-.18-.27.97.97 0 0 1-.06-.36c0-.17.04-.3.12-.44s.18-.24.3-.32a1.48 1.48 0 0 1 .44-.2c.17-.05.33-.07.5-.07.3 0 .58.05.83.16v.58a1.61 1.61 0 0 0-.9-.26c-.1 0-.2.01-.3.04a.64.64 0 0 0-.22.1.43.43 0 0 0-.14.16c-.03.06-.05.13-.05.2a.52.52 0 0 0 .05.23c.03.06.08.12.15.17a.89.89 0 0 0 .24.13l.32.13c.16.06.3.12.42.2a1.29 1.29 0 0 1 .32.22.69.69 0 0 1 .2.28c.05.1.07.23.07.37 0 .18-.04.33-.12.46a.95.95 0 0 1-.31.32 1.3 1.3 0 0 1-.45.19 2.33 2.33 0 0 1-.53.06c-.37.01-.7-.06-.96-.2z"/><path id="y" d="M245.77 46.73v-.6a1.67 1.67 0 0 0 1.02.34c.5 0 .75-.17.75-.5 0-.1-.02-.17-.06-.24s-.1-.12-.17-.18c-.07-.05-.16-.1-.26-.14l-.32-.13c-.16-.06-.3-.13-.4-.2s-.22-.14-.3-.22a.8.8 0 0 1-.18-.27.97.97 0 0 1-.06-.36c0-.17.04-.3.12-.44s.18-.24.3-.32a1.48 1.48 0 0 1 .44-.2c.17-.05.33-.07.5-.07.3 0 .58.05.83.16v.58a1.61 1.61 0 0 0-.9-.26c-.1 0-.2.01-.3.04a.64.64 0 0 0-.22.1.43.43 0 0 0-.14.16c-.03.06-.05.13-.05.2a.52.52 0 0 0 .05.23c.03.06.08.12.15.17a.89.89 0 0 0 .24.13l.32.13c.16.06.3.12.42.2a1.29 1.29 0 0 1 .32.22.69.69 0 0 1 .2.28c.05.1.07.23.07.37 0 .18-.04.33-.12.46a.95.95 0 0 1-.31.32 1.3 1.3 0 0 1-.45.19 2.33 2.33 0 0 1-.53.06c-.38.01-.7-.06-.96-.2z"/><path id="z" d="M251.85 45.23h-2.5c.01.4.12.7.32.92.2.2.48.32.84.32.4 0 .77-.13 1.1-.4v.53c-.3.23-.73.34-1.24.34-.5 0-.9-.16-1.18-.48-.3-.32-.43-.78-.43-1.36 0-.55.16-1 .47-1.35a1.49 1.49 0 0 1 1.17-.52c.46 0 .83.15 1.08.45s.38.72.38 1.25v.3zm-.58-.5c0-.33-.08-.58-.24-.77s-.37-.27-.65-.27c-.27 0-.5.1-.68.3s-.3.44-.35.75h1.92z"/><path id="AA" d="M255.75 46.86h-.57v-.6h-.01c-.26.46-.67.7-1.22.7a1.32 1.32 0 0 1-1.07-.48c-.27-.32-.4-.75-.4-1.3 0-.6.15-1.06.44-1.4.3-.35.7-.53 1.18-.53s.84.2 1.06.58h.01v-2.2h.57v5.25zm-.57-1.6v-.52a1.01 1.01 0 0 0-.28-.73.95.95 0 0 0-.72-.3c-.35 0-.62.13-.82.38s-.3.6-.3 1.05c0 .4.1.73.3.97.2.24.45.36.77.36a.96.96 0 0 0 .77-.34c.2-.23.3-.52.3-.87z"/><path id="AB" d="M34.06 287.2c-.12.07-.28.1-.48.1-.57 0-.85-.32-.85-.95v-1.9h-.55V284h.55v-.8l.52-.17v.96h.8v.44h-.8v1.82c0 .22.04.37.1.46s.2.14.37.14c.13 0 .24-.04.34-.1v.44z"/><path id="AC" d="M46.3 276.04h-1.17v-.82h-.02c-.34.63-.87.94-1.58.94-1.22 0-1.83-.73-1.83-2.2v-3.1h1.17v2.97c0 .93.36 1.4 1.08 1.4.35 0 .63-.13.86-.38.22-.26.33-.6.33-1v-2.97h1.17v5.16z"/><path id="AD" d="M54.5 276.04h-1.14v-.8h-.02c-.36.62-.88.93-1.57.93-.5 0-.9-.14-1.2-.4-.3-.28-.43-.64-.43-1.1 0-.98.56-1.54 1.7-1.7l1.53-.22c0-.74-.35-1.1-1.05-1.1a2.48 2.48 0 0 0-1.67.64v-1.02c.54-.32 1.17-.48 1.9-.48 1.3 0 1.96.64 1.96 1.93v3.34zm-1.13-2.54l-1.08.15c-.34.04-.6.13-.76.24-.17.12-.25.33-.25.63 0 .22.08.4.24.54s.37.2.63.2a1.18 1.18 0 0 0 .89-.38c.23-.25.35-.57.35-.95v-.44z"/><path id="AE" d="M58.92 272c-.14-.1-.34-.17-.6-.17-.35 0-.64.16-.87.47s-.35.74-.35 1.28v2.47h-1.17v-5.17h1.17v1.06h.02c.1-.36.3-.65.53-.85s.5-.3.8-.3c.2 0 .37.03.48.1V272z"/><path id="AF" d="M76 275.98c-.23.1-.53.17-.9.17-1 0-1.5-.48-1.5-1.44v-2.92h-.86v-.92h.86v-1.2l1.17-.33v1.53h1.24v.92h-1.24v2.58c0 .3.06.52.17.66.1.13.3.2.55.2.2 0 .37-.06.5-.17v.92z"/><path id="AG" d="M109.42 276.04h-1.17v-2.82c0-.54-.08-.93-.23-1.18s-.4-.36-.77-.36c-.3 0-.57.15-.78.46s-.32.67-.32 1.1v2.8h-1.18v-2.9c0-.96-.34-1.44-1.02-1.44-.32 0-.58.14-.78.43s-.3.66-.3 1.13v2.8h-1.17v-5.17h1.17v.82h.02a1.78 1.78 0 0 1 1.63-.94 1.53 1.53 0 0 1 .94.3c.27.2.45.46.55.77.38-.7.96-1.07 1.72-1.07 1.14 0 1.7.7 1.7 2.1v3.2z"/><path id="AH" d="M129.07 275.75v-1.24c.1.1.24.2.4.27a2.65 2.65 0 0 0 .49.2 3.18 3.18 0 0 0 .51.13 2.79 2.79 0 0 0 .47.05c.5 0 .88-.08 1.13-.25a.82.82 0 0 0 .37-.73.84.84 0 0 0-.12-.45c-.08-.13-.2-.24-.35-.35a4.8 4.8 0 0 0-.52-.3l-.64-.3-.7-.4c-.2-.13-.4-.28-.55-.45-.16-.16-.28-.35-.37-.55s-.13-.45-.13-.72c0-.34.08-.63.23-.9a1.9 1.9 0 0 1 .61-.62 2.89 2.89 0 0 1 .86-.36c.32-.08.65-.12.98-.12.76 0 1.3.1 1.66.26v1.2c-.4-.3-.94-.44-1.58-.44a3.07 3.07 0 0 0-.53.05c-.18.03-.33.1-.47.17a1.1 1.1 0 0 0-.34.3c-.1.12-.13.27-.13.44 0 .16.03.3.1.42s.17.23.3.32c.13.1.3.2.47.28l.65.3.7.4c.22.15.42.3.6.48a2.23 2.23 0 0 1 .4.58 1.7 1.7 0 0 1 .15.73c0 .37-.07.68-.22.93a1.87 1.87 0 0 1-.6.62c-.25.16-.54.27-.87.34s-.67.1-1.03.1c-.12 0-.27-.01-.45-.03l-.54-.08-.52-.13c-.18-.05-.32-.1-.42-.17z"/><path id="AI" d="M141.52 269.8a.67.67 0 0 1-.49-.19c-.14-.12-.2-.28-.2-.47s.07-.35.2-.48c.14-.13.3-.2.5-.2.2 0 .37.06.5.2a.63.63 0 0 1 .21.48c0 .18-.07.34-.2.47s-.3.2-.5.2zm.58 6.25h-1.17v-5.17h1.17v5.17z"/><path id="AJ" d="M527.88 270.88a.97.97 0 0 0-.06-.36c-.04-.1-.1-.2-.18-.26a.68.68 0 0 0-.26-.15 1.14 1.14 0 0 0-.33-.05c-.1 0-.2.01-.3.04a1.36 1.36 0 0 0-.28.11c-.1.05-.18.1-.26.17-.1.07-.17.14-.24.22v-.55c.14-.14.3-.25.5-.32a1.82 1.82 0 0 1 .66-.11c.18 0 .36.03.5.08.16.05.3.13.4.23s.2.23.27.38.1.32.1.52a1.88 1.88 0 0 1-.06.49c-.04.15-.1.28-.2.4a2.1 2.1 0 0 1-.31.37 3.4 3.4 0 0 1-.44.36l-.53.4c-.14.1-.25.2-.33.3s-.14.2-.17.28-.05.2-.05.32h2.25v.46h-2.8V274c0-.2.02-.36.06-.5s.1-.3.2-.42.22-.26.38-.4l.58-.45.4-.34c.1-.1.2-.2.27-.32s.12-.22.14-.33.04-.2.04-.34z"/><path id="AK" d="M532.15 271.94a4.43 4.43 0 0 1-.1 1.01c-.07.3-.17.54-.3.74s-.3.35-.48.46a1.35 1.35 0 0 1-.64.16c-.23 0-.43-.05-.6-.15a1.26 1.26 0 0 1-.45-.44c-.12-.2-.2-.43-.28-.7a4.61 4.61 0 0 1-.09-.96 4.74 4.74 0 0 1 .1-1.05c.07-.3.16-.56.3-.76s.3-.36.48-.46a1.39 1.39 0 0 1 .65-.16c.95-.01 1.43.76 1.43 2.3zm-.53.05c0-1.3-.3-1.93-.92-1.93-.64 0-.97.65-.97 1.96 0 1.22.32 1.83.95 1.83.62.01.94-.62.94-1.86z"/><path id="AL" d="M546.58 274.22h-.52v-.5h-.01c-.2.4-.55.6-1 .6-.77 0-1.15-.46-1.15-1.38V271h.5v1.85c0 .68.26 1.02.78 1.02.25 0 .46-.1.62-.28s.24-.43.24-.73V271h.52v3.23z"/><path id="AM" d="M550.3 274.22h-.52v-1.84c0-.7-.25-1.03-.75-1.03a.82.82 0 0 0-.64.29c-.17.2-.25.44-.25.74v1.84h-.52V271h.52v.54h.01c.24-.4.6-.6 1.06-.6.35 0 .62.1.8.34s.28.56.28 1v1.97z"/><path id="AN" d="M536.82 280.7a1.31 1.31 0 0 1-.12.56c-.08.17-.18.3-.32.43a1.62 1.62 0 0 1-.5.28c-.2.07-.4.1-.65.1-.43 0-.77-.08-1.03-.25v-.56a1.63 1.63 0 0 0 1.05.36 1.44 1.44 0 0 0 .43-.06c.13-.04.24-.1.33-.17.1-.08.16-.17.2-.27.05-.1.07-.23.07-.36 0-.6-.42-.9-1.26-.9h-.38v-.44h.36c.74 0 1.12-.28 1.12-.83 0-.5-.28-.77-.85-.77-.32 0-.62.1-.9.32v-.5c.3-.17.63-.26 1.03-.26.2 0 .36.03.5.08s.28.13.4.22a.94.94 0 0 1 .25.34 1.05 1.05 0 0 1 .09.44c0 .6-.3.98-.9 1.15v.01a1.6 1.6 0 0 1 .43.11c.13.06.24.13.34.23.1.1.17.2.22.33s.08.25.08.4z"/><path id="AO" d="M541.48 279.37c-.1 0-.18-.03-.25-.1s-.1-.15-.1-.25.03-.18.1-.25.15-.1.25-.1.18.03.25.1.1.15.1.25-.04.18-.1.25c-.07.07-.15.1-.25.1zm0 2.67c-.1 0-.18-.03-.25-.1s-.1-.15-.1-.25.03-.18.1-.25a.34.34 0 0 1 .5 0c.07.07.1.15.1.25s-.04.18-.1.25-.15.1-.25.1z"/><path id="AP" d="M264.4 283h-37.46a2.58 2.58 0 0 1-2.58-2.58v-9.7a2.58 2.58 0 0 1 2.58-2.58h37.46a2.58 2.58 0 0 1 2.58 2.58v9.7a2.58 2.58 0 0 1-2.58 2.58z"/><path id="AQ" d="M244.3 273.75c-.1 0-.2-.03-.26-.1s-.1-.16-.1-.26.04-.2.1-.27c.07-.07.16-.1.26-.1s.2.04.27.1a.37.37 0 0 1 .11.27c0 .1-.04.2-.1.26a.45.45 0 0 1-.27.1zm.28 4.45H244v-3.55h.57v3.55z"/><path id="AR" d="M250.3 276.57h-2.5c.01.4.12.7.32.92.2.2.48.32.84.32.4 0 .77-.13 1.1-.4v.53c-.3.23-.73.34-1.24.34-.5 0-.9-.16-1.18-.48-.3-.32-.43-.78-.43-1.36 0-.55.16-1 .47-1.35a1.49 1.49 0 0 1 1.17-.52c.46 0 .83.15 1.08.45s.38.72.38 1.25v.3zm-.58-.48c0-.33-.08-.58-.24-.77s-.37-.27-.65-.27c-.27 0-.5.1-.68.3s-.3.44-.35.75h1.92z"/><path id="AS" d="M396.63 87.76c-.67 0-1.2-.2-1.6-.63s-.6-.98-.6-1.68c0-.76.2-1.35.62-1.78s.98-.64 1.68-.64c.67 0 1.2.2 1.58.62s.57 1 .57 1.73c0 .72-.2 1.3-.6 1.73-.4.44-.96.65-1.64.65zm.05-4.12c-.46 0-.83.16-1.1.47-.27.32-.4.75-.4 1.3 0 .54.14.96.4 1.27s.64.46 1.1.46c.47 0 .83-.15 1.08-.45s.38-.73.38-1.3-.13-1-.38-1.3-.6-.46-1.08-.46z"/><path id="AT" d="M57.95 83.55h-1.17v-2.9c0-.97-.34-1.45-1.02-1.45-.36 0-.65.13-.88.4s-.35.6-.35 1v2.95h-1.18v-5.17h1.18v.86h.02c.4-.65.94-.98 1.67-.98.56 0 1 .18 1.3.55s.44.9.44 1.58v3.16z"/><path id="AU" d="M96.78 81.3h-3.52c.01.48.16.85.44 1.1.28.26.67.4 1.16.4a2.55 2.55 0 0 0 1.52-.49v.94c-.47.3-1.1.44-1.87.44-.76 0-1.36-.23-1.8-.7s-.65-1.13-.65-1.98c0-.8.24-1.46.7-1.97a2.33 2.33 0 0 1 1.77-.76c.7 0 1.25.23 1.64.68s.58 1.08.58 1.9v.46zm-1.13-.83c0-.42-.1-.75-.3-.98s-.46-.35-.8-.35c-.34 0-.62.12-.86.37-.23.25-.38.57-.43.96h2.4z"/><path id="AV" d="M106.65 83.5c-.23.1-.53.17-.9.17-1 0-1.5-.48-1.5-1.44V79.3h-.86v-.92h.86v-1.2l1.17-.33v1.53h1.24v.92h-1.24v2.58c0 .3.06.52.17.66.1.13.3.2.55.2.2 0 .37-.06.5-.17v.92z"/><path id="AW" d="M60 179.53h-.67v-.66h-.02a1.4 1.4 0 0 1-1.29.75c-.42 0-.75-.1-.98-.33-.24-.22-.35-.5-.35-.88 0-.78.46-1.24 1.4-1.37l1.26-.18c0-.7-.3-1.07-.86-1.07a2.04 2.04 0 0 0-1.37.52v-.7c.4-.26.9-.4 1.43-.4 1 0 1.48.52 1.48 1.57v2.73zm-.67-2.12l-1 .14c-.3.04-.55.12-.7.23s-.24.3-.24.6a.63.63 0 0 0 .22.5c.15.13.34.2.58.2a1.11 1.11 0 0 0 .83-.35c.22-.23.33-.53.33-.9v-.4z"/><path id="AX" d="M65.64 174.27c-.12 0-.22-.04-.3-.12a.44.44 0 0 1-.13-.31c0-.13.04-.23.13-.3a.44.44 0 0 1 .31-.13.4.4 0 0 1 .44.44c0 .12-.04.22-.13.3a.43.43 0 0 1-.31.12zm.33 5.26h-.67v-4.2h.67v4.2z"/><path id="AY" d="M78.5 179.5c-.16.1-.37.13-.63.13-.73 0-1.1-.4-1.1-1.23v-2.48h-.72v-.57h.72v-1.02l.67-.22v1.24h1.06v.57h-1.06v2.37c0 .28.05.48.14.6s.25.18.48.18c.17 0 .32-.05.44-.14v.57z"/><path id="AZ" d="M90.68 179.63c-.62 0-1.12-.2-1.5-.6s-.56-.9-.56-1.56c0-.7.2-1.26.58-1.65.38-.4.9-.6 1.56-.6.63 0 1.1.2 1.47.58.35.4.53.92.53 1.6 0 .67-.2 1.2-.57 1.6s-.9.6-1.52.6zm.05-3.83c-.43 0-.77.15-1.03.44-.25.3-.38.7-.38 1.22 0 .5.13.9.38 1.18s.6.43 1.02.43.77-.14 1-.42.35-.68.35-1.2-.12-.93-.35-1.2c-.22-.3-.56-.44-1-.44z"/><path id="Aa" d="M101.43 175.33l-1.26 4.2h-.7l-.87-3c-.03-.1-.05-.24-.07-.4h-.02c-.01.1-.04.23-.1.38l-.94 3h-.67l-1.27-4.2h.7l.87 3.16a1.68 1.68 0 0 1 .06.38h.03c.01-.12.03-.25.07-.4l.97-3.15h.62l.87 3.16a1.78 1.78 0 0 1 .06.38h.03c.01-.1.03-.23.07-.38l.85-3.16h.68z"/><path id="Ab" d="M119.54 177.6h-2.96c.01.47.14.83.38 1.08s.57.38 1 .38c.47 0 .9-.16 1.3-.47v.63c-.37.27-.86.4-1.46.4-.6 0-1.06-.2-1.4-.57s-.5-.92-.5-1.6c0-.65.2-1.2.56-1.6s.83-.62 1.38-.62.97.18 1.28.53c.3.36.45.85.45 1.48v.37zm-.7-.57c0-.4-.1-.7-.28-.9s-.44-.32-.77-.32c-.32 0-.6.1-.8.34a1.54 1.54 0 0 0-.41.89h2.27z"/><path id="Ac" d="M134.64 179.53h-.67v-2.4c0-.46-.07-.8-.22-1-.14-.2-.38-.3-.72-.3-.3 0-.53.13-.73.4s-.3.58-.3.94v2.4h-.67v-2.5c0-.83-.32-1.24-.96-1.24a.88.88 0 0 0-.73.37c-.2.25-.3.57-.3.97v2.4h-.67v-4.2h.67v.68h.02c.3-.5.73-.76 1.3-.76.3 0 .54.08.75.24a1.23 1.23 0 0 1 .44.63c.3-.58.78-.87 1.4-.87.92 0 1.4.57 1.4 1.7v2.58z"/><path id="Ad" d="M151.95 179.34c-.32.2-.7.3-1.15.3-.6 0-1.08-.2-1.45-.58s-.55-.9-.55-1.5c0-.7.2-1.25.6-1.67.4-.42.92-.63 1.6-.63a2.35 2.35 0 0 1 .98.2v.7c-.3-.22-.64-.33-1-.33-.43 0-.78.15-1.06.46-.27.3-.4.7-.4 1.2 0 .5.13.88.4 1.16s.6.43 1.04.43c.37 0 .7-.12 1.03-.36v.64z"/><path id="Ae" d="M154.72 179.63c-.62 0-1.12-.2-1.5-.6s-.56-.9-.56-1.56c0-.7.2-1.26.58-1.65.38-.4.9-.6 1.56-.6.63 0 1.1.2 1.47.58.35.4.53.92.53 1.6 0 .67-.2 1.2-.57 1.6-.37.4-.88.6-1.52.6zm.05-3.83c-.43 0-.77.15-1.03.44-.25.3-.38.7-.38 1.22 0 .5.13.9.38 1.18s.6.43 1.02.43.77-.14 1-.42.35-.68.35-1.2-.12-.93-.35-1.2c-.22-.3-.55-.44-1-.44z"/><path id="Af" d="M240.13 177.73v1.8h-.82v-4.97h1.5c.57 0 1 .13 1.33.4.3.27.47.64.47 1.12s-.16.88-.5 1.2-.77.46-1.33.46h-.67zm0-2.5v1.82h.53c.35 0 .62-.08.8-.25.18-.16.28-.4.28-.7 0-.58-.34-.88-1.02-.88h-.6z"/><path id="Ag" d="M245.9 179.53h-.78v-.56h-.01c-.25.43-.6.64-1.08.64-.35 0-.62-.1-.82-.28s-.3-.44-.3-.75c0-.67.4-1.06 1.16-1.17l1.05-.15c0-.5-.24-.76-.72-.76-.42 0-.8.15-1.14.44v-.7c.37-.22.8-.33 1.3-.33.9 0 1.35.44 1.35 1.33v2.3zm-.78-1.74l-.75.1c-.23.03-.4.1-.52.17-.12.08-.17.23-.17.43a.47.47 0 0 0 .16.37c.1.1.25.14.43.14a.8.8 0 0 0 .61-.26c.16-.17.24-.4.24-.65v-.3z"/><path id="Ah" d="M246.66 179.42v-.75a1.59 1.59 0 0 0 1 .34c.5 0 .73-.14.73-.43a.37.37 0 0 0-.06-.21c-.04-.06-.1-.1-.17-.15s-.15-.08-.25-.12a3.32 3.32 0 0 1-.32-.12c-.15-.06-.28-.12-.4-.18-.12-.06-.2-.14-.3-.22s-.14-.17-.17-.28-.06-.23-.06-.36a.84.84 0 0 1 .12-.45 1.04 1.04 0 0 1 .33-.33 1.46 1.46 0 0 1 .46-.2c.17-.05.35-.07.54-.07.33 0 .62.05.88.15v.7c-.25-.17-.54-.26-.86-.26-.1 0-.2.01-.28.03a.58.58 0 0 0-.21.09c-.06.04-.1.08-.13.13s-.05.1-.05.17c0 .08.02.14.05.2s.08.1.14.14.14.08.23.1l.3.1c.15.06.3.13.4.2s.22.14.3.22a1.1 1.1 0 0 1 .2.28.92.92 0 0 1 .07.38.81.81 0 0 1-.13.47c-.08.13-.2.25-.33.33a2.1 2.1 0 0 1-.48.2 2.62 2.62 0 0 1-.57.06c-.4.03-.75-.03-1.03-.16z"/><path id="Ai" d="M256 177.97h-2.42c.01.33.1.58.3.76s.46.27.8.27c.38 0 .73-.1 1.04-.34v.65c-.32.2-.75.3-1.28.3-.52 0-.93-.16-1.23-.48s-.45-.78-.45-1.36c0-.55.16-1 .5-1.35s.73-.52 1.22-.52.86.16 1.13.47.4.75.4 1.3v.3zm-.78-.57c0-.3-.07-.5-.2-.67s-.32-.24-.56-.24a.78.78 0 0 0-.59.25c-.16.17-.26.4-.3.66h1.65z"/><path id="Aj" d="M260 179.53h-.8v-.6h-.01c-.26.46-.66.7-1.2.7-.44 0-.8-.16-1.05-.48s-.4-.75-.4-1.3c0-.6.14-1.06.44-1.4.3-.35.68-.53 1.16-.53s.83.2 1.04.58h.01v-2.2h.8v5.25zm-.8-1.62v-.46c0-.25-.08-.47-.25-.64-.17-.18-.37-.26-.63-.26-.3 0-.54.1-.7.34-.17.22-.26.54-.26.93 0 .36.08.65.25.86a.81.81 0 0 0 .67.31.83.83 0 0 0 .67-.3c.18-.22.26-.47.26-.78z"/><path id="Ak" d="M246.66 193.8v-.75a1.59 1.59 0 0 0 1 .34c.5 0 .73-.14.73-.43a.37.37 0 0 0-.06-.21c-.04-.06-.1-.1-.17-.15s-.15-.08-.25-.12a3.32 3.32 0 0 1-.32-.12c-.15-.06-.28-.12-.4-.18-.12-.06-.2-.14-.3-.22s-.14-.17-.17-.28-.06-.23-.06-.36a.84.84 0 0 1 .12-.45 1.04 1.04 0 0 1 .33-.33 1.46 1.46 0 0 1 .46-.2c.17-.05.35-.07.54-.07.33 0 .62.05.88.15v.7c-.25-.17-.54-.26-.86-.26-.1 0-.2.01-.28.03a.58.58 0 0 0-.21.09c-.06.04-.1.08-.13.13s-.05.1-.05.17c0 .08.02.14.05.2s.08.1.14.14.14.08.23.1l.3.1c.15.06.3.13.4.2s.22.14.3.22a1.1 1.1 0 0 1 .2.28.92.92 0 0 1 .07.38.81.81 0 0 1-.13.47c-.08.13-.2.25-.33.33a2.1 2.1 0 0 1-.48.2 2.62 2.62 0 0 1-.57.06c-.4.04-.75-.03-1.03-.16z"/><path id="Al" d="M260 223.57h-.8v-.6h-.01c-.26.46-.66.7-1.2.7-.44 0-.8-.16-1.05-.48s-.4-.75-.4-1.3c0-.6.14-1.06.44-1.4.3-.35.68-.53 1.16-.53s.83.2 1.04.58h.01v-2.2h.8v5.25zm-.8-1.62v-.46c0-.25-.08-.47-.25-.64-.17-.18-.37-.26-.63-.26-.3 0-.54.1-.7.34-.17.22-.26.54-.26.93 0 .36.08.65.25.86a.81.81 0 0 0 .67.31.83.83 0 0 0 .67-.3c.18-.22.26-.48.26-.78z"/><path id="Am" d="M54.8 193.67c-.43.23-.98.34-1.62.34-.84 0-1.5-.27-2-.8s-.75-1.25-.75-2.12c0-.94.28-1.7.85-2.28s1.28-.87 2.15-.87c.56 0 1.02.08 1.4.24v.73c-.42-.24-.9-.35-1.4-.35-.67 0-1.22.23-1.64.68s-.63 1.05-.63 1.8c0 .72.2 1.3.6 1.7.4.43.9.64 1.54.64.6 0 1.1-.13 1.53-.4v.67z"/><path id="An" d="M67.35 193.9h-.94l-1.85-2.02h-.02v2.02h-.67v-6.2h.67v3.94h.02l1.76-1.92h.88l-1.95 2.02 2.1 2.17z"/><path id="Ao" d="M84.5 188.65c-.12 0-.22-.04-.3-.12a.44.44 0 0 1-.13-.31c0-.13.04-.23.13-.3a.44.44 0 0 1 .31-.13.4.4 0 0 1 .44.44c0 .12-.04.22-.13.3-.1.08-.2.12-.3.12zm.32 5.26h-.67v-4.2h.67v4.2z"/><path id="Ap" d="M107.75 193.9h-.67v-2.4c0-.9-.33-1.34-.98-1.34-.34 0-.6.13-.83.38s-.33.57-.33.96v2.4h-.67v-4.2h.67v.7h.02c.32-.53.78-.8 1.38-.8.46 0 .8.15 1.05.44.24.3.37.72.37 1.3v2.56z"/><path id="Aq" d="M61.67 223.53c-.16.1-.37.13-.63.13-.73 0-1.1-.4-1.1-1.23v-2.48h-.72v-.57h.72v-1.02l.67-.22v1.24h1.06v.57H60.6v2.37c0 .28.05.48.14.6s.25.18.48.18c.17 0 .32-.05.44-.14v.57z"/><path id="Ar" d="M69.14 220.05c-.12-.1-.3-.14-.5-.14-.3 0-.53.14-.72.4s-.3.64-.3 1.1v2.14h-.67v-4.2h.67v.87h.02c.1-.3.24-.53.44-.7a.99.99 0 0 1 .66-.25c.17 0 .3.02.4.06v.7z"/><path id="As" d="M396.63 133.35c-.67 0-1.2-.2-1.6-.63s-.6-.98-.6-1.68c0-.76.2-1.35.62-1.78s.98-.64 1.68-.64c.67 0 1.2.2 1.58.62s.57 1 .57 1.73c0 .72-.2 1.3-.6 1.73s-.96.65-1.64.65zm.05-4.13c-.46 0-.83.16-1.1.47-.27.32-.4.75-.4 1.3 0 .54.14.96.4 1.27s.64.46 1.1.46c.47 0 .83-.15 1.08-.45s.38-.73.38-1.3-.13-1-.38-1.3c-.25-.3-.6-.46-1.08-.46z"/><path id="At" d="M512.56 126.1a4.43 4.43 0 0 1-.1 1.01c-.07.3-.17.54-.3.74s-.3.35-.48.46a1.35 1.35 0 0 1-.64.16c-.23 0-.43-.05-.6-.15a1.26 1.26 0 0 1-.45-.44c-.12-.2-.2-.43-.28-.7a4.61 4.61 0 0 1-.09-.96 4.74 4.74 0 0 1 .1-1.05c.07-.3.16-.56.3-.76s.3-.36.48-.46a1.39 1.39 0 0 1 .65-.16c.96 0 1.43.77 1.43 2.3zm-.53.05c0-1.3-.3-1.93-.92-1.93-.64 0-.97.65-.97 1.96 0 1.22.32 1.83.95 1.83.63.01.94-.6.94-1.86z"/><path id="Au" d="M513.53 133.53c-.1 0-.18-.03-.25-.1s-.1-.15-.1-.25.03-.18.1-.25.15-.1.25-.1.18.03.25.1.1.15.1.25-.04.18-.1.25c-.07.06-.15.1-.25.1zm0 2.66c-.1 0-.18-.03-.25-.1s-.1-.15-.1-.25.03-.18.1-.25a.34.34 0 0 1 .5 0c.07.07.1.15.1.25s-.04.18-.1.25-.15.1-.25.1z"/><path id="Av" d="M520.87 133.6a4.72 4.72 0 0 1-.12 1.11 2.29 2.29 0 0 1-.36.82 1.66 1.66 0 0 1-.58.51c-.23.12-.5.17-.78.17-.3 0-.56-.05-.8-.16v-.5a1.62 1.62 0 0 0 .8.21c.2 0 .4-.04.55-.13a1.11 1.11 0 0 0 .41-.37 1.67 1.67 0 0 0 .25-.59c.06-.24.1-.5.1-.8h-.01c-.2.4-.53.58-1 .58-.2 0-.37-.03-.53-.1s-.3-.16-.42-.3-.2-.27-.27-.45c-.07-.17-.1-.36-.1-.57 0-.22.04-.43.1-.6s.17-.34.3-.48c.13-.13.28-.24.46-.3s.37-.1.58-.1c.23 0 .43.05.6.14.18.1.32.23.44.4.12.18.2.4.27.65.08.27.1.56.1.9zm-.56-.46c0-.17-.02-.33-.07-.48a1.17 1.17 0 0 0-.19-.37.85.85 0 0 0-.29-.24c-.12-.06-.23-.08-.36-.08-.12 0-.24.02-.35.07s-.2.12-.28.2a1.13 1.13 0 0 0-.19.32 1.29 1.29 0 0 0-.07.4 1.44 1.44 0 0 0 .06.43c.04.13.1.23.18.32s.18.15.3.2.24.07.37.07c.12 0 .23-.02.34-.07s.2-.1.28-.18c.08-.08.14-.17.2-.27a.74.74 0 0 0 .09-.33z"/><path id="Aw" d="M525.27 131.6v3h.58v.47h-.58v1.06h-.5v-1.06h-2.13v-.45l.6-.7.58-.77.5-.78c.16-.26.3-.5.4-.75h.55zm-2.05 3h1.54v-2.2l-.45.74-.4.6-.36.48a5.81 5.81 0 0 0-.33.4z"/><path id="Ax" d="M584.25 126.1a4.43 4.43 0 0 1-.1 1.01c-.07.3-.17.54-.3.74s-.3.35-.48.46a1.35 1.35 0 0 1-.64.16c-.23 0-.43-.05-.6-.15a1.26 1.26 0 0 1-.45-.44c-.12-.2-.2-.43-.28-.7a4.61 4.61 0 0 1-.09-.96 4.74 4.74 0 0 1 .1-1.05c.07-.3.16-.56.3-.76s.3-.36.48-.46a1.39 1.39 0 0 1 .65-.16c.95 0 1.43.77 1.43 2.3zm-.53.05c0-1.3-.3-1.93-.92-1.93-.64 0-.97.65-.97 1.96 0 1.22.32 1.83.95 1.83.63.01.94-.6.94-1.86z"/><path id="Ay" d="M43.12 210.6h-6.16a1.05 1.05 0 0 1-1.05-1.05v-6.16a1.05 1.05 0 0 1 1.05-1.05h6.16a1.05 1.05 0 0 1 1.05 1.05v6.16c-.01.58-.47 1.05-1.05 1.05zm-6.16-7.75c-.3 0-.55.25-.55.55v6.16c0 .3.25.55.55.55h6.16a.55.55 0 0 0 .55-.55v-6.16c0-.3-.25-.55-.55-.55h-6.16z"/></defs></svg>